 0
SECTION
 2
ENTITIES
  0
LINE
 8
Group#2
10
-9.604449432155448
20
-2.7397890810489973
30
0.0
11
-9.647058565279426
21
-2.7803240061971004
31
0.0
  0
LINE
 8
Group#2
10
-9.647058565279426
20
-2.7803240061971004
30
0.0
11
-10.18097467266973
21
-3.124733909583206
31
0.0
  0
LINE
 8
Group#2
10
-14.421779597273401
20
12.161737180502096
30
0.0
11
-14.04400281411406
21
11.968763265123258
31
0.0
  0
LINE
 8
Group#2
10
-14.04400281411406
20
11.968763265123258
30
0.0
11
-13.629153138180003
21
11.88014060273792
31
0.0
  0
LINE
 8
Group#2
10
-13.629153138180003
20
11.88014060273792
30
0.0
11
-13.20550188931463
21
11.901908681331776
31
0.0
  0
LINE
 8
Group#2
10
-13.20550188931463
20
11.901908681331776
30
0.0
11
-12.801920200011327
21
12.032584042322087
31
0.0
  0
LINE
 8
Group#2
10
-12.801920200011327
20
12.032584042322087
30
0.0
11
-12.445911495445834
21
12.263261375808625
31
0.0
  0
LINE
 8
Group#2
10
-12.445911495445834
20
12.263261375808625
30
0.0
11
-12.161737180502094
21
12.578220402726592
31
0.0
  0
LINE
 8
Group#2
10
-12.161737180502094
20
12.578220402726592
30
0.0
11
-11.968763265123258
21
12.955997185885934
31
0.0
  0
LINE
 8
Group#2
10
-11.968763265123258
20
12.955997185885934
30
0.0
11
-11.880140602737923
21
13.370846861819992
31
0.0
  0
LINE
 8
Group#2
10
15.006518566650097
20
-12.214068570417135
30
0.0
11
14.70754708091669
21
-12.515017537235794
31
0.0
  0
LINE
 8
Group#2
10
15.793206624505688
20
-15.111788292503599
30
0.0
11
16.217414444677758
21
-15.110390002218546
31
0.0
  0
LINE
 8
Group#2
10
16.217414444677758
20
-15.110390002218546
30
0.0
11
16.62680582973939
21
-14.999246294577611
31
0.0
  0
LINE
 8
Group#2
10
14.65417032177264
20
12.589303850231904
30
0.0
11
14.935733863875406
21
12.27200871684754
31
0.0
  0
LINE
 8
Group#2
10
15.089303850231905
20
14.845829678227357
30
0.0
11
14.77200871684754
21
14.56426613612459
31
0.0
  0
LINE
 8
Group#2
10
-11.880140602737923
20
13.370846861819992
30
0.0
11
-11.901908681331772
21
13.794498110685367
31
0.0
  0
LINE
 8
Group#2
10
-12.263261375808627
20
14.55408850455416
30
0.0
11
-12.578220402726593
21
14.8382628194979
31
0.0
  0
LINE
 8
Group#2
10
-12.955997185885934
20
15.031236734876737
30
0.0
11
-13.370846861819992
21
15.119859397262074
31
0.0
  0
LINE
 8
Group#2
10
16.531338578773582
20
11.96432284815236
30
0.0
11
16.910696149768093
21
12.154170321772632
31
0.0
  0
LINE
 8
Group#2
10
16.910696149768093
20
12.154170321772632
30
0.0
11
17.22799128315246
21
12.435733863875404
31
0.0
  0
LINE
 8
Group#2
10
14.77200871684754
20
14.56426613612459
30
0.0
11
14.538399160058471
21
14.210174615627883
31
0.0
  0
LINE
 8
Group#2
10
17.50334587426062
20
-14.116908568868647
30
0.0
11
17.611788292503597
21
-13.706793375494305
31
0.0
  0
LINE
 8
Group#2
10
17.595604714898176
20
13.192314131304823
30
0.0
11
17.620870765395974
21
13.615771161714168
31
0.0
  0
LINE
 8
Group#2
10
17.611788292503597
20
-13.706793375494305
30
0.0
11
17.610390002218544
21
-13.282585555322239
31
0.0
  0
LINE
 8
Group#2
10
-13.370846861819992
20
15.119859397262074
30
0.0
11
-13.794498110685364
21
15.098091318668226
31
0.0
  0
LINE
 8
Group#2
10
14.935733863875406
20
12.27200871684754
30
0.0
11
15.289825384372113
21
12.03839916005847
31
0.0
  0
LINE
 8
Group#2
10
15.884228838285829
20
15.12087076539598
30
0.0
11
15.468661421226418
21
15.035677151847635
31
0.0
  0
LINE
 8
Group#2
10
16.62680582973939
20
-14.999246294577611
30
0.0
11
16.993481433349903
21
-14.785931429582861
31
0.0
  0
LINE
 8
Group#2
10
-14.55408850455416
20
14.736738624191366
30
0.0
11
-14.838262819497903
21
14.4217795972734
31
0.0
  0
LINE
 8
Group#2
10
17.499246294577613
20
-12.873194170260604
30
0.0
11
17.28593142958286
21
-12.506518566650099
31
0.0
  0
LINE
 8
Group#2
10
17.28593142958286
20
-12.506518566650099
30
0.0
11
16.984982462764204
21
-12.20754708091669
31
0.0
  0
LINE
 8
Group#2
10
16.206793375494303
20
-11.8882117074964
30
0.0
11
15.782585555322239
21
-11.889609997781449
31
0.0
  0
LINE
 8
Group#2
10
17.064266136124598
20
14.727991283152457
30
0.0
11
16.710174615627885
21
14.961600839941525
31
0.0
  0
LINE
 8
Group#2
10
-14.736738624191371
20
12.445911495445834
30
0.0
11
-14.421779597273401
21
12.161737180502096
31
0.0
  0
LINE
 8
Group#2
10
14.464322848152362
20
12.968661421226416
30
0.0
11
14.65417032177264
21
12.589303850231904
31
0.0
  0
LINE
 8
Group#2
10
-14.838262819497903
20
14.4217795972734
30
0.0
11
-15.031236734876737
21
14.04400281411406
31
0.0
  0
LINE
 8
Group#2
10
-15.119859397262074
20
13.629153138180003
30
0.0
11
-15.098091318668224
21
13.205501889314634
31
0.0
  0
LINE
 8
Group#2
10
-15.031236734876737
20
14.04400281411406
30
0.0
11
-15.119859397262074
21
13.629153138180003
31
0.0
  0
LINE
 8
Group#2
10
17.345829678227364
20
14.410696149768091
30
0.0
11
17.064266136124598
21
14.727991283152457
31
0.0
  0
LINE
 8
Group#2
10
-14.19807979998867
20
14.967415957677908
30
0.0
11
-14.55408850455416
21
14.736738624191366
31
0.0
  0
LINE
 8
Group#2
10
15.692314131304817
20
11.90439528510182
30
0.0
11
16.115771161714164
21
11.87912923460402
31
0.0
  0
LINE
 8
Group#2
10
16.115771161714164
20
11.87912923460402
30
0.0
11
16.531338578773582
21
11.96432284815236
31
0.0
  0
LINE
 8
Group#2
10
14.379129234604017
20
13.384228838285834
30
0.0
11
14.464322848152362
21
12.968661421226416
31
0.0
  0
LINE
 8
Group#2
10
17.22799128315246
20
12.435733863875404
30
0.0
11
17.461600839941532
21
12.789825384372111
31
0.0
  0
LINE
 8
Group#2
10
-14.967415957677908
20
12.801920200011326
30
0.0
11
-14.736738624191371
21
12.445911495445834
31
0.0
  0
LINE
 8
Group#2
10
14.404395285101822
20
13.807685868695179
30
0.0
11
14.379129234604017
21
13.384228838285834
31
0.0
  0
LINE
 8
Group#2
10
-13.794498110685364
20
15.098091318668226
30
0.0
11
-14.19807979998867
21
14.967415957677908
31
0.0
  0
LINE
 8
Group#2
10
15.289825384372113
20
12.03839916005847
30
0.0
11
15.692314131304817
21
11.90439528510182
31
0.0
  0
LINE
 8
Group#2
10
17.461600839941532
20
12.789825384372111
30
0.0
11
17.595604714898176
21
13.192314131304823
31
0.0
  0
LINE
 8
Group#2
10
16.307685868695174
20
15.095604714898176
30
0.0
11
15.884228838285829
21
15.12087076539598
31
0.0
  0
LINE
 8
Group#2
10
17.620870765395974
20
13.615771161714168
30
0.0
11
17.535677151847636
21
14.03133857877358
31
0.0
  0
LINE
 8
Group#2
10
-11.901908681331772
20
13.794498110685367
30
0.0
11
-12.032584042322087
21
14.198079799988665
31
0.0
  0
LINE
 8
Group#2
10
15.468661421226418
20
15.035677151847635
30
0.0
11
15.089303850231905
21
14.845829678227357
31
0.0
  0
LINE
 8
Group#2
10
-15.098091318668224
20
13.205501889314634
30
0.0
11
-14.967415957677908
21
12.801920200011326
31
0.0
  0
LINE
 8
Group#2
10
16.710174615627885
20
14.961600839941525
30
0.0
11
16.307685868695174
21
15.095604714898176
31
0.0
  0
LINE
 8
Group#2
10
-12.032584042322087
20
14.198079799988665
30
0.0
11
-12.263261375808627
21
14.55408850455416
31
0.0
  0
LINE
 8
Group#2
10
14.538399160058471
20
14.210174615627883
30
0.0
11
14.404395285101822
21
13.807685868695179
31
0.0
  0
LINE
 8
Group#2
10
16.993481433349903
20
-14.785931429582861
30
0.0
11
17.292452919083306
21
-14.4849824627642
31
0.0
  0
LINE
 8
Group#2
10
17.292452919083306
20
-14.4849824627642
30
0.0
11
17.50334587426062
21
-14.116908568868647
31
0.0
  0
LINE
 8
Group#2
10
17.610390002218544
20
-13.282585555322239
30
0.0
11
17.499246294577613
21
-12.873194170260604
31
0.0
  0
LINE
 8
Group#2
10
16.984982462764204
20
-12.20754708091669
30
0.0
11
16.61690856886865
21
-11.996654125739376
31
0.0
  0
LINE
 8
Group#2
10
16.61690856886865
20
-11.996654125739376
30
0.0
11
16.206793375494303
21
-11.8882117074964
31
0.0
  0
LINE
 8
Group#2
10
15.373194170260602
20
-12.000753705422385
30
0.0
11
15.006518566650097
21
-12.214068570417135
31
0.0
  0
LINE
 8
Group#2
10
14.70754708091669
20
-12.515017537235794
30
0.0
11
14.496654125739376
21
-12.88309143113135
31
0.0
  0
LINE
 8
Group#2
10
14.496654125739376
20
-12.88309143113135
30
0.0
11
14.388211707496396
21
-13.29320662450569
31
0.0
  0
LINE
 8
Group#2
10
14.388211707496396
20
-13.29320662450569
30
0.0
11
14.389609997781449
21
-13.717414444677758
31
0.0
  0
LINE
 8
Group#2
10
17.535677151847636
20
14.03133857877358
30
0.0
11
17.345829678227364
21
14.410696149768091
31
0.0
  0
LINE
 8
Group#2
10
14.389609997781449
20
-13.717414444677758
30
0.0
11
14.500753705422389
21
-14.126805829739391
31
0.0
  0
LINE
 8
Group#2
10
15.782585555322239
20
-11.889609997781449
30
0.0
11
15.373194170260602
21
-12.000753705422385
31
0.0
  0
LINE
 8
Group#2
10
-12.578220402726593
20
14.8382628194979
30
0.0
11
-12.955997185885934
21
15.031236734876737
31
0.0
  0
LINE
 8
Group#2
10
14.714068570417137
20
-14.493481433349897
30
0.0
11
15.015017537235796
21
-14.792452919083303
31
0.0
  0
LINE
 8
Group#2
10
15.015017537235796
20
-14.792452919083303
30
0.0
11
15.383091431131353
21
-15.003345874260619
31
0.0
  0
LINE
 8
Group#2
10
15.383091431131353
20
-15.003345874260619
30
0.0
11
15.793206624505688
21
-15.111788292503599
31
0.0
  0
LINE
 8
Group#2
10
14.500753705422389
20
-14.126805829739391
30
0.0
11
14.714068570417137
21
-14.493481433349897
31
0.0
  0
LINE
 8
Group#2
10
-14.649048519428138
20
-14.649048519428138
30
0.0
11
-14.3125
21
-14.90729128114971
31
0.0
  0
LINE
 8
Group#2
10
-14.649048519428138
20
-12.350951480571858
30
0.0
11
-14.90729128114971
21
-12.687499999999996
31
0.0
  0
LINE
 8
Group#2
10
-13.920580948291594
20
-15.069629467719732
30
0.0
11
-13.499999999999998
21
-15.124999999999998
31
0.0
  0
LINE
 8
Group#2
10
-15.069629467719732
20
-13.920580948291594
30
0.0
11
-14.90729128114971
21
-14.312499999999996
31
0.0
  0
LINE
 8
Group#2
10
-11.874999999999998
20
-13.499999999999998
30
0.0
11
-11.93037053228026
21
-13.079419051708403
31
0.0
  0
LINE
 8
Group#2
10
-14.90729128114971
20
-14.312499999999996
30
0.0
11
-14.649048519428138
21
-14.649048519428138
31
0.0
  0
LINE
 8
Group#2
10
-12.092708718850284
20
-12.687499999999998
30
0.0
11
-12.350951480571858
21
-12.35095148057186
31
0.0
  0
LINE
 8
Group#2
10
-13.920580948291594
20
-11.93037053228026
30
0.0
11
-14.312499999999996
21
-12.092708718850284
31
0.0
  0
LINE
 8
Group#2
10
-15.124999999999998
20
-13.499999999999998
30
0.0
11
-15.069629467719732
21
-13.920580948291594
31
0.0
  0
LINE
 8
Group#2
10
-11.93037053228026
20
-13.079419051708403
30
0.0
11
-12.092708718850284
21
-12.687499999999998
31
0.0
  0
LINE
 8
Group#2
10
-13.499999999999998
20
-15.124999999999998
30
0.0
11
-13.079419051708403
21
-15.069629467719732
31
0.0
  0
LINE
 8
Group#2
10
-15.069629467719732
20
-13.079419051708399
30
0.0
11
-15.124999999999998
21
-13.499999999999998
31
0.0
  0
LINE
 8
Group#2
10
-11.930370532280262
20
-13.920580948291594
30
0.0
11
-11.874999999999998
21
-13.499999999999998
31
0.0
  0
LINE
 8
Group#2
10
-13.079419051708399
20
-11.930370532280262
30
0.0
11
-13.499999999999998
21
-11.874999999999998
31
0.0
  0
LINE
 8
Group#2
10
-12.350951480571858
20
-12.35095148057186
30
0.0
11
-12.687499999999996
21
-12.092708718850284
31
0.0
  0
LINE
 8
Group#2
10
-12.687499999999996
20
-12.092708718850284
30
0.0
11
-13.079419051708399
21
-11.930370532280262
31
0.0
  0
LINE
 8
Group#2
10
-14.90729128114971
20
-12.687499999999996
30
0.0
11
-15.069629467719732
21
-13.079419051708399
31
0.0
  0
LINE
 8
Group#2
10
-14.312499999999996
20
-12.092708718850284
30
0.0
11
-14.649048519428138
21
-12.350951480571858
31
0.0
  0
LINE
 8
Group#2
10
-12.092708718850284
20
-14.3125
30
0.0
11
-11.930370532280262
21
-13.920580948291594
31
0.0
  0
LINE
 8
Group#2
10
-13.079419051708403
20
-15.069629467719732
30
0.0
11
-12.687499999999998
21
-14.90729128114971
31
0.0
  0
LINE
 8
Group#2
10
-12.687499999999998
20
-14.90729128114971
30
0.0
11
-12.350951480571858
21
-14.649048519428138
31
0.0
  0
LINE
 8
Group#2
10
-12.350951480571858
20
-14.649048519428138
30
0.0
11
-12.092708718850284
21
-14.3125
31
0.0
  0
LINE
 8
Group#2
10
-13.499999999999998
20
-11.874999999999998
30
0.0
11
-13.920580948291594
21
-11.93037053228026
31
0.0
  0
LINE
 8
Group#2
10
-14.3125
20
-14.90729128114971
30
0.0
11
-13.920580948291594
21
-15.069629467719732
31
0.0
  0
LINE
 8
Group#2
10
8.720775875990237
20
9.467569096740014
30
0.0
11
7.683600501684414
21
10.30634092689987
31
0.0
  0
LINE
 8
Group#2
10
-7.297353572460578
20
10.29659834952709
30
0.0
11
-8.333437111441008
21
9.456478215028508
31
0.0
  0
LINE
 8
Group#2
10
-12.514032787976696
20
-12.61173513019138
30
0.0
11
-12.514032787976696
21
-12.861735130191379
31
0.0
  0
LINE
 8
Group#2
10
-3.7460305153772877
20
12.10899791859777
30
0.0
11
-4.991015915427399
21
11.630163611349221
31
0.0
  0
LINE
 8
Group#2
10
-8.333437111441008
20
9.456478215028508
30
0.0
11
-9.276028409768344
21
8.51266012638339
31
0.0
  0
LINE
 8
Group#2
10
-10.248949289090445
20
2.9306402550118476
30
0.0
11
-9.949789161117696
21
3.494347849097061
31
0.0
  0
LINE
 8
Group#2
10
-10.818485359348252
20
3.149337053313354
30
0.0
11
-10.248949289090445
21
2.9306402550118476
31
0.0
  0
LINE
 8
Group#2
10
-11.417981579274327
20
3.262491404561449
30
0.0
11
-10.818485359348252
21
3.149337053313354
31
0.0
  0
LINE
 8
Group#2
10
-10.248949289090445
20
2.9306402550118476
30
0.0
11
-9.727791985718435
21
2.613473595266462
31
0.0
  0
LINE
 8
Group#2
10
4.129923130628626
20
12.11411989463487
30
0.0
11
2.8412570401470143
21
12.458518860049935
31
0.0
  0
LINE
 8
Group#2
10
11.83827936095607
20
5.182556602399072
30
0.0
11
11.231931747485989
21
6.370670027866214
31
0.0
  0
LINE
 8
Group#2
10
-12.028050429842585
20
3.2664439326586896
30
0.0
11
-11.417981579274327
21
3.262491404561449
31
0.0
  0
LINE
 8
Group#2
10
-12.514032787976696
20
-12.61173513019138
30
0.0
11
-12.514032787976696
21
-12.36173513019138
31
0.0
  0
LINE
 8
Group#2
10
-10.714999715134361
20
4.147461450891924
30
0.0
11
-11.64507358389161
21
4.514834011999749
31
0.0
  0
LINE
 8
Group#2
10
-12.514032787976696
20
-12.61173513019138
30
0.0
11
-12.264032787976696
21
-12.61173513019138
31
0.0
  0
LINE
 8
Group#2
10
11.231931747485989
20
6.370670027866214
30
0.0
11
10.504714099133938
21
7.488894259432253
31
0.0
  0
LINE
 8
Group#2
10
9.664593964635356
20
8.524977798412683
30
0.0
11
8.720775875990237
21
9.467569096740014
31
0.0
  0
LINE
 8
Group#2
10
-12.543013787976696
20
-12.61173513019138
30
0.0
11
-12.514032787976696
21
-12.61173513019138
31
0.0
  0
LINE
 8
Group#2
10
12.317113668204614
20
3.9375712023489604
30
0.0
11
11.83827936095607
21
5.182556602399072
31
0.0
  0
LINE
 8
Group#2
10
6.564431352161684
20
11.032103529196725
30
0.0
11
5.375530278825416
21
11.636905296684223
31
0.0
  0
LINE
 8
Group#2
10
5.375530278825416
20
11.636905296684223
30
0.0
11
4.129923130628626
21
12.11411989463487
31
0.0
  0
LINE
 8
Group#2
10
2.8412570401470143
20
12.458518860049935
30
0.0
11
1.523650902738612
21
12.666328885794226
31
0.0
  0
LINE
 8
Group#2
10
1.523650902738612
20
12.666328885794226
30
0.0
11
0.610648652665857
21
12.713581942126837
31
0.0
  0
LINE
 8
Group#2
10
-2.457813461317098
20
12.455072710752045
30
0.0
11
-3.7460305153772877
21
12.10899791859777
31
0.0
  0
LINE
 8
Group#2
10
-4.991015915427399
20
11.630163611349221
30
0.0
11
-6.17912934089454
21
11.023815997879138
31
0.0
  0
LINE
 8
Group#2
10
7.683600501684414
20
10.30634092689987
30
0.0
11
6.564431352161684
21
11.032103529196725
31
0.0
  0
POLYLINE
 8
Group#2
 66
     1
70
    8
 10
0.0
 20
 0.0
 30
0.0
  0
VERTEX
  8
MY3DLAYER
10
-11.609082053198694
20
-4.7444570200401035
30
0.0
 70
     32
  0
VERTEX
  8
MY3DLAYER
10
-11.892561696955271
20
-4.008093942199828
30
0.0
 70
     32
  0
VERTEX
  8
MY3DLAYER
10
-11.917457231626097
20
-3.954146264984135
30
0.0
 70
     32
  0
VERTEX
  8
MY3DLAYER
10
-12.028050429842583
20
-3.494886365813191
30
0.0
 70
     32
  0
VERTEX
  8
MY3DLAYER
10
-11.392721833632201
20
-3.48839282143518
30
0.0
 70
     32
  0
VERTEX
  8
MY3DLAYER
10
-10.769746218388521
20
-3.3635490226584657
30
0.0
 70
     32
  0
VERTEX
  8
MY3DLAYER
10
-10.18097467266973
20
-3.124733909583206
30
0.0
 70
     32
  0
VERTEX
  8
MY3DLAYER
10
-9.73701851674416
20
-3.9793339022301866
30
0.0
 70
     32
  0
VERTEX
  8
MY3DLAYER
10
-11.609082053198694
20
-4.7444570200401035
30
0.0
 70
     32
  0
SEQEND
  0
LINE
 8
Group#2
10
10.504714099133938
20
7.488894259432253
30
0.0
11
9.664593964635356
21
8.524977798412683
31
0.0
  0
LINE
 8
Group#2
10
-12.028050429842585
20
3.2664439326586896
30
0.0
11
-12.05718521165559
21
3.258533041227962
31
0.0
  0
LINE
 8
Group#2
10
-12.793013787976696
20
-12.61173513019138
30
0.0
11
-12.543013787976696
21
-12.61173513019138
31
0.0
  0
LINE
 8
Group#2
10
-6.17912934089454
20
11.023815997879138
30
0.0
11
-7.297353572460578
21
10.29659834952709
31
0.0
  0
LINE
 8
Group#2
10
-9.727791985718435
20
2.613473595266462
30
0.0
11
-9.655515076900365
21
2.549209500339708
31
0.0
  0
LINE
 8
Group#2
10
-9.949789161117696
20
3.494347849097061
30
0.0
11
-10.714999715134361
21
4.147461450891924
31
0.0
  0
POLYLINE
 8
Group#2
 66
     1
70
    8
 10
0.0
 20
 0.0
 30
0.0
  0
VERTEX
  8
MY3DLAYER
10
0.610648652665857
20
12.713581942126837
30
0.0
 70
     32
  0
VERTEX
  8
MY3DLAYER
10
0.610648652665857
20
11.442637507624363
30
0.0
 70
     32
  0
VERTEX
  8
MY3DLAYER
10
-0.10342952479770508
20
11.471730799063941
30
0.0
 70
     32
  0
VERTEX
  8
MY3DLAYER
10
-0.9778507390187072
20
11.429413345630739
30
0.0
 70
     32
  0
VERTEX
  8
MY3DLAYER
10
-1.8527809604664185
20
11.319674536632572
30
0.0
 70
     32
  0
VERTEX
  8
MY3DLAYER
10
-2.043839754594273
20
12.520915706474153
30
0.0
 70
     32
  0
VERTEX
  8
MY3DLAYER
10
-1.1404787288678693
20
12.664596319968403
30
0.0
 70
     32
  0
VERTEX
  8
MY3DLAYER
10
0.19154068697167279
20
12.735273161738634
30
0.0
 70
     32
  0
VERTEX
  8
MY3DLAYER
10
0.610648652665857
20
12.713581942126837
30
0.0
 70
     32
  0
SEQEND
  0
LINE
 8
Group#2
10
-12.10253999633093
20
3.258533041227962
30
0.0
11
-12.16564008076466
21
3.0123264111494787
31
0.0
  0
LINE
 8
Group#2
10
-10.84056284222505
20
6.356315602554837
30
0.0
11
-10.936271292616908
21
6.15595735687553
31
0.0
  0
LINE
 8
Group#2
10
-12.463368469374041
20
1.3879412151348502
30
0.0
11
-12.474788198822553
21
1.315535153131765
31
0.0
  0
LINE
 8
Group#2
10
-11.408453099229545
20
-5.229248382709161
30
0.0
11
-10.832275310907468
21
-6.387245090501386
31
0.0
  0
LINE
 8
Group#2
10
-11.519834016650407
20
4.979082746270723
30
0.0
11
-11.593227376874914
21
4.781468834094113
31
0.0
  0
LINE
 8
Group#2
10
-12.10253999633093
20
3.258533041227962
30
0.0
11
-12.05718521165559
21
3.258533041227962
31
0.0
  0
LINE
 8
Group#2
10
-11.44536460971255
20
5.167414529218569
30
0.0
11
-11.519834016650407
21
4.979082746270723
31
0.0
  0
LINE
 8
Group#2
10
-12.325183552922049
20
-2.2783084509022684
30
0.0
11
-12.263532023780376
21
-2.665929210923945
31
0.0
  0
LINE
 8
Group#2
10
-11.593227376874914
20
4.781468834094113
30
0.0
11
-11.688767796002924
21
4.532092914919331
31
0.0
  0
LINE
 8
Group#2
10
-12.549067440522485
20
-0.13692019064053365
30
0.0
11
-12.476939518812163
21
-1.2753963673894457
31
0.0
  0
LINE
 8
Group#2
10
-11.438622924377553
20
-5.199131665034243
30
0.0
11
-11.408453099229545
21
-5.229248382709161
31
0.0
  0
LINE
 8
Group#2
10
-11.64507358389161
20
4.514834011999749
30
0.0
11
-11.688767796002924
21
4.532092914919331
31
0.0
  0
LINE
 8
Group#2
10
-11.977183028517238
20
3.7476562631577175
30
0.0
11
-12.10253999633093
21
3.258533041227962
31
0.0
  0
LINE
 8
Group#2
10
-12.474788198822553
20
1.315535153131765
30
0.0
11
-12.49463439317068
21
1.1755646074899477
31
0.0
  0
LINE
 8
Group#2
10
-9.276028409768344
20
8.51266012638339
30
0.0
11
-10.114800239928199
21
7.475484752077567
31
0.0
  0
LINE
 8
Group#2
10
-12.543732474766966
20
-0.016575062635174186
30
0.0
11
-12.549067440522485
21
-0.13692019064053365
31
0.0
  0
LINE
 8
Group#2
10
-11.948434426007209
20
3.8250627723329207
30
0.0
11
-11.977183028517238
21
3.7476562631577175
31
0.0
  0
LINE
 8
Group#2
10
-11.688767796002924
20
4.532092914919331
30
0.0
11
-11.922579207663196
21
3.9218073810217766
31
0.0
  0
LINE
 8
Group#2
10
-2.043839754594273
20
12.520915706474153
30
0.0
11
-2.457813461317098
21
12.455072710752045
31
0.0
  0
LINE
 8
Group#2
10
-12.46601027893474
20
-1.4479048625099715
30
0.0
11
-12.325183552922049
21
-2.2783084509022684
31
0.0
  0
POLYLINE
 8
Group#2
 66
     1
70
    8
 10
0.0
 20
 0.0
 30
0.0
  0
VERTEX
  8
MY3DLAYER
10
11.270134070902834
20
2.5197060965862925
30
0.0
 70
     32
  0
VERTEX
  8
MY3DLAYER
10
12.60190303115439
20
2.8774809487852644
30
0.0
 70
     32
  0
VERTEX
  8
MY3DLAYER
10
12.663188460358894
20
2.649354148288774
30
0.0
 70
     32
  0
VERTEX
  8
MY3DLAYER
10
12.872712069575254
20
1.3320194158395449
30
0.0
 70
     32
  0
VERTEX
  8
MY3DLAYER
10
12.943388911345483
20
0.0
30
0.0
 70
     32
  0
VERTEX
  8
MY3DLAYER
10
12.874444635401074
20
-1.3321102157669478
30
0.0
 70
     32
  0
VERTEX
  8
MY3DLAYER
10
12.66663460965678
20
-2.649716353175347
30
0.0
 70
     32
  0
VERTEX
  8
MY3DLAYER
10
12.322235644241713
20
-3.9383824436569563
30
0.0
 70
     32
  0
VERTEX
  8
MY3DLAYER
10
11.845021046291066
20
-5.18398959185375
30
0.0
 70
     32
  0
VERTEX
  8
MY3DLAYER
10
11.240219278803568
20
-6.372890665190017
30
0.0
 70
     32
  0
VERTEX
  8
MY3DLAYER
10
10.51445667650672
20
-7.4920598147127455
30
0.0
 70
     32
  0
VERTEX
  8
MY3DLAYER
10
9.675684846346856
20
-8.529235189018571
30
0.0
 70
     32
  0
VERTEX
  8
MY3DLAYER
10
8.733093548019527
20
-9.473053277663688
30
0.0
 70
     32
  0
VERTEX
  8
MY3DLAYER
10
7.697010009039096
20
-10.31317341216227
30
0.0
 70
     32
  0
VERTEX
  8
MY3DLAYER
10
6.578785777473052
20
-11.040391060514319
30
0.0
 70
     32
  0
VERTEX
  8
MY3DLAYER
10
5.390672352005913
20
-11.6467386739844
30
0.0
 70
     32
  0
VERTEX
  8
MY3DLAYER
10
4.145686951955804
20
-12.125572981232946
30
0.0
 70
     32
  0
VERTEX
  8
MY3DLAYER
10
2.857469897895612
20
-12.471647773387225
30
0.0
 70
     32
  0
VERTEX
  8
MY3DLAYER
10
1.5401351654463862
20
-12.681171382603582
30
0.0
 70
     32
  0
VERTEX
  8
MY3DLAYER
10
0.20811574960684415
20
-12.751848224373813
30
0.0
 70
     32
  0
VERTEX
  8
MY3DLAYER
10
-1.123994466160098
20
-12.682903948429402
30
0.0
 70
     32
  0
VERTEX
  8
MY3DLAYER
10
-2.441600603568497
20
-12.475093922685112
30
0.0
 70
     32
  0
VERTEX
  8
MY3DLAYER
10
-3.7302666940501066
20
-12.130694957270043
30
0.0
 70
     32
  0
VERTEX
  8
MY3DLAYER
10
-4.9758738422469015
20
-11.653480359319396
30
0.0
 70
     32
  0
VERTEX
  8
MY3DLAYER
10
-6.164774915583169
20
-11.0486785918319
30
0.0
 70
     32
  0
VERTEX
  8
MY3DLAYER
10
-7.283944065105896
20
-10.322915989535048
30
0.0
 70
     32
  0
VERTEX
  8
MY3DLAYER
10
-8.321119439411719
20
-9.484144159375191
30
0.0
 70
     32
  0
VERTEX
  8
MY3DLAYER
10
-9.264937528056837
20
-8.541552861047856
30
0.0
 70
     32
  0
VERTEX
  8
MY3DLAYER
10
-9.310801928937884
20
-8.451018661821452
30
0.0
 70
     32
  0
VERTEX
  8
MY3DLAYER
10
-8.566329681976473
20
-7.782271781795301
30
0.0
 70
     32
  0
VERTEX
  8
MY3DLAYER
10
-7.952440744142959
20
-8.415269309917266
30
0.0
 70
     32
  0
VERTEX
  8
MY3DLAYER
10
-7.292018577376034
20
-8.999553538906667
30
0.0
 70
     32
  0
VERTEX
  8
MY3DLAYER
10
-6.588917890750639
20
-9.53171415664323
30
0.0
 70
     32
  0
VERTEX
  8
MY3DLAYER
10
-5.847242496545814
20
-10.008645082704843
30
0.0
 70
     32
  0
VERTEX
  8
MY3DLAYER
10
-5.071321357380583
20
-10.427562597735434
30
0.0
 70
     32
  0
VERTEX
  8
MY3DLAYER
10
-4.265683319206968
20
-10.786021591276715
30
0.0
 70
     32
  0
VERTEX
  8
MY3DLAYER
10
-3.43526285713679
20
-11.081847122570364
30
0.0
 70
     32
  0
VERTEX
  8
MY3DLAYER
10
-2.5731369045677988
20
-11.316099993479947
30
0.0
 70
     32
  0
VERTEX
  8
MY3DLAYER
10
-2.375402601853957
20
-11.353699516124308
30
0.0
 70
     32
  0
VERTEX
  8
MY3DLAYER
10
-2.251584960719525
20
-11.385533175195985
30
0.0
 70
     32
  0
VERTEX
  8
MY3DLAYER
10
-1.7025172376903648
20
-11.482188066622243
30
0.0
 70
     32
  0
VERTEX
  8
MY3DLAYER
10
-0.808030851407499
20
-11.581439272263667
30
0.0
 70
     32
  0
VERTEX
  8
MY3DLAYER
10
0.08461762771006254
20
-11.61100145388532
30
0.0
 70
     32
  0
VERTEX
  8
MY3DLAYER
10
0.9768793873415182
20
-11.571451711123677
30
0.0
 70
     32
  0
VERTEX
  8
MY3DLAYER
10
1.863411554442195
20
-11.46302686826516
30
0.0
 70
     32
  0
VERTEX
  8
MY3DLAYER
10
2.738905564829347
20
-11.286376174438768
30
0.0
 70
     32
  0
VERTEX
  8
MY3DLAYER
10
3.598118950921726
20
-11.042557415905286
30
0.0
 70
     32
  0
VERTEX
  8
MY3DLAYER
10
4.435906733692015
20
-10.733030582021756
30
0.0
 70
     32
  0
VERTEX
  8
MY3DLAYER
10
5.2472522308568195
20
-10.359649122809431
30
0.0
 70
     32
  0
VERTEX
  8
MY3DLAYER
10
6.0272970968242445
20
-9.924648850475062
30
0.0
 70
     32
  0
VERTEX
  8
MY3DLAYER
10
6.771370414519797
20
-9.430634551343273
30
0.0
 70
     32
  0
VERTEX
  8
MY3DLAYER
10
7.475016664888136
20
-8.88056438836795
30
0.0
 70
     32
  0
VERTEX
  8
MY3DLAYER
10
8.13402240658935
20
-8.27773218762054
30
0.0
 70
     32
  0
VERTEX
  8
MY3DLAYER
10
8.744441506131091
20
-7.625747714824009
30
0.0
 70
     32
  0
VERTEX
  8
MY3DLAYER
10
9.30261876735856
20
-6.928515060036723
30
0.0
 70
     32
  0
VERTEX
  8
MY3DLAYER
10
9.805211818808486
20
-6.190209259919074
30
0.0
 70
     32
  0
VERTEX
  8
MY3DLAYER
10
10.249211127865545
20
-5.415251297568874
30
0.0
 70
     32
  0
VERTEX
  8
MY3DLAYER
10
10.631958021876102
20
-4.6082816296268945
30
0.0
 70
     32
  0
VERTEX
  8
MY3DLAYER
10
10.95116060830879
20
-3.774132399172418
30
0.0
 70
     32
  0
VERTEX
  8
MY3DLAYER
10
11.204907498631668
20
-2.917798500798311
30
0.0
 70
     32
  0
VERTEX
  8
MY3DLAYER
10
11.391679253727423
20
-2.044407671128358
30
0.0
 70
     32
  0
VERTEX
  8
MY3DLAYER
10
11.509448371462277
20
-1.165970818564665
30
0.0
 70
     32
  0
VERTEX
  8
MY3DLAYER
10
11.560702953961329
20
0.047544926380242256
30
0.0
 70
     32
  0
VERTEX
  8
MY3DLAYER
10
11.482069509511069
20
1.2921039474532956
30
0.0
 70
     32
  0
VERTEX
  8
MY3DLAYER
10
11.270134070902834
20
2.5197060965862925
30
0.0
 70
     32
  0
SEQEND
  0
LINE
 8
Group#2
10
-12.263532023780376
20
-2.665929210923945
30
0.0
11
-12.252455056754876
21
-2.707161736820118
31
0.0
  0
LINE
 8
Group#2
10
-12.303307516736954
20
2.475169673778067
30
0.0
11
-12.463368469374041
21
1.3879412151348502
31
0.0
  0
LINE
 8
Group#2
10
-12.273629639336203
20
2.590968095417186
30
0.0
11
-12.303307516736954
21
2.475169673778067
31
0.0
  0
LINE
 8
Group#2
10
-12.49463439317068
20
1.1755646074899477
30
0.0
11
-12.543732474766966
21
-0.016575062635174186
31
0.0
  0
LINE
 8
Group#2
10
-12.252455056754876
20
-2.707161736820118
30
0.0
11
-12.246372900050625
21
-2.7430259857121793
31
0.0
  0
LINE
 8
Group#2
10
-12.198899230534137
20
-2.906516125657203
30
0.0
11
-12.028050429842583
21
-3.494886365813191
31
0.0
  0
LINE
 8
Group#2
10
-12.476939518812163
20
-1.2753963673894457
30
0.0
11
-12.473055632996735
21
-1.3485944784747135
31
0.0
  0
LINE
 8
Group#2
10
-10.832275310907468
20
-6.387245090501386
30
0.0
11
-10.105057662555419
21
-7.505469322067427
31
0.0
  0
LINE
 8
Group#2
10
-12.473055632996735
20
-1.3485944784747135
30
0.0
11
-12.46601027893474
21
-1.4479048625099715
31
0.0
  0
LINE
 8
Group#2
10
-11.922579207663196
20
3.9218073810217766
30
0.0
11
-11.948434426007209
21
3.8250627723329207
31
0.0
  0
LINE
 8
Group#2
10
-10.114800239928199
20
7.475484752077567
30
0.0
11
-10.232888491739597
21
7.265386010461521
31
0.0
  0
LINE
 8
Group#2
10
-10.105057662555419
20
-7.505469322067427
30
0.0
11
-9.310801928937884
21
-8.451018661821452
31
0.0
  0
LINE
 8
Group#2
10
-12.246372900050625
20
-2.7430259857121793
30
0.0
11
-12.198899230534137
21
-2.906516125657203
31
0.0
  0
LINE
 8
Group#2
10
-12.16564008076466
20
3.0123264111494787
30
0.0
11
-12.266978173078263
21
2.63314129054017
31
0.0
  0
LINE
 8
Group#2
10
12.60190303115439
20
2.8774809487852644
30
0.0
11
12.317113668204614
21
3.9375712023489604
31
0.0
  0
LINE
 8
Group#2
10
-10.936271292616908
20
6.15595735687553
30
0.0
11
-11.44536460971255
21
5.167414529218569
31
0.0
  0
LINE
 8
Group#2
10
-10.232888491739597
20
7.265386010461521
30
0.0
11
-10.84056284222505
21
6.356315602554837
31
0.0
  0
LINE
 8
Group#2
10
-12.266978173078263
20
2.63314129054017
30
0.0
11
-12.273629639336203
21
2.590968095417186
31
0.0
  0
LINE
 8
Group#2
10
-11.609082053198694
20
-4.7444570200401035
30
0.0
11
-11.438622924377553
21
-5.199131665034243
31
0.0
  0
POLYLINE
 8
Group#2
 66
     1
70
    8
 10
0.0
 20
 0.0
 30
0.0
  0
VERTEX
  8
MY3DLAYER
10
-8.236004641013539
20
-6.067991743741247
30
0.0
 70
     32
  0
VERTEX
  8
MY3DLAYER
10
-8.305801105931165
20
-6.250917682060011
30
0.0
 70
     32
  0
VERTEX
  8
MY3DLAYER
10
-8.420564030658925
20
-6.409545915778758
30
0.0
 70
     32
  0
VERTEX
  8
MY3DLAYER
10
-8.572472511531322
20
-6.533066192915101
30
0.0
 70
     32
  0
VERTEX
  8
MY3DLAYER
10
-8.751174236617535
20
-6.61306081070911
30
0.0
 70
     32
  0
VERTEX
  8
MY3DLAYER
10
-8.944490978671503
20
-6.644078268155478
30
0.0
 70
     32
  0
VERTEX
  8
MY3DLAYER
10
-9.139248521193272
20
-6.62400477678801
30
0.0
 70
     32
  0
VERTEX
  8
MY3DLAYER
10
-9.322174459512038
20
-6.554208311870383
30
0.0
 70
     32
  0
VERTEX
  8
MY3DLAYER
10
-9.480802693230782
20
-6.439445387142623
30
0.0
 70
     32
  0
VERTEX
  8
MY3DLAYER
10
-9.604322970367125
20
-6.287536906270228
30
0.0
 70
     32
  0
VERTEX
  8
MY3DLAYER
10
-9.684317588161134
20
-6.108835181184014
30
0.0
 70
     32
  0
VERTEX
  8
MY3DLAYER
10
-9.715335045607501
20
-5.915518439130045
30
0.0
 70
     32
  0
VERTEX
  8
MY3DLAYER
10
-9.695261554240034
20
-5.720760896608276
30
0.0
 70
     32
  0
VERTEX
  8
MY3DLAYER
10
-9.625465089322407
20
-5.537834958289512
30
0.0
 70
     32
  0
VERTEX
  8
MY3DLAYER
10
-9.51070216459465
20
-5.379206724570766
30
0.0
 70
     32
  0
VERTEX
  8
MY3DLAYER
10
-9.358793683722253
20
-5.255686447434424
30
0.0
 70
     32
  0
VERTEX
  8
MY3DLAYER
10
-9.180091958636039
20
-5.175691829640415
30
0.0
 70
     32
  0
VERTEX
  8
MY3DLAYER
10
-8.98677521658207
20
-5.144674372194046
30
0.0
 70
     32
  0
VERTEX
  8
MY3DLAYER
10
-8.792017674060302
20
-5.164747863561516
30
0.0
 70
     32
  0
VERTEX
  8
MY3DLAYER
10
-8.609091735741535
20
-5.234544328479141
30
0.0
 70
     32
  0
VERTEX
  8
MY3DLAYER
10
-8.45046350202279
20
-5.349307253206901
30
0.0
 70
     32
  0
VERTEX
  8
MY3DLAYER
10
-8.365770341743849
20
-5.453465126039839
30
0.0
 70
     32
  0
VERTEX
  8
MY3DLAYER
10
-8.326943224886449
20
-5.501215734079296
30
0.0
 70
     32
  0
VERTEX
  8
MY3DLAYER
10
-8.3095989567387
20
-5.539961473778208
30
0.0
 70
     32
  0
VERTEX
  8
MY3DLAYER
10
-8.24694860709244
20
-5.67991745916551
30
0.0
 70
     32
  0
VERTEX
  8
MY3DLAYER
10
-8.215931149646071
20
-5.873234201219479
30
0.0
 70
     32
  0
VERTEX
  8
MY3DLAYER
10
-8.236004641013539
20
-6.067991743741247
30
0.0
 70
     32
  0
SEQEND
  0
POLYLINE
 8
Group#2
 66
     1
70
    8
 10
0.0
 20
 0.0
 30
0.0
  0
VERTEX
  8
MY3DLAYER
10
5.1385006084136435
20
10.008785180494728
30
0.0
 70
     32
  0
VERTEX
  8
MY3DLAYER
10
5.155781192116655
20
10.203810375922604
30
0.0
 70
     32
  0
VERTEX
  8
MY3DLAYER
10
5.222949189060321
20
10.387717704790635
30
0.0
 70
     32
  0
VERTEX
  8
MY3DLAYER
10
5.335427211253289
20
10.547974186557697
30
0.0
 70
     32
  0
VERTEX
  8
MY3DLAYER
10
5.485550067361833
20
10.673658606827717
30
0.0
 70
     32
  0
VERTEX
  8
MY3DLAYER
10
5.6630871328319055
20
10.756205780062626
30
0.0
 70
     32
  0
VERTEX
  8
MY3DLAYER
10
5.8559395500455915
20
10.789990252822108
30
0.0
 70
     32
  0
VERTEX
  8
MY3DLAYER
10
6.050964745473467
20
10.772709669119099
30
0.0
 70
     32
  0
VERTEX
  8
MY3DLAYER
10
6.234872074341499
20
10.705541672175434
30
0.0
 70
     32
  0
VERTEX
  8
MY3DLAYER
10
6.395128556108559
20
10.593063649982465
30
0.0
 70
     32
  0
VERTEX
  8
MY3DLAYER
10
6.52081297637858
20
10.442940793873918
30
0.0
 70
     32
  0
VERTEX
  8
MY3DLAYER
10
6.603360149613488
20
10.265403728403848
30
0.0
 70
     32
  0
VERTEX
  8
MY3DLAYER
10
6.637144622372975
20
10.072551311190162
30
0.0
 70
     32
  0
VERTEX
  8
MY3DLAYER
10
6.619864038669962
20
9.877526115762286
30
0.0
 70
     32
  0
VERTEX
  8
MY3DLAYER
10
6.552696041726297
20
9.693618786894254
30
0.0
 70
     32
  0
VERTEX
  8
MY3DLAYER
10
6.440218019533329
20
9.533362305127195
30
0.0
 70
     32
  0
VERTEX
  8
MY3DLAYER
10
6.290095163424785
20
9.407677884857174
30
0.0
 70
     32
  0
VERTEX
  8
MY3DLAYER
10
6.112558097954713
20
9.325130711622267
30
0.0
 70
     32
  0
VERTEX
  8
MY3DLAYER
10
5.919705680741026
20
9.291346238862781
30
0.0
 70
     32
  0
VERTEX
  8
MY3DLAYER
10
5.72468048531315
20
9.308626822565792
30
0.0
 70
     32
  0
VERTEX
  8
MY3DLAYER
10
5.540773156445119
20
9.375794819509457
30
0.0
 70
     32
  0
VERTEX
  8
MY3DLAYER
10
5.380516674678059
20
9.488272841702425
30
0.0
 70
     32
  0
VERTEX
  8
MY3DLAYER
10
5.254832254408037
20
9.638395697810969
30
0.0
 70
     32
  0
VERTEX
  8
MY3DLAYER
10
5.17228508117313
20
9.81593276328104
30
0.0
 70
     32
  0
VERTEX
  8
MY3DLAYER
10
5.1385006084136435
20
10.008785180494728
30
0.0
 70
     32
  0
SEQEND
  0
POLYLINE
 8
Group#2
 66
     1
70
    8
 10
0.0
 20
 0.0
 30
0.0
  0
VERTEX
  8
MY3DLAYER
10
-9.271867512358684
20
2.2080941440066972
30
0.0
 70
     32
  0
VERTEX
  8
MY3DLAYER
10
-9.655515076900365
20
2.549209500339708
30
0.0
 70
     32
  0
VERTEX
  8
MY3DLAYER
10
-9.510565162951535
20
3.090169943749476
30
0.0
 70
     32
  0
VERTEX
  8
MY3DLAYER
10
-9.135454576426005
20
4.06736643075801
30
0.0
 70
     32
  0
VERTEX
  8
MY3DLAYER
10
-8.660254037844386
20
5.000000000000005
30
0.0
 70
     32
  0
VERTEX
  8
MY3DLAYER
10
-8.090169943749475
20
5.877852522924732
30
0.0
 70
     32
  0
VERTEX
  8
MY3DLAYER
10
-7.431448254773939
20
6.691306063588586
30
0.0
 70
     32
  0
VERTEX
  8
MY3DLAYER
10
-6.691306063588579
20
7.431448254773944
30
0.0
 70
     32
  0
VERTEX
  8
MY3DLAYER
10
-5.877852522924729
20
8.090169943749475
30
0.0
 70
     32
  0
VERTEX
  8
MY3DLAYER
10
-4.9999999999999964
20
8.660254037844389
30
0.0
 70
     32
  0
VERTEX
  8
MY3DLAYER
10
-4.067366430757999
20
9.135454576426008
30
0.0
 70
     32
  0
VERTEX
  8
MY3DLAYER
10
-3.090169943749473
20
9.510565162951538
30
0.0
 70
     32
  0
VERTEX
  8
MY3DLAYER
10
-2.079116908177591
20
9.781476007338057
30
0.0
 70
     32
  0
VERTEX
  8
MY3DLAYER
10
-1.0452846326765313
20
9.945218953682733
30
0.0
 70
     32
  0
VERTEX
  8
MY3DLAYER
10
0.0
20
10.000000000000002
30
0.0
 70
     32
  0
VERTEX
  8
MY3DLAYER
10
1.0452846326765368
20
9.945218953682733
30
0.0
 70
     32
  0
VERTEX
  8
MY3DLAYER
10
2.0791169081775966
20
9.781476007338057
30
0.0
 70
     32
  0
VERTEX
  8
MY3DLAYER
10
3.090169943749476
20
9.510565162951535
30
0.0
 70
     32
  0
VERTEX
  8
MY3DLAYER
10
4.067366430758005
20
9.135454576426008
30
0.0
 70
     32
  0
VERTEX
  8
MY3DLAYER
10
5.000000000000005
20
8.660254037844384
30
0.0
 70
     32
  0
VERTEX
  8
MY3DLAYER
10
5.877852522924732
20
8.090169943749473
30
0.0
 70
     32
  0
VERTEX
  8
MY3DLAYER
10
6.691306063588583
20
7.431448254773941
30
0.0
 70
     32
  0
VERTEX
  8
MY3DLAYER
10
7.431448254773944
20
6.691306063588581
30
0.0
 70
     32
  0
VERTEX
  8
MY3DLAYER
10
8.090169943749475
20
5.877852522924729
30
0.0
 70
     32
  0
VERTEX
  8
MY3DLAYER
10
8.660254037844389
20
4.999999999999999
30
0.0
 70
     32
  0
VERTEX
  8
MY3DLAYER
10
9.135454576426008
20
4.0673664307580015
30
0.0
 70
     32
  0
VERTEX
  8
MY3DLAYER
10
9.510565162951538
20
3.090169943749473
30
0.0
 70
     32
  0
VERTEX
  8
MY3DLAYER
10
9.781476007338057
20
2.079116908177591
30
0.0
 70
     32
  0
VERTEX
  8
MY3DLAYER
10
9.945218953682733
20
1.0452846326765342
30
0.0
 70
     32
  0
VERTEX
  8
MY3DLAYER
10
10.000000000000002
20
0.0
30
0.0
 70
     32
  0
VERTEX
  8
MY3DLAYER
10
9.945218953682733
20
-1.0452846326765368
30
0.0
 70
     32
  0
VERTEX
  8
MY3DLAYER
10
9.781476007338057
20
-2.079116908177594
30
0.0
 70
     32
  0
VERTEX
  8
MY3DLAYER
10
9.510565162951535
20
-3.0901699437494745
30
0.0
 70
     32
  0
VERTEX
  8
MY3DLAYER
10
9.135454576426008
20
-4.067366430758005
30
0.0
 70
     32
  0
VERTEX
  8
MY3DLAYER
10
8.660254037844386
20
-5.000000000000002
30
0.0
 70
     32
  0
VERTEX
  8
MY3DLAYER
10
8.090169943749475
20
-5.877852522924732
30
0.0
 70
     32
  0
VERTEX
  8
MY3DLAYER
10
7.431448254773941
20
-6.691306063588582
30
0.0
 70
     32
  0
VERTEX
  8
MY3DLAYER
10
6.691306063588581
20
-7.431448254773944
30
0.0
 70
     32
  0
VERTEX
  8
MY3DLAYER
10
5.877852522924732
20
-8.090169943749475
30
0.0
 70
     32
  0
VERTEX
  8
MY3DLAYER
10
4.999999999999999
20
-8.660254037844387
30
0.0
 70
     32
  0
VERTEX
  8
MY3DLAYER
10
4.0673664307580015
20
-9.135454576426008
30
0.0
 70
     32
  0
VERTEX
  8
MY3DLAYER
10
3.090169943749473
20
-9.510565162951535
30
0.0
 70
     32
  0
VERTEX
  8
MY3DLAYER
10
2.079116908177594
20
-9.781476007338057
30
0.0
 70
     32
  0
VERTEX
  8
MY3DLAYER
10
1.0452846326765342
20
-9.945218953682733
30
0.0
 70
     32
  0
VERTEX
  8
MY3DLAYER
10
0.0
20
-10.0
30
0.0
 70
     32
  0
VERTEX
  8
MY3DLAYER
10
-1.0452846326765426
20
-9.945218953682733
30
0.0
 70
     32
  0
VERTEX
  8
MY3DLAYER
10
-2.0791169081775993
20
-9.781476007338057
30
0.0
 70
     32
  0
VERTEX
  8
MY3DLAYER
10
-3.090169943749477
20
-9.510565162951535
30
0.0
 70
     32
  0
VERTEX
  8
MY3DLAYER
10
-4.067366430758009
20
-9.135454576426005
30
0.0
 70
     32
  0
VERTEX
  8
MY3DLAYER
10
-5.000000000000005
20
-8.660254037844384
30
0.0
 70
     32
  0
VERTEX
  8
MY3DLAYER
10
-5.877852522924734
20
-8.090169943749475
30
0.0
 70
     32
  0
VERTEX
  8
MY3DLAYER
10
-6.691306063588588
20
-7.431448254773937
30
0.0
 70
     32
  0
VERTEX
  8
MY3DLAYER
10
-7.4314482547739455
20
-6.691306063588578
30
0.0
 70
     32
  0
VERTEX
  8
MY3DLAYER
10
-8.090169943749475
20
-5.877852522924729
30
0.0
 70
     32
  0
VERTEX
  8
MY3DLAYER
10
-8.24694860709244
20
-5.67991745916551
30
0.0
 70
     32
  0
VERTEX
  8
MY3DLAYER
10
-8.3095989567387
20
-5.539961473778208
30
0.0
 70
     32
  0
VERTEX
  8
MY3DLAYER
10
-8.326943224886449
20
-5.501215734079296
30
0.0
 70
     32
  0
VERTEX
  8
MY3DLAYER
10
-8.365770341743849
20
-5.453465126039839
30
0.0
 70
     32
  0
VERTEX
  8
MY3DLAYER
10
-8.45046350202279
20
-5.349307253206901
30
0.0
 70
     32
  0
VERTEX
  8
MY3DLAYER
10
-8.66025403784439
20
-4.999999999999994
30
0.0
 70
     32
  0
VERTEX
  8
MY3DLAYER
10
-9.13545457642601
20
-4.067366430757998
30
0.0
 70
     32
  0
VERTEX
  8
MY3DLAYER
10
-9.510565162951536
20
-3.090169943749473
30
0.0
 70
     32
  0
VERTEX
  8
MY3DLAYER
10
-9.604449432155448
20
-2.7397890810489973
30
0.0
 70
     32
  0
VERTEX
  8
MY3DLAYER
10
-9.186725191250922
20
-2.3423996108538243
30
0.0
 70
     32
  0
VERTEX
  8
MY3DLAYER
10
-8.81612090539499
20
-1.826321075564421
30
0.0
 70
     32
  0
VERTEX
  8
MY3DLAYER
10
-8.548244783232619
20
-1.2501900362543565
30
0.0
 70
     32
  0
VERTEX
  8
MY3DLAYER
10
-8.392492673854472
20
-0.6342144915242912
30
0.0
 70
     32
  0
VERTEX
  8
MY3DLAYER
10
-8.354327637213249
20
0.0
30
0.0
 70
     32
  0
VERTEX
  8
MY3DLAYER
10
-8.429610224485103
20
0.6054189929013536
30
0.0
 70
     32
  0
VERTEX
  8
MY3DLAYER
10
-8.612108431249258
20
1.1875650479767963
30
0.0
 70
     32
  0
VERTEX
  8
MY3DLAYER
10
-8.895920322950891
20
1.7276117450695307
30
0.0
 70
     32
  0
VERTEX
  8
MY3DLAYER
10
-9.271867512358684
20
2.2080941440066972
30
0.0
 70
     32
  0
SEQEND
  0
POLYLINE
 8
Group#2
 66
     1
70
    8
 10
0.0
 20
 0.0
 30
0.0
  0
VERTEX
  8
MY3DLAYER
10
2.5980762113533147
20
1.5
30
0.0
 70
     32
  0
VERTEX
  8
MY3DLAYER
10
2.1213203435596424
20
2.1213203435596424
30
0.0
 70
     32
  0
VERTEX
  8
MY3DLAYER
10
1.5
20
2.5980762113533147
30
0.0
 70
     32
  0
VERTEX
  8
MY3DLAYER
10
0.7764571353075627
20
2.897777478867205
30
0.0
 70
     32
  0
VERTEX
  8
MY3DLAYER
10
0.0
20
3.0
30
0.0
 70
     32
  0
VERTEX
  8
MY3DLAYER
10
-0.7764571353075627
20
2.897777478867205
30
0.0
 70
     32
  0
VERTEX
  8
MY3DLAYER
10
-1.5
20
2.5980762113533147
30
0.0
 70
     32
  0
VERTEX
  8
MY3DLAYER
10
-2.1213203435596424
20
2.1213203435596424
30
0.0
 70
     32
  0
VERTEX
  8
MY3DLAYER
10
-2.5980762113533147
20
1.5
30
0.0
 70
     32
  0
VERTEX
  8
MY3DLAYER
10
-2.897777478867205
20
0.7764571353075627
30
0.0
 70
     32
  0
VERTEX
  8
MY3DLAYER
10
-3.0
20
0.0
30
0.0
 70
     32
  0
VERTEX
  8
MY3DLAYER
10
-2.897777478867205
20
-0.7764571353075599
30
0.0
 70
     32
  0
VERTEX
  8
MY3DLAYER
10
-2.598076211353316
20
-1.5
30
0.0
 70
     32
  0
VERTEX
  8
MY3DLAYER
10
-2.121320343559645
20
-2.1213203435596424
30
0.0
 70
     32
  0
VERTEX
  8
MY3DLAYER
10
-1.5
20
-2.598076211353316
30
0.0
 70
     32
  0
VERTEX
  8
MY3DLAYER
10
-0.7764571353075654
20
-2.897777478867205
30
0.0
 70
     32
  0
VERTEX
  8
MY3DLAYER
10
0.0
20
-3.0
30
0.0
 70
     32
  0
VERTEX
  8
MY3DLAYER
10
0.7764571353075599
20
-2.897777478867205
30
0.0
 70
     32
  0
VERTEX
  8
MY3DLAYER
10
1.4999999999999973
20
-2.5980762113533173
30
0.0
 70
     32
  0
VERTEX
  8
MY3DLAYER
10
2.1213203435596424
20
-2.1213203435596424
30
0.0
 70
     32
  0
VERTEX
  8
MY3DLAYER
10
2.5980762113533147
20
-1.5
30
0.0
 70
     32
  0
VERTEX
  8
MY3DLAYER
10
2.897777478867205
20
-0.7764571353075654
30
0.0
 70
     32
  0
VERTEX
  8
MY3DLAYER
10
3.0
20
0.0
30
0.0
 70
     32
  0
VERTEX
  8
MY3DLAYER
10
2.897777478867205
20
0.7764571353075627
30
0.0
 70
     32
  0
VERTEX
  8
MY3DLAYER
10
2.5980762113533147
20
1.5
30
0.0
 70
     32
  0
SEQEND
  0
POLYLINE
 8
Group#2
 66
     1
70
    8
 10
0.0
 20
 0.0
 30
0.0
  0
VERTEX
  8
MY3DLAYER
10
-6.47114161863087
20
1.4015181526713976
30
0.0
 70
     32
  0
VERTEX
  8
MY3DLAYER
10
-6.491580078817926
20
1.5962377325034713
30
0.0
 70
     32
  0
VERTEX
  8
MY3DLAYER
10
-6.561719251077087
20
1.7790325407984509
30
0.0
 70
     32
  0
VERTEX
  8
MY3DLAYER
10
-6.676779266729354
20
1.937445413453733
30
0.0
 70
     32
  0
VERTEX
  8
MY3DLAYER
10
-6.8289189758536875
20
2.0606807749875085
30
0.0
 70
     32
  0
VERTEX
  8
MY3DLAYER
10
-7.007770308696026
20
2.1403403391673184
30
0.0
 70
     32
  0
VERTEX
  8
MY3DLAYER
10
-7.201144842488965
20
2.1709954383379637
30
0.0
 70
     32
  0
VERTEX
  8
MY3DLAYER
10
-7.395864422321042
20
2.150556978150906
30
0.0
 70
     32
  0
VERTEX
  8
MY3DLAYER
10
-7.57865923061602
20
2.0804178058917455
30
0.0
 70
     32
  0
VERTEX
  8
MY3DLAYER
10
-7.7370721032713
20
1.965357790239479
30
0.0
 70
     32
  0
VERTEX
  8
MY3DLAYER
10
-7.860307464805079
20
1.8132180811151448
30
0.0
 70
     32
  0
VERTEX
  8
MY3DLAYER
10
-7.9399670289848885
20
1.634366748272805
30
0.0
 70
     32
  0
VERTEX
  8
MY3DLAYER
10
-7.970622128155531
20
1.440992214479869
30
0.0
 70
     32
  0
VERTEX
  8
MY3DLAYER
10
-7.950183667968475
20
1.2462726346477924
30
0.0
 70
     32
  0
VERTEX
  8
MY3DLAYER
10
-7.880044495709314
20
1.0634778263528128
30
0.0
 70
     32
  0
VERTEX
  8
MY3DLAYER
10
-7.764984480057049
20
0.9050649536975308
30
0.0
 70
     32
  0
VERTEX
  8
MY3DLAYER
10
-7.612844770932714
20
0.7818295921637554
30
0.0
 70
     32
  0
VERTEX
  8
MY3DLAYER
10
-7.433993438090376
20
0.7021700279839452
30
0.0
 70
     32
  0
VERTEX
  8
MY3DLAYER
10
-7.2406189042974365
20
0.6715149288132999
30
0.0
 70
     32
  0
VERTEX
  8
MY3DLAYER
10
-7.045899324465362
20
0.6919533890003576
30
0.0
 70
     32
  0
VERTEX
  8
MY3DLAYER
10
-6.863104516170382
20
0.7620925612595183
30
0.0
 70
     32
  0
VERTEX
  8
MY3DLAYER
10
-6.704691643515101
20
0.8771525769117848
30
0.0
 70
     32
  0
VERTEX
  8
MY3DLAYER
10
-6.581456281981323
20
1.0292922860361189
30
0.0
 70
     32
  0
VERTEX
  8
MY3DLAYER
10
-6.501796717801513
20
1.2081436188784587
30
0.0
 70
     32
  0
VERTEX
  8
MY3DLAYER
10
-6.47114161863087
20
1.4015181526713976
30
0.0
 70
     32
  0
SEQEND
  0
POLYLINE
 8
Group#2
 66
     1
70
    8
 10
0.0
 20
 0.0
 30
0.0
  0
VERTEX
  8
MY3DLAYER
10
-6.491580078817926
20
1.5962377325034713
30
0.0
 70
     32
  0
VERTEX
  8
MY3DLAYER
10
-6.47114161863087
20
1.4015181526713976
30
0.0
 70
     32
  0
VERTEX
  8
MY3DLAYER
10
-6.501796717801513
20
1.2081436188784587
30
0.0
 70
     32
  0
VERTEX
  8
MY3DLAYER
10
-6.581456281981323
20
1.0292922860361189
30
0.0
 70
     32
  0
VERTEX
  8
MY3DLAYER
10
-6.704691643515101
20
0.8771525769117848
30
0.0
 70
     32
  0
VERTEX
  8
MY3DLAYER
10
-6.863104516170382
20
0.7620925612595183
30
0.0
 70
     32
  0
VERTEX
  8
MY3DLAYER
10
-7.045899324465362
20
0.6919533890003576
30
0.0
 70
     32
  0
VERTEX
  8
MY3DLAYER
10
-7.2406189042974365
20
0.6715149288132999
30
0.0
 70
     32
  0
VERTEX
  8
MY3DLAYER
10
-7.433993438090376
20
0.7021700279839452
30
0.0
 70
     32
  0
VERTEX
  8
MY3DLAYER
10
-7.612844770932714
20
0.7818295921637554
30
0.0
 70
     32
  0
VERTEX
  8
MY3DLAYER
10
-7.764984480057049
20
0.9050649536975308
30
0.0
 70
     32
  0
VERTEX
  8
MY3DLAYER
10
-7.880044495709314
20
1.0634778263528128
30
0.0
 70
     32
  0
VERTEX
  8
MY3DLAYER
10
-7.950183667968475
20
1.2462726346477924
30
0.0
 70
     32
  0
VERTEX
  8
MY3DLAYER
10
-7.970622128155531
20
1.440992214479869
30
0.0
 70
     32
  0
VERTEX
  8
MY3DLAYER
10
-7.9399670289848885
20
1.634366748272805
30
0.0
 70
     32
  0
VERTEX
  8
MY3DLAYER
10
-7.860307464805079
20
1.8132180811151448
30
0.0
 70
     32
  0
VERTEX
  8
MY3DLAYER
10
-7.7370721032713
20
1.965357790239479
30
0.0
 70
     32
  0
VERTEX
  8
MY3DLAYER
10
-7.57865923061602
20
2.0804178058917455
30
0.0
 70
     32
  0
VERTEX
  8
MY3DLAYER
10
-7.395864422321042
20
2.150556978150906
30
0.0
 70
     32
  0
VERTEX
  8
MY3DLAYER
10
-7.201144842488965
20
2.1709954383379637
30
0.0
 70
     32
  0
VERTEX
  8
MY3DLAYER
10
-7.007770308696026
20
2.1403403391673184
30
0.0
 70
     32
  0
VERTEX
  8
MY3DLAYER
10
-6.8289189758536875
20
2.0606807749875085
30
0.0
 70
     32
  0
VERTEX
  8
MY3DLAYER
10
-6.676779266729354
20
1.937445413453733
30
0.0
 70
     32
  0
VERTEX
  8
MY3DLAYER
10
-6.561719251077087
20
1.7790325407984509
30
0.0
 70
     32
  0
VERTEX
  8
MY3DLAYER
10
-6.491580078817926
20
1.5962377325034713
30
0.0
 70
     32
  0
SEQEND
  0
POLYLINE
 8
Group#2
 66
     1
70
    8
 10
0.0
 20
 0.0
 30
0.0
  0
VERTEX
  8
MY3DLAYER
10
1.3691258371867194
20
11.370023363301103
30
0.0
 70
     32
  0
VERTEX
  8
MY3DLAYER
10
1.3944297961048027
20
11.564170614344922
30
0.0
 70
     32
  0
VERTEX
  8
MY3DLAYER
10
1.469120549655575
20
11.745153311746673
30
0.0
 70
     32
  0
VERTEX
  8
MY3DLAYER
10
1.5881080464168582
20
11.900637783766497
30
0.0
 70
     32
  0
VERTEX
  8
MY3DLAYER
10
1.7432834851205086
20
12.020028020586464
30
0.0
 70
     32
  0
VERTEX
  8
MY3DLAYER
10
1.9240719160584083
20
12.09518777486899
30
0.0
 70
     32
  0
VERTEX
  8
MY3DLAYER
10
2.1181529064291493
20
12.1209950335671
30
0.0
 70
     32
  0
VERTEX
  8
MY3DLAYER
10
2.312300157472963
20
12.095691074649014
30
0.0
 70
     32
  0
VERTEX
  8
MY3DLAYER
10
2.4932828548747206
20
12.021000321098244
30
0.0
 70
     32
  0
VERTEX
  8
MY3DLAYER
10
2.6487673268945375
20
11.90201282433696
30
0.0
 70
     32
  0
VERTEX
  8
MY3DLAYER
10
2.768157563714506
20
11.746837385633308
30
0.0
 70
     32
  0
VERTEX
  8
MY3DLAYER
10
2.8433173179970366
20
11.566048954695411
30
0.0
 70
     32
  0
VERTEX
  8
MY3DLAYER
10
2.869124576695144
20
11.371967964324668
30
0.0
 70
     32
  0
VERTEX
  8
MY3DLAYER
10
2.8438206177770606
20
11.177820713280854
30
0.0
 70
     32
  0
VERTEX
  8
MY3DLAYER
10
2.7691298642262883
20
10.996838015879101
30
0.0
 70
     32
  0
VERTEX
  8
MY3DLAYER
10
2.6501423674650053
20
10.84135354385928
30
0.0
 70
     32
  0
VERTEX
  8
MY3DLAYER
10
2.4949669287613547
20
10.72196330703931
30
0.0
 70
     32
  0
VERTEX
  8
MY3DLAYER
10
2.3141784978234554
20
10.646803552756785
30
0.0
 70
     32
  0
VERTEX
  8
MY3DLAYER
10
2.120097507452714
20
10.620996294058676
30
0.0
 70
     32
  0
VERTEX
  8
MY3DLAYER
10
1.9259502564089004
20
10.646300252976761
30
0.0
 70
     32
  0
VERTEX
  8
MY3DLAYER
10
1.7449675590071427
20
10.72099100652753
30
0.0
 70
     32
  0
VERTEX
  8
MY3DLAYER
10
1.589483086987326
20
10.839978503288814
30
0.0
 70
     32
  0
VERTEX
  8
MY3DLAYER
10
1.4700928501673574
20
10.995153941992466
30
0.0
 70
     32
  0
VERTEX
  8
MY3DLAYER
10
1.3949330958848267
20
11.175942372930365
30
0.0
 70
     32
  0
VERTEX
  8
MY3DLAYER
10
1.3691258371867194
20
11.370023363301103
30
0.0
 70
     32
  0
SEQEND
  0
POLYLINE
 8
Group#2
 66
     1
70
    8
 10
0.0
 20
 0.0
 30
0.0
  0
VERTEX
  8
MY3DLAYER
10
-9.186725191250922
20
-2.3423996108538243
30
0.0
 70
     32
  0
VERTEX
  8
MY3DLAYER
10
-9.604449432155448
20
-2.7397890810489973
30
0.0
 70
     32
  0
VERTEX
  8
MY3DLAYER
10
-9.781476007338059
20
-2.0791169081775855
30
0.0
 70
     32
  0
VERTEX
  8
MY3DLAYER
10
-9.945218953682733
20
-1.0452846326765284
30
0.0
 70
     32
  0
VERTEX
  8
MY3DLAYER
10
-10.0
20
2.8199664825478975e-15
30
0.0
 70
     32
  0
VERTEX
  8
MY3DLAYER
10
-9.945218953682733
20
1.0452846326765426
30
0.0
 70
     32
  0
VERTEX
  8
MY3DLAYER
10
-9.781476007338057
20
2.0791169081775966
30
0.0
 70
     32
  0
VERTEX
  8
MY3DLAYER
10
-9.655515076900365
20
2.549209500339708
30
0.0
 70
     32
  0
VERTEX
  8
MY3DLAYER
10
-9.271867512358684
20
2.2080941440066972
30
0.0
 70
     32
  0
VERTEX
  8
MY3DLAYER
10
-8.895920322950891
20
1.7276117450695307
30
0.0
 70
     32
  0
VERTEX
  8
MY3DLAYER
10
-8.612108431249258
20
1.1875650479767963
30
0.0
 70
     32
  0
VERTEX
  8
MY3DLAYER
10
-8.429610224485103
20
0.6054189929013536
30
0.0
 70
     32
  0
VERTEX
  8
MY3DLAYER
10
-8.354327637213249
20
0.0
30
0.0
 70
     32
  0
VERTEX
  8
MY3DLAYER
10
-8.392492673854472
20
-0.6342144915242912
30
0.0
 70
     32
  0
VERTEX
  8
MY3DLAYER
10
-8.548244783232619
20
-1.2501900362543565
30
0.0
 70
     32
  0
VERTEX
  8
MY3DLAYER
10
-8.81612090539499
20
-1.826321075564421
30
0.0
 70
     32
  0
VERTEX
  8
MY3DLAYER
10
-9.186725191250922
20
-2.3423996108538243
30
0.0
 70
     32
  0
SEQEND
  0
POLYLINE
 8
Group#2
 66
     1
70
    8
 10
0.0
 20
 0.0
 30
0.0
  0
VERTEX
  8
MY3DLAYER
10
2.1213203435596424
20
2.1213203435596424
30
0.0
 70
     32
  0
VERTEX
  8
MY3DLAYER
10
2.5980762113533147
20
1.5
30
0.0
 70
     32
  0
VERTEX
  8
MY3DLAYER
10
2.897777478867205
20
0.7764571353075627
30
0.0
 70
     32
  0
VERTEX
  8
MY3DLAYER
10
3.0
20
0.0
30
0.0
 70
     32
  0
VERTEX
  8
MY3DLAYER
10
2.897777478867205
20
-0.7764571353075654
30
0.0
 70
     32
  0
VERTEX
  8
MY3DLAYER
10
2.5980762113533147
20
-1.5
30
0.0
 70
     32
  0
VERTEX
  8
MY3DLAYER
10
2.1213203435596424
20
-2.1213203435596424
30
0.0
 70
     32
  0
VERTEX
  8
MY3DLAYER
10
1.4999999999999973
20
-2.5980762113533173
30
0.0
 70
     32
  0
VERTEX
  8
MY3DLAYER
10
0.7764571353075599
20
-2.897777478867205
30
0.0
 70
     32
  0
VERTEX
  8
MY3DLAYER
10
0.0
20
-3.0
30
0.0
 70
     32
  0
VERTEX
  8
MY3DLAYER
10
-0.7764571353075654
20
-2.897777478867205
30
0.0
 70
     32
  0
VERTEX
  8
MY3DLAYER
10
-1.5
20
-2.598076211353316
30
0.0
 70
     32
  0
VERTEX
  8
MY3DLAYER
10
-2.121320343559645
20
-2.1213203435596424
30
0.0
 70
     32
  0
VERTEX
  8
MY3DLAYER
10
-2.598076211353316
20
-1.5
30
0.0
 70
     32
  0
VERTEX
  8
MY3DLAYER
10
-2.897777478867205
20
-0.7764571353075599
30
0.0
 70
     32
  0
VERTEX
  8
MY3DLAYER
10
-3.0
20
0.0
30
0.0
 70
     32
  0
VERTEX
  8
MY3DLAYER
10
-2.897777478867205
20
0.7764571353075627
30
0.0
 70
     32
  0
VERTEX
  8
MY3DLAYER
10
-2.5980762113533147
20
1.5
30
0.0
 70
     32
  0
VERTEX
  8
MY3DLAYER
10
-2.1213203435596424
20
2.1213203435596424
30
0.0
 70
     32
  0
VERTEX
  8
MY3DLAYER
10
-1.5
20
2.5980762113533147
30
0.0
 70
     32
  0
VERTEX
  8
MY3DLAYER
10
-0.7764571353075627
20
2.897777478867205
30
0.0
 70
     32
  0
VERTEX
  8
MY3DLAYER
10
0.0
20
3.0
30
0.0
 70
     32
  0
VERTEX
  8
MY3DLAYER
10
0.7764571353075627
20
2.897777478867205
30
0.0
 70
     32
  0
VERTEX
  8
MY3DLAYER
10
1.5
20
2.5980762113533147
30
0.0
 70
     32
  0
VERTEX
  8
MY3DLAYER
10
2.1213203435596424
20
2.1213203435596424
30
0.0
 70
     32
  0
SEQEND
  0
LINE
 8
Group#1
10
15.089303850231905
20
14.845829678227357
30
0.0
11
14.77200871684754
21
14.56426613612459
31
0.0
  0
LINE
 8
Group#1
10
14.379129234604017
20
13.384228838285834
30
0.0
11
14.464322848152362
21
12.968661421226416
31
0.0
  0
LINE
 8
Group#1
10
-12.350951480571858
20
-14.649048519428138
30
0.0
11
-12.092708718850284
21
-14.3125
31
0.0
  0
LINE
 8
Group#1
10
14.500753705422389
20
-14.126805829739391
30
0.0
11
14.714068570417137
21
-14.493481433349897
31
0.0
  0
LINE
 8
Group#1
10
-15.119859397262074
20
13.629153138180003
30
0.0
11
-15.098091318668224
21
13.205501889314634
31
0.0
  0
LINE
 8
Group#1
10
-12.687499999999996
20
-12.092708718850284
30
0.0
11
-13.079419051708399
21
-11.930370532280262
31
0.0
  0
LINE
 8
Group#1
10
16.115771161714164
20
11.87912923460402
30
0.0
11
16.531338578773582
21
11.96432284815236
31
0.0
  0
LINE
 8
Group#1
10
-13.079419051708403
20
-15.069629467719732
30
0.0
11
-12.687499999999998
21
-14.90729128114971
31
0.0
  0
LINE
 8
Group#1
10
17.499246294577613
20
-12.873194170260604
30
0.0
11
17.28593142958286
21
-12.506518566650099
31
0.0
  0
LINE
 8
Group#1
10
-11.93037053228026
20
-13.079419051708403
30
0.0
11
-12.092708718850284
21
-12.687499999999998
31
0.0
  0
LINE
 8
Group#1
10
3.0
20
0.0
30
0.0
11
2.897777478867205
21
0.7764571353075627
31
0.0
  0
LINE
 8
Group#1
10
1.5
20
2.5980762113533147
30
0.0
11
0.7764571353075627
21
2.897777478867205
31
0.0
  0
LINE
 8
Group#1
10
-14.312499999999996
20
-12.092708718850284
30
0.0
11
-14.649048519428138
21
-12.350951480571858
31
0.0
  0
LINE
 8
Group#1
10
-15.031236734876737
20
14.04400281411406
30
0.0
11
-15.119859397262074
21
13.629153138180003
31
0.0
  0
LINE
 8
Group#1
10
-2.1213203435596424
20
2.1213203435596424
30
0.0
11
-2.5980762113533147
21
1.5
31
0.0
  0
LINE
 8
Group#1
10
16.910696149768093
20
12.154170321772632
30
0.0
11
17.22799128315246
21
12.435733863875404
31
0.0
  0
LINE
 8
Group#1
10
0.0
20
-3.0
30
0.0
11
0.7764571353075599
21
-2.897777478867205
31
0.0
  0
LINE
 8
Group#1
10
-0.7764571353075627
20
2.897777478867205
30
0.0
11
-1.5
21
2.5980762113533147
31
0.0
  0
LINE
 8
Group#1
10
-1.5
20
-2.5980762113533147
30
0.0
11
-0.7764571353075654
21
-2.897777478867205
31
0.0
  0
LINE
 8
Group#1
10
-12.092708718850284
20
-14.3125
30
0.0
11
-11.930370532280262
21
-13.920580948291594
31
0.0
  0
LINE
 8
Group#1
10
-12.092708718850284
20
-12.687499999999998
30
0.0
11
-12.350951480571858
21
-12.35095148057186
31
0.0
  0
LINE
 8
Group#1
10
2.1213203435596424
20
2.1213203435596424
30
0.0
11
1.5
21
2.5980762113533147
31
0.0
  0
LINE
 8
Group#1
10
0.7764571353075599
20
-2.897777478867205
30
0.0
11
1.4999999999999973
21
-2.5980762113533173
31
0.0
  0
LINE
 8
Group#1
10
-7.091472350841939
20
1.9042180967201652
30
0.0
11
-7.220881873393201
21
1.921255183575631
31
0.0
  0
LINE
 8
Group#1
10
1.6361622937963984
20
11.50040518636415
30
0.0
11
1.6247268301294215
21
11.413544216184784
31
0.0
  0
LINE
 8
Group#1
10
-7.470881873393201
20
1.8542678854678514
30
0.0
11
-7.515005835760611
21
1.8204103783267687
31
0.0
  0
LINE
 8
Group#1
10
-6.970881873393198
20
1.8542678854678487
30
0.0
11
-7.091472350841939
21
1.9042180967201652
31
0.0
  0
LINE
 8
Group#1
10
-6.787869171500981
20
1.6712551835756315
30
0.0
11
-6.867328482799926
21
1.7748085741689037
31
0.0
  0
LINE
 8
Group#1
10
2.369125206940934
20
11.80400836570511
30
0.0
11
2.248534729492193
21
11.853958576957423
31
0.0
  0
LINE
 8
Group#1
10
2.6020881200854675
20
11.50040518636415
30
0.0
11
2.5521379088331515
21
11.620995663812886
31
0.0
  0
LINE
 8
Group#1
10
-8.715633097626787
20
-6.327389022066981
30
0.0
11
-8.612079707033512
21
-6.2479297107680365
31
0.0
  0
LINE
 8
Group#1
10
-6.737918960248668
20
1.2918456610243705
30
0.0
11
-6.720881873393199
21
1.421255183575632
31
0.0
  0
LINE
 8
Group#1
10
2.369125206940934
20
10.937982961920666
30
0.0
11
2.4726785975342063
21
11.017442273219618
31
0.0
  0
LINE
 8
Group#1
10
-8.48267018448225
20
-6.023785842726023
30
0.0
11
-8.465633097626785
21
-5.894376320174762
31
0.0
  0
LINE
 8
Group#1
10
-7.350291395944459
20
0.9382922704310959
30
0.0
11
-7.220881873393201
21
0.92125518357563
31
0.0
  0
LINE
 8
Group#1
10
5.6378226153933095
20
10.473680947734662
30
0.0
11
5.534269224800035
21
10.39422163643572
31
0.0
  0
LINE
 8
Group#1
10
6.017232137944568
20
10.523631158986975
30
0.0
11
5.887822615393309
21
10.540668245842443
31
0.0
  0
LINE
 8
Group#1
10
-7.182230342650612
20
0.9263437541334693
30
0.0
11
-7.091472350841943
21
0.9382922704310959
31
0.0
  0
LINE
 8
Group#1
10
-7.515005835760611
20
1.8204103783267687
30
0.0
11
-7.574435263986476
21
1.7748085741689037
31
0.0
  0
LINE
 8
Group#1
10
6.241376005986581
20
10.39422163643572
30
0.0
11
6.137822615393309
21
10.473680947734662
31
0.0
  0
LINE
 8
Group#1
10
-9.319186488220062
20
-6.2479297107680365
30
0.0
11
-9.215633097626785
21
-6.327389022066981
31
0.0
  0
LINE
 8
Group#1
10
2.119125206940932
20
10.870995663812888
30
0.0
11
2.248534729492193
21
10.888032750668351
31
0.0
  0
LINE
 8
Group#1
10
5.404859702248776
20
9.911258723291189
30
0.0
11
5.454809913501089
21
9.790668245842445
31
0.0
  0
LINE
 8
Group#1
10
5.637822615393307
20
9.607655543950228
30
0.0
11
5.758413092842048
21
9.557705332697914
31
0.0
  0
LINE
 8
Group#1
10
1.869125206940932
20
11.80400836570511
30
0.0
11
1.76557181634766
21
11.724549054406156
31
0.0
  0
LINE
 8
Group#1
10
5.758413092842048
20
10.523631158986975
30
0.0
11
5.6378226153933095
21
10.473680947734662
31
0.0
  0
LINE
 8
Group#1
10
-9.095042620178045
20
-6.377339233319296
30
0.0
11
-8.965633097626787
21
-6.3943763201747625
31
0.0
  0
LINE
 8
Group#1
10
6.3707855285378425
20
9.911258723291189
30
0.0
11
6.387822615393308
21
10.040668245842445
31
0.0
  0
LINE
 8
Group#1
10
1.869125206940932
20
10.937982961920666
30
0.0
11
1.989715684389673
21
10.888032750668351
31
0.0
  0
LINE
 8
Group#1
10
5.404859702248776
20
10.170077768393707
30
0.0
11
5.387822615393307
21
10.040668245842445
31
0.0
  0
LINE
 8
Group#1
10
-8.965633097626787
20
-6.3943763201747625
30
0.0
11
-8.836223575075525
21
-6.377339233319296
31
0.0
  0
LINE
 8
Group#1
10
-7.350291395944459
20
1.9042180967201652
30
0.0
11
-7.470881873393201
21
1.8542678854678514
31
0.0
  0
LINE
 8
Group#1
10
-6.867328482799926
20
1.7748085741689037
30
0.0
11
-6.970881873393198
21
1.8542678854678487
31
0.0
  0
LINE
 8
Group#1
10
-8.715633097626784
20
-5.461363618282542
30
0.0
11
-8.836223575075525
21
-5.411413407030228
31
0.0
  0
LINE
 8
Group#1
10
-6.737918960248668
20
1.5506647061268906
30
0.0
11
-6.787869171500981
21
1.6712551835756315
31
0.0
  0
LINE
 8
Group#1
10
2.248534729492193
20
10.888032750668351
30
0.0
11
2.369125206940934
21
10.937982961920666
31
0.0
  0
LINE
 8
Group#1
10
2.4726785975342063
20
11.017442273219618
30
0.0
11
2.5521379088331515
21
11.120995663812888
31
0.0
  0
LINE
 8
Group#1
10
-6.867328482799926
20
1.0677017929823573
30
0.0
11
-6.787869171500981
21
1.1712551835756295
31
0.0
  0
LINE
 8
Group#1
10
-7.574435263986476
20
1.0677017929823573
30
0.0
11
-7.470881873393203
21
0.9882424816834094
31
0.0
  0
LINE
 8
Group#1
10
1.6247268301294215
20
11.413544216184784
30
0.0
11
1.6191252069409325
21
11.370995663812888
31
0.0
  0
LINE
 8
Group#1
10
2.5521379088331515
20
11.620995663812886
30
0.0
11
2.4726785975342063
21
11.724549054406156
31
0.0
  0
LINE
 8
Group#1
10
2.6191252069409336
20
11.370995663812888
30
0.0
11
2.6020881200854675
21
11.50040518636415
31
0.0
  0
LINE
 8
Group#1
10
5.387822615393307
20
10.040668245842445
30
0.0
11
5.404859702248776
21
9.911258723291189
31
0.0
  0
LINE
 8
Group#1
10
1.76557181634766
20
11.017442273219618
30
0.0
11
1.869125206940932
21
10.937982961920666
31
0.0
  0
LINE
 8
Group#1
10
6.387822615393308
20
10.040668245842445
30
0.0
11
6.3707855285378425
21
10.1700777683937
31
0.0
  0
LINE
 8
Group#1
10
1.686112505048715
20
11.120995663812888
30
0.0
11
1.76557181634766
21
11.017442273219618
31
0.0
  0
LINE
 8
Group#1
10
-8.612079707033512
20
-5.540822929581488
30
0.0
11
-8.715633097626784
21
-5.461363618282542
31
0.0
  0
LINE
 8
Group#1
10
-8.532620395734565
20
-6.144376320174762
30
0.0
11
-8.48267018448225
21
-6.023785842726023
31
0.0
  0
LINE
 8
Group#1
10
-9.319186488220062
20
-5.540822929581488
30
0.0
11
-9.398645799519004
21
-5.6443763201747625
31
0.0
  0
LINE
 8
Group#1
10
-8.465633097626785
20
-5.894376320174762
30
0.0
11
-8.48267018448225
21
-5.764966797623502
31
0.0
  0
LINE
 8
Group#1
10
2.4726785975342063
20
11.724549054406156
30
0.0
11
2.369125206940934
21
11.80400836570511
31
0.0
  0
LINE
 8
Group#1
10
1.6191252069409325
20
11.370995663812888
30
0.0
11
1.6361622937963984
21
11.241586141261626
31
0.0
  0
LINE
 8
Group#1
10
-7.703844786537734
20
1.2918456610243705
30
0.0
11
-7.65389457528542
21
1.1712551835756295
31
0.0
  0
LINE
 8
Group#1
10
6.320835317285528
20
9.790668245842445
30
0.0
11
6.3707855285378425
21
9.911258723291189
31
0.0
  0
LINE
 8
Group#1
10
-9.215633097626785
20
-6.327389022066981
30
0.0
11
-9.095042620178045
21
-6.377339233319296
31
0.0
  0
LINE
 8
Group#1
10
-7.091472350841943
20
0.9382922704310959
30
0.0
11
-6.970881873393202
21
0.9882424816834094
31
0.0
  0
LINE
 8
Group#1
10
6.017232137944568
20
9.557705332697914
30
0.0
11
6.137822615393309
21
9.607655543950228
31
0.0
  0
LINE
 8
Group#1
10
6.137822615393309
20
9.607655543950228
30
0.0
11
6.241376005986581
21
9.68711485524917
31
0.0
  0
LINE
 8
Group#1
10
-9.095042620178045
20
-5.411413407030228
30
0.0
11
-9.215633097626785
21
-5.461363618282542
31
0.0
  0
LINE
 8
Group#1
10
2.5521379088331515
20
11.120995663812888
30
0.0
11
2.6020881200854675
21
11.241586141261626
31
0.0
  0
LINE
 8
Group#1
10
-7.220881873393201
20
0.92125518357563
30
0.0
11
-7.182230342650612
21
0.9263437541334693
31
0.0
  0
LINE
 8
Group#1
10
-8.836223575075525
20
-5.411413407030228
30
0.0
11
-8.965633097626787
21
-5.394376320174762
31
0.0
  0
LINE
 8
Group#1
10
-6.970881873393202
20
0.9882424816834094
30
0.0
11
-6.867328482799926
21
1.0677017929823573
31
0.0
  0
LINE
 8
Group#1
10
-7.574435263986476
20
1.7748085741689037
30
0.0
11
-7.65389457528542
21
1.6712551835756315
31
0.0
  0
LINE
 8
Group#1
10
-9.398645799519004
20
-5.6443763201747625
30
0.0
11
-9.44859601077132
21
-5.764966797623501
31
0.0
  0
LINE
 8
Group#1
10
-7.220881873393201
20
1.921255183575631
30
0.0
11
-7.350291395944459
21
1.9042180967201652
31
0.0
  0
LINE
 8
Group#1
10
-9.215633097626785
20
-5.461363618282542
30
0.0
11
-9.319186488220062
21
-5.540822929581488
31
0.0
  0
LINE
 8
Group#1
10
1.6361622937963984
20
11.241586141261626
30
0.0
11
1.686112505048715
21
11.120995663812888
31
0.0
  0
LINE
 8
Group#1
10
5.454809913501089
20
9.790668245842445
30
0.0
11
5.534269224800035
21
9.68711485524917
31
0.0
  0
LINE
 8
Group#1
10
1.989715684389673
20
10.888032750668351
30
0.0
11
2.119125206940932
21
10.870995663812888
31
0.0
  0
LINE
 8
Group#1
10
5.534269224800035
20
10.39422163643572
30
0.0
11
5.454809913501089
21
10.290668245842443
31
0.0
  0
LINE
 8
Group#1
10
1.989715684389673
20
11.853958576957423
30
0.0
11
1.869125206940932
21
11.80400836570511
31
0.0
  0
LINE
 8
Group#1
10
6.241376005986581
20
9.68711485524917
30
0.0
11
6.320835317285528
21
9.790668245842445
31
0.0
  0
LINE
 8
Group#1
10
6.137822615393309
20
10.473680947734662
30
0.0
11
6.017232137944568
21
10.523631158986975
31
0.0
  0
LINE
 8
Group#1
10
-8.48267018448225
20
-5.764966797623502
30
0.0
11
-8.532620395734565
21
-5.6443763201747625
31
0.0
  0
LINE
 8
Group#1
10
-8.965633097626787
20
-5.394376320174762
30
0.0
11
-9.095042620178045
21
-5.411413407030228
31
0.0
  0
LINE
 8
Group#1
10
-6.720881873393199
20
1.421255183575632
30
0.0
11
-6.737918960248668
21
1.5506647061268906
31
0.0
  0
LINE
 8
Group#1
10
-7.470881873393203
20
0.9882424816834094
30
0.0
11
-7.350291395944459
21
0.9382922704310959
31
0.0
  0
LINE
 8
Group#1
10
-8.836223575075525
20
-6.377339233319296
30
0.0
11
-8.715633097626787
21
-6.327389022066981
31
0.0
  0
LINE
 8
Group#1
10
5.454809913501089
20
10.290668245842443
30
0.0
11
5.404859702248776
21
10.170077768393707
31
0.0
  0
LINE
 8
Group#1
10
-7.7208818733932025
20
1.421255183575632
30
0.0
11
-7.703844786537734
21
1.2918456610243705
31
0.0
  0
LINE
 8
Group#1
10
2.119125206940932
20
11.870995663812886
30
0.0
11
1.989715684389673
21
11.853958576957423
31
0.0
  0
LINE
 8
Group#1
10
1.686112505048715
20
11.620995663812886
30
0.0
11
1.6361622937963984
21
11.50040518636415
31
0.0
  0
LINE
 8
Group#1
10
5.887822615393309
20
10.540668245842443
30
0.0
11
5.758413092842048
21
10.523631158986975
31
0.0
  0
LINE
 8
Group#1
10
5.534269224800035
20
9.68711485524917
30
0.0
11
5.637822615393307
21
9.607655543950228
31
0.0
  0
LINE
 8
Group#1
10
-9.465633097626785
20
-5.894376320174762
30
0.0
11
-9.44859601077132
21
-6.023785842726023
31
0.0
  0
LINE
 8
Group#1
10
5.758413092842048
20
9.557705332697914
30
0.0
11
5.887822615393309
21
9.540668245842445
31
0.0
  0
LINE
 8
Group#1
10
-7.703844786537734
20
1.5506647061268906
30
0.0
11
-7.7208818733932025
21
1.421255183575632
31
0.0
  0
LINE
 8
Group#1
10
2.6020881200854675
20
11.241586141261626
30
0.0
11
2.6191252069409336
21
11.370995663812888
31
0.0
  0
LINE
 8
Group#1
10
2.248534729492193
20
11.853958576957423
30
0.0
11
2.119125206940932
21
11.870995663812886
31
0.0
  0
LINE
 8
Group#1
10
6.320835317285528
20
10.290668245842443
30
0.0
11
6.241376005986581
21
10.39422163643572
31
0.0
  0
LINE
 8
Group#1
10
-9.44859601077132
20
-6.023785842726023
30
0.0
11
-9.398645799519004
21
-6.144376320174762
31
0.0
  0
LINE
 8
Group#1
10
-6.787869171500981
20
1.1712551835756295
30
0.0
11
-6.737918960248668
21
1.2918456610243705
31
0.0
  0
LINE
 8
Group#1
10
-9.44859601077132
20
-5.764966797623501
30
0.0
11
-9.465633097626785
21
-5.894376320174762
31
0.0
  0
LINE
 8
Group#1
10
-8.532620395734565
20
-5.6443763201747625
30
0.0
11
-8.612079707033512
21
-5.540822929581488
31
0.0
  0
LINE
 8
Group#1
10
6.3707855285378425
20
10.1700777683937
30
0.0
11
6.320835317285528
21
10.290668245842443
31
0.0
  0
LINE
 8
Group#1
10
5.887822615393309
20
9.540668245842445
30
0.0
11
6.017232137944568
21
9.557705332697914
31
0.0
  0
LINE
 8
Group#1
10
-9.398645799519004
20
-6.144376320174762
30
0.0
11
-9.319186488220062
21
-6.2479297107680365
31
0.0
  0
LINE
 8
Group#1
10
-7.65389457528542
20
1.6712551835756315
30
0.0
11
-7.703844786537734
21
1.5506647061268906
31
0.0
  0
LINE
 8
Group#1
10
-7.65389457528542
20
1.1712551835756295
30
0.0
11
-7.574435263986476
21
1.0677017929823573
31
0.0
  0
LINE
 8
Group#1
10
-8.612079707033512
20
-6.2479297107680365
30
0.0
11
-8.532620395734565
21
-6.144376320174762
31
0.0
  0
LINE
 8
Group#1
10
1.76557181634766
20
11.724549054406156
30
0.0
11
1.686112505048715
21
11.620995663812886
31
0.0
  0
LINE
 8
Group#1
10
14.935733863875406
20
12.27200871684754
30
0.0
11
15.289825384372113
21
12.03839916005847
31
0.0
  0
LINE
 8
Group#1
10
15.793206624505688
20
-15.111788292503599
30
0.0
11
16.217414444677758
21
-15.110390002218546
31
0.0
  0
LINE
 8
Group#1
10
15.383091431131353
20
-15.003345874260619
30
0.0
11
15.793206624505688
21
-15.111788292503599
31
0.0
  0
LINE
 8
Group#1
10
-17.5
20
17.5
30
0.0
11
20.0
21
17.5
31
0.0
  0
LINE
 8
Group#1
10
20.0
20
17.5
30
0.0
11
20.0
21
-17.5
31
0.0
  0
LINE
 8
Group#1
10
16.307685868695174
20
15.095604714898176
30
0.0
11
15.884228838285829
21
15.12087076539598
31
0.0
  0
LINE
 8
Group#1
10
14.464322848152362
20
12.968661421226416
30
0.0
11
14.65417032177264
21
12.589303850231904
31
0.0
  0
LINE
 8
Group#1
10
16.217414444677758
20
-15.110390002218546
30
0.0
11
16.62680582973939
21
-14.999246294577611
31
0.0
  0
LINE
 8
Group#1
10
15.373194170260602
20
-12.000753705422385
30
0.0
11
15.006518566650097
21
-12.214068570417135
31
0.0
  0
LINE
 8
Group#1
10
-14.55408850455416
20
14.736738624191366
30
0.0
11
-14.838262819497903
21
14.4217795972734
31
0.0
  0
LINE
 8
Group#1
10
17.461600839941532
20
12.789825384372111
30
0.0
11
17.595604714898176
21
13.192314131304823
31
0.0
  0
LINE
 8
Group#1
10
-11.968763265123258
20
12.955997185885934
30
0.0
11
-11.880140602737923
21
13.370846861819992
31
0.0
  0
LINE
 8
Group#1
10
15.015017537235796
20
-14.792452919083303
30
0.0
11
15.383091431131353
21
-15.003345874260619
31
0.0
  0
LINE
 8
Group#1
10
14.389609997781449
20
-13.717414444677758
30
0.0
11
14.500753705422389
21
-14.126805829739391
31
0.0
  0
LINE
 8
Group#1
10
-15.098091318668224
20
13.205501889314634
30
0.0
11
-14.967415957677908
21
12.801920200011326
31
0.0
  0
LINE
 8
Group#1
10
17.22799128315246
20
12.435733863875404
30
0.0
11
17.461600839941532
21
12.789825384372111
31
0.0
  0
LINE
 8
Group#1
10
-14.736738624191371
20
12.445911495445834
30
0.0
11
-14.421779597273401
21
12.161737180502096
31
0.0
  0
LINE
 8
Group#1
10
-12.801920200011327
20
12.032584042322087
30
0.0
11
-12.445911495445834
21
12.263261375808625
31
0.0
  0
LINE
 8
Group#1
10
-14.90729128114971
20
-12.687499999999996
30
0.0
11
-15.069629467719732
21
-13.079419051708399
31
0.0
  0
LINE
 8
Group#1
10
16.62680582973939
20
-14.999246294577611
30
0.0
11
16.993481433349903
21
-14.785931429582861
31
0.0
  0
LINE
 8
Group#1
10
-12.445911495445834
20
12.263261375808625
30
0.0
11
-12.161737180502094
21
12.578220402726592
31
0.0
  0
LINE
 8
Group#1
10
-14.421779597273401
20
12.161737180502096
30
0.0
11
-14.04400281411406
21
11.968763265123258
31
0.0
  0
LINE
 8
Group#1
10
-15.069629467719732
20
-13.079419051708399
30
0.0
11
-15.124999999999998
21
-13.499999999999998
31
0.0
  0
LINE
 8
Group#1
10
-13.499999999999998
20
-11.874999999999998
30
0.0
11
-13.920580948291594
21
-11.93037053228026
31
0.0
  0
LINE
 8
Group#1
10
14.714068570417137
20
-14.493481433349897
30
0.0
11
15.015017537235796
21
-14.792452919083303
31
0.0
  0
LINE
 8
Group#1
10
16.61690856886865
20
-11.996654125739376
30
0.0
11
16.206793375494303
21
-11.8882117074964
31
0.0
  0
LINE
 8
Group#1
10
15.782585555322239
20
-11.889609997781449
30
0.0
11
15.373194170260602
21
-12.000753705422385
31
0.0
  0
LINE
 8
Group#1
10
-13.794498110685364
20
15.098091318668226
30
0.0
11
-14.19807979998867
21
14.967415957677908
31
0.0
  0
LINE
 8
Group#1
10
-14.838262819497903
20
14.4217795972734
30
0.0
11
-15.031236734876737
21
14.04400281411406
31
0.0
  0
LINE
 8
Group#1
10
16.993481433349903
20
-14.785931429582861
30
0.0
11
17.292452919083306
21
-14.4849824627642
31
0.0
  0
LINE
 8
Group#1
10
14.65417032177264
20
12.589303850231904
30
0.0
11
14.935733863875406
21
12.27200871684754
31
0.0
  0
LINE
 8
Group#1
10
-15.069629467719732
20
-13.920580948291594
30
0.0
11
-14.90729128114971
21
-14.312499999999996
31
0.0
  0
LINE
 8
Group#1
10
14.77200871684754
20
14.56426613612459
30
0.0
11
14.538399160058471
21
14.210174615627883
31
0.0
  0
LINE
 8
Group#1
10
2.5980762113533147
20
1.5
30
0.0
11
2.1213203435596424
21
2.1213203435596424
31
0.0
  0
LINE
 8
Group#1
10
-14.19807979998867
20
14.967415957677908
30
0.0
11
-14.55408850455416
21
14.736738624191366
31
0.0
  0
LINE
 8
Group#1
10
16.984982462764204
20
-12.20754708091669
30
0.0
11
16.61690856886865
21
-11.996654125739376
31
0.0
  0
LINE
 8
Group#1
10
17.50334587426062
20
-14.116908568868647
30
0.0
11
17.611788292503597
21
-13.706793375494305
31
0.0
  0
LINE
 8
Group#1
10
-14.90729128114971
20
-14.312499999999996
30
0.0
11
-14.649048519428138
21
-14.649048519428138
31
0.0
  0
LINE
 8
Group#1
10
15.692314131304817
20
11.90439528510182
30
0.0
11
16.115771161714164
21
11.87912923460402
31
0.0
  0
LINE
 8
Group#1
10
1.4999999999999973
20
-2.5980762113533173
30
0.0
11
2.1213203435596424
21
-2.1213203435596424
31
0.0
  0
LINE
 8
Group#1
10
-11.930370532280262
20
-13.920580948291594
30
0.0
11
-11.874999999999998
21
-13.499999999999998
31
0.0
  0
LINE
 8
Group#1
10
14.404395285101822
20
13.807685868695179
30
0.0
11
14.379129234604017
21
13.384228838285834
31
0.0
  0
LINE
 8
Group#1
10
-2.897777478867205
20
-0.7764571353075599
30
0.0
11
-2.5980762113533147
21
-1.5
31
0.0
  0
LINE
 8
Group#1
10
-11.874999999999998
20
-13.499999999999998
30
0.0
11
-11.93037053228026
21
-13.079419051708403
31
0.0
  0
LINE
 8
Group#1
10
2.1213203435596424
20
-2.1213203435596424
30
0.0
11
2.5980762113533147
21
-1.5
31
0.0
  0
LINE
 8
Group#1
10
17.345829678227364
20
14.410696149768091
30
0.0
11
17.064266136124598
21
14.727991283152457
31
0.0
  0
LINE
 8
Group#1
10
2.897777478867205
20
-0.7764571353075654
30
0.0
11
3.0
21
0.0
31
0.0
  0
LINE
 8
Group#1
10
2.897777478867205
20
0.7764571353075627
30
0.0
11
2.5980762113533147
21
1.5
31
0.0
  0
LINE
 8
Group#1
10
16.531338578773582
20
11.96432284815236
30
0.0
11
16.910696149768093
21
12.154170321772632
31
0.0
  0
LINE
 8
Group#1
10
17.595604714898176
20
13.192314131304823
30
0.0
11
17.620870765395974
21
13.615771161714168
31
0.0
  0
LINE
 8
Group#1
10
-14.649048519428138
20
-12.350951480571858
30
0.0
11
-14.90729128114971
21
-12.687499999999996
31
0.0
  0
LINE
 8
Group#1
10
14.538399160058471
20
14.210174615627883
30
0.0
11
14.404395285101822
21
13.807685868695179
31
0.0
  0
LINE
 8
Group#1
10
-2.5980762113533147
20
1.5
30
0.0
11
-2.897777478867205
21
0.7764571353075627
31
0.0
  0
LINE
 8
Group#1
10
17.611788292503597
20
-13.706793375494305
30
0.0
11
17.610390002218544
21
-13.282585555322239
31
0.0
  0
LINE
 8
Group#1
10
15.884228838285829
20
15.12087076539598
30
0.0
11
15.468661421226418
21
15.035677151847635
31
0.0
  0
LINE
 8
Group#1
10
-15.124999999999998
20
-13.499999999999998
30
0.0
11
-15.069629467719732
21
-13.920580948291594
31
0.0
  0
LINE
 8
Group#1
10
17.292452919083306
20
-14.4849824627642
30
0.0
11
17.50334587426062
21
-14.116908568868647
31
0.0
  0
LINE
 8
Group#1
10
17.620870765395974
20
13.615771161714168
30
0.0
11
17.535677151847636
21
14.03133857877358
31
0.0
  0
LINE
 8
Group#1
10
-2.121320343559645
20
-2.1213203435596424
30
0.0
11
-1.5
21
-2.5980762113533147
31
0.0
  0
LINE
 8
Group#1
10
17.28593142958286
20
-12.506518566650099
30
0.0
11
16.984982462764204
21
-12.20754708091669
31
0.0
  0
LINE
 8
Group#1
10
-3.0
20
0.0
30
0.0
11
-2.897777478867205
21
-0.7764571353075599
31
0.0
  0
LINE
 8
Group#1
10
15.468661421226418
20
15.035677151847635
30
0.0
11
15.089303850231905
21
14.845829678227357
31
0.0
  0
LINE
 8
Group#1
10
14.496654125739376
20
-12.88309143113135
30
0.0
11
14.388211707496396
21
-13.29320662450569
31
0.0
  0
LINE
 8
Group#1
10
17.610390002218544
20
-13.282585555322239
30
0.0
11
17.499246294577613
21
-12.873194170260604
31
0.0
  0
LINE
 8
Group#1
10
-13.920580948291594
20
-11.93037053228026
30
0.0
11
-14.312499999999996
21
-12.092708718850284
31
0.0
  0
LINE
 8
Group#1
10
-2.897777478867205
20
0.7764571353075627
30
0.0
11
-3.0
21
0.0
31
0.0
  0
LINE
 8
Group#1
10
-14.967415957677908
20
12.801920200011326
30
0.0
11
-14.736738624191371
21
12.445911495445834
31
0.0
  0
LINE
 8
Group#1
10
-2.5980762113533147
20
-1.5
30
0.0
11
-2.121320343559645
21
-2.1213203435596424
31
0.0
  0
LINE
 8
Group#1
10
-14.3125
20
-14.90729128114971
30
0.0
11
-13.920580948291594
21
-15.069629467719732
31
0.0
  0
LINE
 8
Group#1
10
0.7764571353075627
20
2.897777478867205
30
0.0
11
0.0
21
3.0
31
0.0
  0
LINE
 8
Group#1
10
15.289825384372113
20
12.03839916005847
30
0.0
11
15.692314131304817
21
11.90439528510182
31
0.0
  0
LINE
 8
Group#1
10
-0.7764571353075654
20
-2.897777478867205
30
0.0
11
0.0
21
-3.0
31
0.0
  0
LINE
 8
Group#1
10
-1.5
20
2.5980762113533147
30
0.0
11
-2.1213203435596424
21
2.1213203435596424
31
0.0
  0
LINE
 8
Group#1
10
16.206793375494303
20
-11.8882117074964
30
0.0
11
15.782585555322239
21
-11.889609997781449
31
0.0
  0
LINE
 8
Group#1
10
0.0
20
3.0
30
0.0
11
-0.7764571353075627
21
2.897777478867205
31
0.0
  0
LINE
 8
Group#1
10
-12.350951480571858
20
-12.35095148057186
30
0.0
11
-12.687499999999996
21
-12.092708718850284
31
0.0
  0
LINE
 8
Group#1
10
-14.649048519428138
20
-14.649048519428138
30
0.0
11
-14.3125
21
-14.90729128114971
31
0.0
  0
LINE
 8
Group#1
10
-12.687499999999998
20
-14.90729128114971
30
0.0
11
-12.350951480571858
21
-14.649048519428138
31
0.0
  0
LINE
 8
Group#1
10
-13.499999999999998
20
-15.124999999999998
30
0.0
11
-13.079419051708403
21
-15.069629467719732
31
0.0
  0
LINE
 8
Group#1
10
-13.079419051708399
20
-11.930370532280262
30
0.0
11
-13.499999999999998
21
-11.874999999999998
31
0.0
  0
LINE
 8
Group#1
10
15.006518566650097
20
-12.214068570417135
30
0.0
11
14.70754708091669
21
-12.515017537235794
31
0.0
  0
LINE
 8
Group#1
10
2.5980762113533147
20
-1.5
30
0.0
11
2.897777478867205
21
-0.7764571353075654
31
0.0
  0
LINE
 8
Group#1
10
-13.920580948291594
20
-15.069629467719732
30
0.0
11
-13.499999999999998
21
-15.124999999999998
31
0.0
  0
LINE
 8
Group#1
10
-12.161737180502094
20
12.578220402726592
30
0.0
11
-11.968763265123258
21
12.955997185885934
31
0.0
  0
LINE
 8
Group#1
10
16.710174615627885
20
14.961600839941525
30
0.0
11
16.307685868695174
21
15.095604714898176
31
0.0
  0
LINE
 8
Group#1
10
-12.263261375808627
20
14.55408850455416
30
0.0
11
-12.578220402726593
21
14.8382628194979
31
0.0
  0
LINE
 8
Group#1
10
-11.880140602737923
20
13.370846861819992
30
0.0
11
-11.901908681331772
21
13.794498110685367
31
0.0
  0
LINE
 8
Group#1
10
-13.629153138180003
20
11.88014060273792
30
0.0
11
-13.20550188931463
21
11.901908681331776
31
0.0
  0
LINE
 8
Group#1
10
17.064266136124598
20
14.727991283152457
30
0.0
11
16.710174615627885
21
14.961600839941525
31
0.0
  0
LINE
 8
Group#1
10
-12.032584042322087
20
14.198079799988665
30
0.0
11
-12.263261375808627
21
14.55408850455416
31
0.0
  0
LINE
 8
Group#1
10
-12.955997185885934
20
15.031236734876737
30
0.0
11
-13.370846861819992
21
15.119859397262074
31
0.0
  0
LINE
 8
Group#1
10
-13.20550188931463
20
11.901908681331776
30
0.0
11
-12.801920200011327
21
12.032584042322087
31
0.0
  0
LINE
 8
Group#1
10
-17.5
20
-17.5
30
0.0
11
-17.5
21
17.5
31
0.0
  0
LINE
 8
Group#1
10
-12.578220402726593
20
14.8382628194979
30
0.0
11
-12.955997185885934
21
15.031236734876737
31
0.0
  0
LINE
 8
Group#1
10
20.0
20
-17.5
30
0.0
11
-17.5
21
-17.5
31
0.0
  0
LINE
 8
Group#1
10
-14.04400281411406
20
11.968763265123258
30
0.0
11
-13.629153138180003
21
11.88014060273792
31
0.0
  0
LINE
 8
Group#1
10
-13.370846861819992
20
15.119859397262074
30
0.0
11
-13.794498110685364
21
15.098091318668226
31
0.0
  0
LINE
 8
Group#1
10
-11.901908681331772
20
13.794498110685367
30
0.0
11
-12.032584042322087
21
14.198079799988665
31
0.0
  0
LINE
 8
Group#1
10
17.535677151847636
20
14.03133857877358
30
0.0
11
17.345829678227364
21
14.410696149768091
31
0.0
  0
LINE
 8
Group#1
10
14.388211707496396
20
-13.29320662450569
30
0.0
11
14.389609997781449
21
-13.717414444677758
31
0.0
  0
LINE
 8
Group#1
10
14.70754708091669
20
-12.515017537235794
30
0.0
11
14.496654125739376
21
-12.88309143113135
31
0.0
  0
POLYLINE
 8
Top layer
 66
     1
70
    8
 10
0.0
 20
 0.0
 30
0.0
  0
VERTEX
  8
MY3DLAYER
10
-17.5
20
17.5
30
0.0
 70
     32
  0
VERTEX
  8
MY3DLAYER
10
20.0
20
17.5
30
0.0
 70
     32
  0
VERTEX
  8
MY3DLAYER
10
19.999999999999996
20
-17.5
30
0.0
 70
     32
  0
VERTEX
  8
MY3DLAYER
10
-17.5
20
-17.5
30
0.0
 70
     32
  0
VERTEX
  8
MY3DLAYER
10
-17.5
20
17.5
30
0.0
 70
     32
  0
SEQEND
  0
POLYLINE
 8
Top layer
 66
     1
70
    8
 10
0.0
 20
 0.0
 30
0.0
  0
VERTEX
  8
MY3DLAYER
10
-8.854327637213249
20
0.0
30
0.0
 70
     32
  0
VERTEX
  8
MY3DLAYER
10
-8.784582205442737
20
-1.2197080858287843
30
0.0
 70
     32
  0
VERTEX
  8
MY3DLAYER
10
-8.576255148496218
20
-2.423515411455678
30
0.0
 70
     32
  0
VERTEX
  8
MY3DLAYER
10
-8.232062328156164
20
-3.5957285074051013
30
0.0
 70
     32
  0
VERTEX
  8
MY3DLAYER
10
-7.756490824210785
20
-4.721065783302467
30
0.0
 70
     32
  0
VERTEX
  8
MY3DLAYER
10
-7.155740438506888
20
-5.784856746774892
30
0.0
 70
     32
  0
VERTEX
  8
MY3DLAYER
10
-6.437642871051432
20
-6.773233255754912
30
0.0
 70
     32
  0
VERTEX
  8
MY3DLAYER
10
-5.61155962182489
20
-7.6733103109209075
30
0.0
 70
     32
  0
VERTEX
  8
MY3DLAYER
10
-4.688259949312439
20
-8.473354031368341
30
0.0
 70
     32
  0
VERTEX
  8
MY3DLAYER
10
-3.6797804767501434
20
-9.162934623692
30
0.0
 70
     32
  0
VERTEX
  8
MY3DLAYER
10
-2.5992682763334356
20
-9.733062350293343
30
0.0
 70
     32
  0
VERTEX
  8
MY3DLAYER
10
-1.460809477025189
20
-10.17630472435814
30
0.0
 70
     32
  0
VERTEX
  8
MY3DLAYER
10
-0.27924563032272853
20
-10.486883403688607
30
0.0
 70
     32
  0
VERTEX
  8
MY3DLAYER
10
0.9300197720631621
20
-10.660749520230794
30
0.0
 70
     32
  0
VERTEX
  8
MY3DLAYER
10
2.151222106279297
20
-10.695636463261621
30
0.0
 70
     32
  0
VERTEX
  8
MY3DLAYER
10
3.368441132310897
20
-10.591089428125978
30
0.0
 70
     32
  0
VERTEX
  8
MY3DLAYER
10
4.565808538657056
20
-10.348471345310939
30
0.0
 70
     32
  0
VERTEX
  8
MY3DLAYER
10
5.727714810038604
20
-9.970945112562537
30
0.0
 70
     32
  0
VERTEX
  8
MY3DLAYER
10
6.839012721301456
20
-9.463432361676611
30
0.0
 70
     32
  0
VERTEX
  8
MY3DLAYER
10
7.8852148046611745
20
-8.83254929750168
30
0.0
 70
     32
  0
VERTEX
  8
MY3DLAYER
10
8.852682216001297
20
-8.086520445590562
30
0.0
 70
     32
  0
VERTEX
  8
MY3DLAYER
10
9.728802538064276
20
-7.235071432932008
30
0.0
 70
     32
  0
VERTEX
  8
MY3DLAYER
10
10.502154202598684
20
-6.2893021995294625
30
0.0
 70
     32
  0
VERTEX
  8
MY3DLAYER
10
11.162655387968359
20
-5.261542293707962
30
0.0
 70
     32
  0
VERTEX
  8
MY3DLAYER
10
11.70169545111564
20
-4.165190137596089
30
0.0
 70
     32
  0
VERTEX
  8
MY3DLAYER
10
12.112247180461866
20
-3.014538358203301
30
0.0
 70
     32
  0
VERTEX
  8
MY3DLAYER
10
12.38895840635706
20
-1.824587461169076
30
0.0
 70
     32
  0
VERTEX
  8
MY3DLAYER
10
12.528221774796396
20
-0.6108502762316219
30
0.0
 70
     32
  0
VERTEX
  8
MY3DLAYER
10
12.528221774796396
20
0.6108502762316146
30
0.0
 70
     32
  0
VERTEX
  8
MY3DLAYER
10
12.388958406357062
20
1.824587461169069
30
0.0
 70
     32
  0
VERTEX
  8
MY3DLAYER
10
12.11224718046187
20
3.0145383582032936
30
0.0
 70
     32
  0
VERTEX
  8
MY3DLAYER
10
11.701695451115645
20
4.165190137596083
30
0.0
 70
     32
  0
VERTEX
  8
MY3DLAYER
10
11.162655387968364
20
5.261542293707955
30
0.0
 70
     32
  0
VERTEX
  8
MY3DLAYER
10
10.502154202598684
20
6.28930219952946
30
0.0
 70
     32
  0
VERTEX
  8
MY3DLAYER
10
9.728802538064281
20
7.235071432932004
30
0.0
 70
     32
  0
VERTEX
  8
MY3DLAYER
10
8.852682216001298
20
8.08652044559056
30
0.0
 70
     32
  0
VERTEX
  8
MY3DLAYER
10
7.885214804661177
20
8.832549297501679
30
0.0
 70
     32
  0
VERTEX
  8
MY3DLAYER
10
6.839012721301457
20
9.46343236167661
30
0.0
 70
     32
  0
VERTEX
  8
MY3DLAYER
10
5.727714810038611
20
9.970945112562536
30
0.0
 70
     32
  0
VERTEX
  8
MY3DLAYER
10
4.565808538657065
20
10.348471345310937
30
0.0
 70
     32
  0
VERTEX
  8
MY3DLAYER
10
3.3684411323109
20
10.591089428125976
30
0.0
 70
     32
  0
VERTEX
  8
MY3DLAYER
10
2.151222106279302
20
10.695636463261621
30
0.0
 70
     32
  0
VERTEX
  8
MY3DLAYER
10
0.9300197720631695
20
10.660749520230796
30
0.0
 70
     32
  0
VERTEX
  8
MY3DLAYER
10
-0.27924563032271904
20
10.486883403688608
30
0.0
 70
     32
  0
VERTEX
  8
MY3DLAYER
10
-1.460809477025186
20
10.176304724358141
30
0.0
 70
     32
  0
VERTEX
  8
MY3DLAYER
10
-2.599268276333431
20
9.733062350293347
30
0.0
 70
     32
  0
VERTEX
  8
MY3DLAYER
10
-3.6797804767501363
20
9.162934623692003
30
0.0
 70
     32
  0
VERTEX
  8
MY3DLAYER
10
-4.688259949312431
20
8.473354031368348
30
0.0
 70
     32
  0
VERTEX
  8
MY3DLAYER
10
-5.611559621824887
20
7.673310310920908
30
0.0
 70
     32
  0
VERTEX
  8
MY3DLAYER
10
-6.437642871051428
20
6.773233255754916
30
0.0
 70
     32
  0
VERTEX
  8
MY3DLAYER
10
-7.155740438506883
20
5.784856746774899
30
0.0
 70
     32
  0
VERTEX
  8
MY3DLAYER
10
-7.7564908242107835
20
4.7210657833024685
30
0.0
 70
     32
  0
VERTEX
  8
MY3DLAYER
10
-8.232062328156161
20
3.5957285074051053
30
0.0
 70
     32
  0
VERTEX
  8
MY3DLAYER
10
-8.576255148496216
20
2.4235154114556847
30
0.0
 70
     32
  0
VERTEX
  8
MY3DLAYER
10
-8.784582205442735
20
1.2197080858287939
30
0.0
 70
     32
  0
VERTEX
  8
MY3DLAYER
10
-8.854327637213249
20
0.0
30
0.0
 70
     32
  0
SEQEND
  0
POLYLINE
 8
Top layer
 66
     1
70
    8
 10
0.0
 20
 0.0
 30
0.0
  0
VERTEX
  8
MY3DLAYER
10
-8.784582205442737
20
-1.2197080858287843
30
0.0
 70
     32
  0
VERTEX
  8
MY3DLAYER
10
-8.854327637213249
20
0.0
30
0.0
 70
     32
  0
VERTEX
  8
MY3DLAYER
10
-8.784582205442735
20
1.2197080858287939
30
0.0
 70
     32
  0
VERTEX
  8
MY3DLAYER
10
-8.576255148496216
20
2.4235154114556847
30
0.0
 70
     32
  0
VERTEX
  8
MY3DLAYER
10
-8.232062328156161
20
3.5957285074051053
30
0.0
 70
     32
  0
VERTEX
  8
MY3DLAYER
10
-7.7564908242107835
20
4.7210657833024685
30
0.0
 70
     32
  0
VERTEX
  8
MY3DLAYER
10
-7.155740438506883
20
5.784856746774899
30
0.0
 70
     32
  0
VERTEX
  8
MY3DLAYER
10
-6.437642871051428
20
6.773233255754916
30
0.0
 70
     32
  0
VERTEX
  8
MY3DLAYER
10
-5.611559621824887
20
7.673310310920908
30
0.0
 70
     32
  0
VERTEX
  8
MY3DLAYER
10
-4.688259949312431
20
8.473354031368348
30
0.0
 70
     32
  0
VERTEX
  8
MY3DLAYER
10
-3.6797804767501363
20
9.162934623692003
30
0.0
 70
     32
  0
VERTEX
  8
MY3DLAYER
10
-2.599268276333431
20
9.733062350293347
30
0.0
 70
     32
  0
VERTEX
  8
MY3DLAYER
10
-1.460809477025186
20
10.176304724358141
30
0.0
 70
     32
  0
VERTEX
  8
MY3DLAYER
10
-0.27924563032271904
20
10.486883403688608
30
0.0
 70
     32
  0
VERTEX
  8
MY3DLAYER
10
0.9300197720631695
20
10.660749520230796
30
0.0
 70
     32
  0
VERTEX
  8
MY3DLAYER
10
2.151222106279302
20
10.695636463261621
30
0.0
 70
     32
  0
VERTEX
  8
MY3DLAYER
10
3.3684411323109
20
10.591089428125976
30
0.0
 70
     32
  0
VERTEX
  8
MY3DLAYER
10
4.565808538657065
20
10.348471345310937
30
0.0
 70
     32
  0
VERTEX
  8
MY3DLAYER
10
5.727714810038611
20
9.970945112562536
30
0.0
 70
     32
  0
VERTEX
  8
MY3DLAYER
10
6.839012721301457
20
9.46343236167661
30
0.0
 70
     32
  0
VERTEX
  8
MY3DLAYER
10
7.885214804661177
20
8.832549297501679
30
0.0
 70
     32
  0
VERTEX
  8
MY3DLAYER
10
8.852682216001298
20
8.08652044559056
30
0.0
 70
     32
  0
VERTEX
  8
MY3DLAYER
10
9.728802538064281
20
7.235071432932004
30
0.0
 70
     32
  0
VERTEX
  8
MY3DLAYER
10
10.502154202598684
20
6.28930219952946
30
0.0
 70
     32
  0
VERTEX
  8
MY3DLAYER
10
11.162655387968364
20
5.261542293707955
30
0.0
 70
     32
  0
VERTEX
  8
MY3DLAYER
10
11.701695451115645
20
4.165190137596083
30
0.0
 70
     32
  0
VERTEX
  8
MY3DLAYER
10
12.11224718046187
20
3.0145383582032936
30
0.0
 70
     32
  0
VERTEX
  8
MY3DLAYER
10
12.388958406357062
20
1.824587461169069
30
0.0
 70
     32
  0
VERTEX
  8
MY3DLAYER
10
12.528221774796396
20
0.6108502762316146
30
0.0
 70
     32
  0
VERTEX
  8
MY3DLAYER
10
12.528221774796396
20
-0.6108502762316219
30
0.0
 70
     32
  0
VERTEX
  8
MY3DLAYER
10
12.38895840635706
20
-1.824587461169076
30
0.0
 70
     32
  0
VERTEX
  8
MY3DLAYER
10
12.112247180461866
20
-3.014538358203301
30
0.0
 70
     32
  0
VERTEX
  8
MY3DLAYER
10
11.70169545111564
20
-4.165190137596089
30
0.0
 70
     32
  0
VERTEX
  8
MY3DLAYER
10
11.162655387968359
20
-5.261542293707962
30
0.0
 70
     32
  0
VERTEX
  8
MY3DLAYER
10
10.502154202598684
20
-6.2893021995294625
30
0.0
 70
     32
  0
VERTEX
  8
MY3DLAYER
10
9.728802538064276
20
-7.235071432932008
30
0.0
 70
     32
  0
VERTEX
  8
MY3DLAYER
10
8.852682216001297
20
-8.086520445590562
30
0.0
 70
     32
  0
VERTEX
  8
MY3DLAYER
10
7.8852148046611745
20
-8.83254929750168
30
0.0
 70
     32
  0
VERTEX
  8
MY3DLAYER
10
6.839012721301456
20
-9.463432361676611
30
0.0
 70
     32
  0
VERTEX
  8
MY3DLAYER
10
5.727714810038604
20
-9.970945112562537
30
0.0
 70
     32
  0
VERTEX
  8
MY3DLAYER
10
4.565808538657056
20
-10.348471345310939
30
0.0
 70
     32
  0
VERTEX
  8
MY3DLAYER
10
3.368441132310897
20
-10.591089428125978
30
0.0
 70
     32
  0
VERTEX
  8
MY3DLAYER
10
2.151222106279297
20
-10.695636463261621
30
0.0
 70
     32
  0
VERTEX
  8
MY3DLAYER
10
0.9300197720631621
20
-10.660749520230794
30
0.0
 70
     32
  0
VERTEX
  8
MY3DLAYER
10
-0.27924563032272853
20
-10.486883403688607
30
0.0
 70
     32
  0
VERTEX
  8
MY3DLAYER
10
-1.460809477025189
20
-10.17630472435814
30
0.0
 70
     32
  0
VERTEX
  8
MY3DLAYER
10
-2.5992682763334356
20
-9.733062350293343
30
0.0
 70
     32
  0
VERTEX
  8
MY3DLAYER
10
-3.6797804767501434
20
-9.162934623692
30
0.0
 70
     32
  0
VERTEX
  8
MY3DLAYER
10
-4.688259949312439
20
-8.473354031368341
30
0.0
 70
     32
  0
VERTEX
  8
MY3DLAYER
10
-5.61155962182489
20
-7.6733103109209075
30
0.0
 70
     32
  0
VERTEX
  8
MY3DLAYER
10
-6.437642871051432
20
-6.773233255754912
30
0.0
 70
     32
  0
VERTEX
  8
MY3DLAYER
10
-7.155740438506888
20
-5.784856746774892
30
0.0
 70
     32
  0
VERTEX
  8
MY3DLAYER
10
-7.756490824210785
20
-4.721065783302467
30
0.0
 70
     32
  0
VERTEX
  8
MY3DLAYER
10
-8.232062328156164
20
-3.5957285074051013
30
0.0
 70
     32
  0
VERTEX
  8
MY3DLAYER
10
-8.576255148496218
20
-2.423515411455678
30
0.0
 70
     32
  0
VERTEX
  8
MY3DLAYER
10
-8.784582205442737
20
-1.2197080858287843
30
0.0
 70
     32
  0
SEQEND
  0
LINE
 8
Top layer
10
-8.854327637213249
20
0.0
30
0.0
11
-8.854327637213249
21
1.648467800743745
31
0.0
  0
LINE
 8
Top layer
10
-8.854327637213249
20
0.0
30
0.0
11
-8.854327637213249
21
-1.8795251936695918
31
0.0
 0
ENDSEC
 0
EOF
