 0
SECTION
 2
ENTITIES
  0
POLYLINE
 8
Top layer
 66
     1
70
    8
 10
0.0
 20
 0.0
 30
0.0
  0
VERTEX
  8
MY3DLAYER
10
-17.5
20
17.5
30
0.0
 70
     32
  0
VERTEX
  8
MY3DLAYER
10
20.0
20
17.5
30
0.0
 70
     32
  0
VERTEX
  8
MY3DLAYER
10
19.999999999999996
20
-17.5
30
0.0
 70
     32
  0
VERTEX
  8
MY3DLAYER
10
-17.5
20
-17.5
30
0.0
 70
     32
  0
VERTEX
  8
MY3DLAYER
10
-17.5
20
17.5
30
0.0
 70
     32
  0
SEQEND
  0
POLYLINE
 8
Top layer
 66
     1
70
    8
 10
0.0
 20
 0.0
 30
0.0
  0
VERTEX
  8
MY3DLAYER
10
-14.421779597273401
20
12.161737180502094
30
0.0
 70
     32
  0
VERTEX
  8
MY3DLAYER
10
-14.04400281411406
20
11.968763265123258
30
0.0
 70
     32
  0
VERTEX
  8
MY3DLAYER
10
-13.629153138180003
20
11.880140602737923
30
0.0
 70
     32
  0
VERTEX
  8
MY3DLAYER
10
-13.20550188931463
20
11.901908681331772
30
0.0
 70
     32
  0
VERTEX
  8
MY3DLAYER
10
-12.801920200011327
20
12.032584042322089
30
0.0
 70
     32
  0
VERTEX
  8
MY3DLAYER
10
-12.445911495445834
20
12.263261375808627
30
0.0
 70
     32
  0
VERTEX
  8
MY3DLAYER
10
-12.161737180502094
20
12.578220402726593
30
0.0
 70
     32
  0
VERTEX
  8
MY3DLAYER
10
-11.968763265123258
20
12.955997185885934
30
0.0
 70
     32
  0
VERTEX
  8
MY3DLAYER
10
-11.880140602737923
20
13.370846861819992
30
0.0
 70
     32
  0
VERTEX
  8
MY3DLAYER
10
-11.901908681331772
20
13.794498110685364
30
0.0
 70
     32
  0
VERTEX
  8
MY3DLAYER
10
-12.032584042322087
20
14.198079799988667
30
0.0
 70
     32
  0
VERTEX
  8
MY3DLAYER
10
-12.263261375808627
20
14.55408850455416
30
0.0
 70
     32
  0
VERTEX
  8
MY3DLAYER
10
-12.578220402726593
20
14.838262819497903
30
0.0
 70
     32
  0
VERTEX
  8
MY3DLAYER
10
-12.955997185885934
20
15.031236734876737
30
0.0
 70
     32
  0
VERTEX
  8
MY3DLAYER
10
-13.370846861819992
20
15.119859397262074
30
0.0
 70
     32
  0
VERTEX
  8
MY3DLAYER
10
-13.794498110685364
20
15.098091318668224
30
0.0
 70
     32
  0
VERTEX
  8
MY3DLAYER
10
-14.19807979998867
20
14.967415957677908
30
0.0
 70
     32
  0
VERTEX
  8
MY3DLAYER
10
-14.55408850455416
20
14.736738624191368
30
0.0
 70
     32
  0
VERTEX
  8
MY3DLAYER
10
-14.838262819497903
20
14.421779597273401
30
0.0
 70
     32
  0
VERTEX
  8
MY3DLAYER
10
-15.031236734876737
20
14.04400281411406
30
0.0
 70
     32
  0
VERTEX
  8
MY3DLAYER
10
-15.119859397262074
20
13.629153138180003
30
0.0
 70
     32
  0
VERTEX
  8
MY3DLAYER
10
-15.098091318668224
20
13.20550188931463
30
0.0
 70
     32
  0
VERTEX
  8
MY3DLAYER
10
-14.967415957677908
20
12.801920200011326
30
0.0
 70
     32
  0
VERTEX
  8
MY3DLAYER
10
-14.736738624191371
20
12.445911495445834
30
0.0
 70
     32
  0
VERTEX
  8
MY3DLAYER
10
-14.421779597273401
20
12.161737180502094
30
0.0
 70
     32
  0
SEQEND
  0
POLYLINE
 8
Top layer
 66
     1
70
    8
 10
0.0
 20
 0.0
 30
0.0
  0
VERTEX
  8
MY3DLAYER
10
14.404395285101822
20
13.807685868695176
30
0.0
 70
     32
  0
VERTEX
  8
MY3DLAYER
10
14.379129234604019
20
13.38422883828583
30
0.0
 70
     32
  0
VERTEX
  8
MY3DLAYER
10
14.464322848152362
20
12.968661421226416
30
0.0
 70
     32
  0
VERTEX
  8
MY3DLAYER
10
14.654170321772636
20
12.589303850231904
30
0.0
 70
     32
  0
VERTEX
  8
MY3DLAYER
10
14.935733863875402
20
12.27200871684754
30
0.0
 70
     32
  0
VERTEX
  8
MY3DLAYER
10
15.289825384372113
20
12.038399160058468
30
0.0
 70
     32
  0
VERTEX
  8
MY3DLAYER
10
15.692314131304821
20
11.90439528510182
30
0.0
 70
     32
  0
VERTEX
  8
MY3DLAYER
10
16.115771161714168
20
11.879129234604019
30
0.0
 70
     32
  0
VERTEX
  8
MY3DLAYER
10
16.531338578773582
20
11.96432284815236
30
0.0
 70
     32
  0
VERTEX
  8
MY3DLAYER
10
16.910696149768093
20
12.154170321772636
30
0.0
 70
     32
  0
VERTEX
  8
MY3DLAYER
10
17.22799128315246
20
12.435733863875404
30
0.0
 70
     32
  0
VERTEX
  8
MY3DLAYER
10
17.46160083994153
20
12.789825384372115
30
0.0
 70
     32
  0
VERTEX
  8
MY3DLAYER
10
17.595604714898176
20
13.19231413130482
30
0.0
 70
     32
  0
VERTEX
  8
MY3DLAYER
10
17.620870765395978
20
13.615771161714166
30
0.0
 70
     32
  0
VERTEX
  8
MY3DLAYER
10
17.535677151847636
20
14.03133857877358
30
0.0
 70
     32
  0
VERTEX
  8
MY3DLAYER
10
17.34582967822736
20
14.410696149768095
30
0.0
 70
     32
  0
VERTEX
  8
MY3DLAYER
10
17.064266136124594
20
14.727991283152457
30
0.0
 70
     32
  0
VERTEX
  8
MY3DLAYER
10
16.710174615627885
20
14.961600839941529
30
0.0
 70
     32
  0
VERTEX
  8
MY3DLAYER
10
16.307685868695177
20
15.095604714898176
30
0.0
 70
     32
  0
VERTEX
  8
MY3DLAYER
10
15.884228838285832
20
15.120870765395978
30
0.0
 70
     32
  0
VERTEX
  8
MY3DLAYER
10
15.468661421226418
20
15.035677151847635
30
0.0
 70
     32
  0
VERTEX
  8
MY3DLAYER
10
15.089303850231905
20
14.84582967822736
30
0.0
 70
     32
  0
VERTEX
  8
MY3DLAYER
10
14.77200871684754
20
14.564266136124594
30
0.0
 70
     32
  0
VERTEX
  8
MY3DLAYER
10
14.538399160058471
20
14.210174615627883
30
0.0
 70
     32
  0
VERTEX
  8
MY3DLAYER
10
14.404395285101822
20
13.807685868695176
30
0.0
 70
     32
  0
SEQEND
  0
POLYLINE
 8
Top layer
 66
     1
70
    8
 10
0.0
 20
 0.0
 30
0.0
  0
VERTEX
  8
MY3DLAYER
10
16.626805829739393
20
-14.999246294577611
30
0.0
 70
     32
  0
VERTEX
  8
MY3DLAYER
10
16.9934814333499
20
-14.785931429582861
30
0.0
 70
     32
  0
VERTEX
  8
MY3DLAYER
10
17.292452919083306
20
-14.4849824627642
30
0.0
 70
     32
  0
VERTEX
  8
MY3DLAYER
10
17.50334587426062
20
-14.116908568868647
30
0.0
 70
     32
  0
VERTEX
  8
MY3DLAYER
10
17.6117882925036
20
-13.706793375494305
30
0.0
 70
     32
  0
VERTEX
  8
MY3DLAYER
10
17.610390002218548
20
-13.282585555322239
30
0.0
 70
     32
  0
VERTEX
  8
MY3DLAYER
10
17.499246294577613
20
-12.873194170260604
30
0.0
 70
     32
  0
VERTEX
  8
MY3DLAYER
10
17.285931429582863
20
-12.506518566650099
30
0.0
 70
     32
  0
VERTEX
  8
MY3DLAYER
10
16.984982462764204
20
-12.20754708091669
30
0.0
 70
     32
  0
VERTEX
  8
MY3DLAYER
10
16.61690856886865
20
-11.996654125739376
30
0.0
 70
     32
  0
VERTEX
  8
MY3DLAYER
10
16.206793375494307
20
-11.8882117074964
30
0.0
 70
     32
  0
VERTEX
  8
MY3DLAYER
10
15.782585555322239
20
-11.889609997781449
30
0.0
 70
     32
  0
VERTEX
  8
MY3DLAYER
10
15.373194170260602
20
-12.000753705422385
30
0.0
 70
     32
  0
VERTEX
  8
MY3DLAYER
10
15.006518566650097
20
-12.214068570417135
30
0.0
 70
     32
  0
VERTEX
  8
MY3DLAYER
10
14.70754708091669
20
-12.515017537235794
30
0.0
 70
     32
  0
VERTEX
  8
MY3DLAYER
10
14.496654125739376
20
-12.88309143113135
30
0.0
 70
     32
  0
VERTEX
  8
MY3DLAYER
10
14.3882117074964
20
-13.29320662450569
30
0.0
 70
     32
  0
VERTEX
  8
MY3DLAYER
10
14.38960999778145
20
-13.717414444677758
30
0.0
 70
     32
  0
VERTEX
  8
MY3DLAYER
10
14.500753705422385
20
-14.126805829739391
30
0.0
 70
     32
  0
VERTEX
  8
MY3DLAYER
10
14.714068570417137
20
-14.493481433349897
30
0.0
 70
     32
  0
VERTEX
  8
MY3DLAYER
10
15.015017537235796
20
-14.792452919083303
30
0.0
 70
     32
  0
VERTEX
  8
MY3DLAYER
10
15.38309143113135
20
-15.003345874260619
30
0.0
 70
     32
  0
VERTEX
  8
MY3DLAYER
10
15.793206624505691
20
-15.111788292503599
30
0.0
 70
     32
  0
VERTEX
  8
MY3DLAYER
10
16.217414444677758
20
-15.110390002218546
30
0.0
 70
     32
  0
VERTEX
  8
MY3DLAYER
10
16.626805829739393
20
-14.999246294577611
30
0.0
 70
     32
  0
SEQEND
  0
POLYLINE
 8
Top layer
 66
     1
70
    8
 10
0.0
 20
 0.0
 30
0.0
  0
VERTEX
  8
MY3DLAYER
10
-13.499999999999998
20
-11.874999999999998
30
0.0
 70
     32
  0
VERTEX
  8
MY3DLAYER
10
-13.920580948291594
20
-11.93037053228026
30
0.0
 70
     32
  0
VERTEX
  8
MY3DLAYER
10
-14.312499999999996
20
-12.092708718850284
30
0.0
 70
     32
  0
VERTEX
  8
MY3DLAYER
10
-14.649048519428138
20
-12.350951480571858
30
0.0
 70
     32
  0
VERTEX
  8
MY3DLAYER
10
-14.90729128114971
20
-12.687499999999996
30
0.0
 70
     32
  0
VERTEX
  8
MY3DLAYER
10
-15.069629467719732
20
-13.079419051708399
30
0.0
 70
     32
  0
VERTEX
  8
MY3DLAYER
10
-15.124999999999998
20
-13.499999999999998
30
0.0
 70
     32
  0
VERTEX
  8
MY3DLAYER
10
-15.069629467719732
20
-13.920580948291594
30
0.0
 70
     32
  0
VERTEX
  8
MY3DLAYER
10
-14.90729128114971
20
-14.312499999999996
30
0.0
 70
     32
  0
VERTEX
  8
MY3DLAYER
10
-14.649048519428138
20
-14.649048519428138
30
0.0
 70
     32
  0
VERTEX
  8
MY3DLAYER
10
-14.3125
20
-14.90729128114971
30
0.0
 70
     32
  0
VERTEX
  8
MY3DLAYER
10
-13.920580948291594
20
-15.069629467719732
30
0.0
 70
     32
  0
VERTEX
  8
MY3DLAYER
10
-13.499999999999998
20
-15.124999999999998
30
0.0
 70
     32
  0
VERTEX
  8
MY3DLAYER
10
-13.079419051708403
20
-15.069629467719732
30
0.0
 70
     32
  0
VERTEX
  8
MY3DLAYER
10
-12.687499999999998
20
-14.90729128114971
30
0.0
 70
     32
  0
VERTEX
  8
MY3DLAYER
10
-12.350951480571858
20
-14.649048519428138
30
0.0
 70
     32
  0
VERTEX
  8
MY3DLAYER
10
-12.092708718850284
20
-14.3125
30
0.0
 70
     32
  0
VERTEX
  8
MY3DLAYER
10
-11.930370532280262
20
-13.920580948291594
30
0.0
 70
     32
  0
VERTEX
  8
MY3DLAYER
10
-11.874999999999998
20
-13.499999999999998
30
0.0
 70
     32
  0
VERTEX
  8
MY3DLAYER
10
-11.93037053228026
20
-13.079419051708403
30
0.0
 70
     32
  0
VERTEX
  8
MY3DLAYER
10
-12.092708718850284
20
-12.687499999999998
30
0.0
 70
     32
  0
VERTEX
  8
MY3DLAYER
10
-12.350951480571858
20
-12.35095148057186
30
0.0
 70
     32
  0
VERTEX
  8
MY3DLAYER
10
-12.687499999999996
20
-12.092708718850284
30
0.0
 70
     32
  0
VERTEX
  8
MY3DLAYER
10
-13.079419051708399
20
-11.930370532280262
30
0.0
 70
     32
  0
VERTEX
  8
MY3DLAYER
10
-13.499999999999998
20
-11.874999999999998
30
0.0
 70
     32
  0
SEQEND
  0
POLYLINE
 8
Top layer
 66
     1
70
    8
 10
0.0
 20
 0.0
 30
0.0
  0
VERTEX
  8
MY3DLAYER
10
12.60190303115439
20
2.8774809487852653
30
0.0
 70
     32
  0
VERTEX
  8
MY3DLAYER
10
11.27013407090283
20
2.5197060965862925
30
0.0
 70
     32
  0
VERTEX
  8
MY3DLAYER
10
11.48206950951107
20
1.2921039474532956
30
0.0
 70
     32
  0
VERTEX
  8
MY3DLAYER
10
11.560702953961329
20
0.047544926380242256
30
0.0
 70
     32
  0
VERTEX
  8
MY3DLAYER
10
11.509448371462273
20
-1.1659708185646633
30
0.0
 70
     32
  0
VERTEX
  8
MY3DLAYER
10
11.391679253727421
20
-2.0444076711283565
30
0.0
 70
     32
  0
VERTEX
  8
MY3DLAYER
10
11.204907498631664
20
-2.917798500798311
30
0.0
 70
     32
  0
VERTEX
  8
MY3DLAYER
10
10.95116060830879
20
-3.774132399172418
30
0.0
 70
     32
  0
VERTEX
  8
MY3DLAYER
10
10.631958021876105
20
-4.6082816296268945
30
0.0
 70
     32
  0
VERTEX
  8
MY3DLAYER
10
10.249211127865545
20
-5.415251297568874
30
0.0
 70
     32
  0
VERTEX
  8
MY3DLAYER
10
9.805211818808486
20
-6.190209259919074
30
0.0
 70
     32
  0
VERTEX
  8
MY3DLAYER
10
9.30261876735856
20
-6.928515060036723
30
0.0
 70
     32
  0
VERTEX
  8
MY3DLAYER
10
8.744441506131091
20
-7.625747714824009
30
0.0
 70
     32
  0
VERTEX
  8
MY3DLAYER
10
8.13402240658935
20
-8.27773218762054
30
0.0
 70
     32
  0
VERTEX
  8
MY3DLAYER
10
7.475016664888136
20
-8.88056438836795
30
0.0
 70
     32
  0
VERTEX
  8
MY3DLAYER
10
6.771370414519797
20
-9.430634551343273
30
0.0
 70
     32
  0
VERTEX
  8
MY3DLAYER
10
6.0272970968242445
20
-9.924648850475062
30
0.0
 70
     32
  0
VERTEX
  8
MY3DLAYER
10
5.2472522308568195
20
-10.359649122809431
30
0.0
 70
     32
  0
VERTEX
  8
MY3DLAYER
10
4.435906733692015
20
-10.733030582021756
30
0.0
 70
     32
  0
VERTEX
  8
MY3DLAYER
10
3.598118950921726
20
-11.042557415905286
30
0.0
 70
     32
  0
VERTEX
  8
MY3DLAYER
10
2.738905564829347
20
-11.286376174438768
30
0.0
 70
     32
  0
VERTEX
  8
MY3DLAYER
10
1.863411554442195
20
-11.46302686826516
30
0.0
 70
     32
  0
VERTEX
  8
MY3DLAYER
10
0.9768793873415182
20
-11.571451711123677
30
0.0
 70
     32
  0
VERTEX
  8
MY3DLAYER
10
0.08461762771006254
20
-11.61100145388532
30
0.0
 70
     32
  0
VERTEX
  8
MY3DLAYER
10
-0.808030851407499
20
-11.581439272263667
30
0.0
 70
     32
  0
VERTEX
  8
MY3DLAYER
10
-1.7025172376903648
20
-11.482188066622243
30
0.0
 70
     32
  0
VERTEX
  8
MY3DLAYER
10
-2.251584960719525
20
-11.385533175195985
30
0.0
 70
     32
  0
VERTEX
  8
MY3DLAYER
10
-2.375402601853957
20
-11.353699516124308
30
0.0
 70
     32
  0
VERTEX
  8
MY3DLAYER
10
-2.5731369045677988
20
-11.316099993479947
30
0.0
 70
     32
  0
VERTEX
  8
MY3DLAYER
10
-3.43526285713679
20
-11.081847122570364
30
0.0
 70
     32
  0
VERTEX
  8
MY3DLAYER
10
-4.265683319206968
20
-10.786021591276715
30
0.0
 70
     32
  0
VERTEX
  8
MY3DLAYER
10
-5.071321357380583
20
-10.427562597735434
30
0.0
 70
     32
  0
VERTEX
  8
MY3DLAYER
10
-5.847242496545814
20
-10.008645082704843
30
0.0
 70
     32
  0
VERTEX
  8
MY3DLAYER
10
-6.588917890750639
20
-9.53171415664323
30
0.0
 70
     32
  0
VERTEX
  8
MY3DLAYER
10
-7.292018577376034
20
-8.999553538906667
30
0.0
 70
     32
  0
VERTEX
  8
MY3DLAYER
10
-7.952440744142959
20
-8.415269309917266
30
0.0
 70
     32
  0
VERTEX
  8
MY3DLAYER
10
-8.566329681976473
20
-7.782271781795301
30
0.0
 70
     32
  0
VERTEX
  8
MY3DLAYER
10
-9.310801928937884
20
-8.451018661821452
30
0.0
 70
     32
  0
VERTEX
  8
MY3DLAYER
10
-9.264937528056837
20
-8.541552861047856
30
0.0
 70
     32
  0
VERTEX
  8
MY3DLAYER
10
-8.321119439411719
20
-9.484144159375191
30
0.0
 70
     32
  0
VERTEX
  8
MY3DLAYER
10
-7.283944065105896
20
-10.322915989535048
30
0.0
 70
     32
  0
VERTEX
  8
MY3DLAYER
10
-6.164774915583169
20
-11.0486785918319
30
0.0
 70
     32
  0
VERTEX
  8
MY3DLAYER
10
-4.975873842246902
20
-11.653480359319396
30
0.0
 70
     32
  0
VERTEX
  8
MY3DLAYER
10
-3.7302666940501066
20
-12.130694957270043
30
0.0
 70
     32
  0
VERTEX
  8
MY3DLAYER
10
-2.441600603568498
20
-12.475093922685112
30
0.0
 70
     32
  0
VERTEX
  8
MY3DLAYER
10
-1.1239944661600987
20
-12.682903948429402
30
0.0
 70
     32
  0
VERTEX
  8
MY3DLAYER
10
0.20811574960684526
20
-12.751848224373813
30
0.0
 70
     32
  0
VERTEX
  8
MY3DLAYER
10
1.5401351654463853
20
-12.681171382603582
30
0.0
 70
     32
  0
VERTEX
  8
MY3DLAYER
10
2.8574698978956117
20
-12.471647773387225
30
0.0
 70
     32
  0
VERTEX
  8
MY3DLAYER
10
4.145686951955806
20
-12.125572981232946
30
0.0
 70
     32
  0
VERTEX
  8
MY3DLAYER
10
5.3906723520059145
20
-11.6467386739844
30
0.0
 70
     32
  0
VERTEX
  8
MY3DLAYER
10
6.578785777473054
20
-11.040391060514319
30
0.0
 70
     32
  0
VERTEX
  8
MY3DLAYER
10
7.697010009039096
20
-10.31317341216227
30
0.0
 70
     32
  0
VERTEX
  8
MY3DLAYER
10
8.733093548019527
20
-9.473053277663688
30
0.0
 70
     32
  0
VERTEX
  8
MY3DLAYER
10
9.675684846346858
20
-8.529235189018571
30
0.0
 70
     32
  0
VERTEX
  8
MY3DLAYER
10
10.514456676506718
20
-7.4920598147127455
30
0.0
 70
     32
  0
VERTEX
  8
MY3DLAYER
10
11.24021927880357
20
-6.372890665190017
30
0.0
 70
     32
  0
VERTEX
  8
MY3DLAYER
10
11.845021046291066
20
-5.18398959185375
30
0.0
 70
     32
  0
VERTEX
  8
MY3DLAYER
10
12.322235644241715
20
-3.9383824436569554
30
0.0
 70
     32
  0
VERTEX
  8
MY3DLAYER
10
12.666634609656782
20
-2.6497163531753465
30
0.0
 70
     32
  0
VERTEX
  8
MY3DLAYER
10
12.87444463540107
20
-1.332110215766947
30
0.0
 70
     32
  0
VERTEX
  8
MY3DLAYER
10
12.943388911345483
20
1.3769367590565906e-18
30
0.0
 70
     32
  0
VERTEX
  8
MY3DLAYER
10
12.87271206957525
20
1.3320194158395438
30
0.0
 70
     32
  0
VERTEX
  8
MY3DLAYER
10
12.663188460358896
20
2.6493541482887735
30
0.0
 70
     32
  0
VERTEX
  8
MY3DLAYER
10
12.60190303115439
20
2.8774809487852653
30
0.0
 70
     32
  0
SEQEND
  0
POLYLINE
 8
Top layer
 66
     1
70
    8
 10
0.0
 20
 0.0
 30
0.0
  0
VERTEX
  8
MY3DLAYER
10
0.610648652665857
20
11.442637507624363
30
0.0
 70
     32
  0
VERTEX
  8
MY3DLAYER
10
0.610648652665857
20
12.713581942126838
30
0.0
 70
     32
  0
VERTEX
  8
MY3DLAYER
10
0.1915406869716726
20
12.735273161738636
30
0.0
 70
     32
  0
VERTEX
  8
MY3DLAYER
10
-1.1404787288678704
20
12.664596319968405
30
0.0
 70
     32
  0
VERTEX
  8
MY3DLAYER
10
-2.0438397545942726
20
12.520915706474156
30
0.0
 70
     32
  0
VERTEX
  8
MY3DLAYER
10
-1.8527809604664185
20
11.319674536632576
30
0.0
 70
     32
  0
VERTEX
  8
MY3DLAYER
10
-0.9778507390187072
20
11.42941334563074
30
0.0
 70
     32
  0
VERTEX
  8
MY3DLAYER
10
-0.10342952479770368
20
11.471730799063938
30
0.0
 70
     32
  0
VERTEX
  8
MY3DLAYER
10
0.610648652665857
20
11.442637507624363
30
0.0
 70
     32
  0
SEQEND
  0
POLYLINE
 8
Top layer
 66
     1
70
    8
 10
0.0
 20
 0.0
 30
0.0
  0
VERTEX
  8
MY3DLAYER
10
5.155781192116655
20
10.203810375922604
30
0.0
 70
     32
  0
VERTEX
  8
MY3DLAYER
10
5.1385006084136435
20
10.008785180494728
30
0.0
 70
     32
  0
VERTEX
  8
MY3DLAYER
10
5.172285081173131
20
9.81593276328104
30
0.0
 70
     32
  0
VERTEX
  8
MY3DLAYER
10
5.254832254408037
20
9.638395697810969
30
0.0
 70
     32
  0
VERTEX
  8
MY3DLAYER
10
5.380516674678059
20
9.488272841702425
30
0.0
 70
     32
  0
VERTEX
  8
MY3DLAYER
10
5.54077315644512
20
9.375794819509457
30
0.0
 70
     32
  0
VERTEX
  8
MY3DLAYER
10
5.72468048531315
20
9.308626822565792
30
0.0
 70
     32
  0
VERTEX
  8
MY3DLAYER
10
5.919705680741027
20
9.291346238862781
30
0.0
 70
     32
  0
VERTEX
  8
MY3DLAYER
10
6.112558097954713
20
9.325130711622267
30
0.0
 70
     32
  0
VERTEX
  8
MY3DLAYER
10
6.290095163424785
20
9.407677884857174
30
0.0
 70
     32
  0
VERTEX
  8
MY3DLAYER
10
6.440218019533329
20
9.533362305127195
30
0.0
 70
     32
  0
VERTEX
  8
MY3DLAYER
10
6.552696041726297
20
9.693618786894254
30
0.0
 70
     32
  0
VERTEX
  8
MY3DLAYER
10
6.619864038669962
20
9.877526115762286
30
0.0
 70
     32
  0
VERTEX
  8
MY3DLAYER
10
6.637144622372975
20
10.072551311190162
30
0.0
 70
     32
  0
VERTEX
  8
MY3DLAYER
10
6.603360149613488
20
10.265403728403848
30
0.0
 70
     32
  0
VERTEX
  8
MY3DLAYER
10
6.52081297637858
20
10.44294079387392
30
0.0
 70
     32
  0
VERTEX
  8
MY3DLAYER
10
6.395128556108559
20
10.593063649982465
30
0.0
 70
     32
  0
VERTEX
  8
MY3DLAYER
10
6.234872074341499
20
10.705541672175434
30
0.0
 70
     32
  0
VERTEX
  8
MY3DLAYER
10
6.050964745473467
20
10.772709669119099
30
0.0
 70
     32
  0
VERTEX
  8
MY3DLAYER
10
5.8559395500455915
20
10.78999025282211
30
0.0
 70
     32
  0
VERTEX
  8
MY3DLAYER
10
5.663087132831906
20
10.756205780062624
30
0.0
 70
     32
  0
VERTEX
  8
MY3DLAYER
10
5.485550067361833
20
10.673658606827717
30
0.0
 70
     32
  0
VERTEX
  8
MY3DLAYER
10
5.33542721125329
20
10.547974186557694
30
0.0
 70
     32
  0
VERTEX
  8
MY3DLAYER
10
5.22294918906032
20
10.387717704790635
30
0.0
 70
     32
  0
VERTEX
  8
MY3DLAYER
10
5.155781192116655
20
10.203810375922604
30
0.0
 70
     32
  0
SEQEND
  0
POLYLINE
 8
Top layer
 66
     1
70
    8
 10
0.0
 20
 0.0
 30
0.0
  0
VERTEX
  8
MY3DLAYER
10
1.394429796104802
20
11.56417061434492
30
0.0
 70
     32
  0
VERTEX
  8
MY3DLAYER
10
1.3691258371867199
20
11.370023363301105
30
0.0
 70
     32
  0
VERTEX
  8
MY3DLAYER
10
1.3949330958848265
20
11.175942372930365
30
0.0
 70
     32
  0
VERTEX
  8
MY3DLAYER
10
1.4700928501673574
20
10.995153941992465
30
0.0
 70
     32
  0
VERTEX
  8
MY3DLAYER
10
1.5894830869873247
20
10.839978503288814
30
0.0
 70
     32
  0
VERTEX
  8
MY3DLAYER
10
1.7449675590071423
20
10.72099100652753
30
0.0
 70
     32
  0
VERTEX
  8
MY3DLAYER
10
1.9259502564088993
20
10.646300252976758
30
0.0
 70
     32
  0
VERTEX
  8
MY3DLAYER
10
2.120097507452715
20
10.620996294058676
30
0.0
 70
     32
  0
VERTEX
  8
MY3DLAYER
10
2.314178497823454
20
10.646803552756783
30
0.0
 70
     32
  0
VERTEX
  8
MY3DLAYER
10
2.4949669287613543
20
10.721963307039314
30
0.0
 70
     32
  0
VERTEX
  8
MY3DLAYER
10
2.6501423674650044
20
10.841353543859281
30
0.0
 70
     32
  0
VERTEX
  8
MY3DLAYER
10
2.7691298642262887
20
10.9968380158791
30
0.0
 70
     32
  0
VERTEX
  8
MY3DLAYER
10
2.8438206177770615
20
11.177820713280855
30
0.0
 70
     32
  0
VERTEX
  8
MY3DLAYER
10
2.8691245766951434
20
11.37196796432467
30
0.0
 70
     32
  0
VERTEX
  8
MY3DLAYER
10
2.843317317997037
20
11.56604895469541
30
0.0
 70
     32
  0
VERTEX
  8
MY3DLAYER
10
2.768157563714506
20
11.74683738563331
30
0.0
 70
     32
  0
VERTEX
  8
MY3DLAYER
10
2.648767326894539
20
11.90201282433696
30
0.0
 70
     32
  0
VERTEX
  8
MY3DLAYER
10
2.4932828548747215
20
12.021000321098244
30
0.0
 70
     32
  0
VERTEX
  8
MY3DLAYER
10
2.3123001574729645
20
12.095691074649016
30
0.0
 70
     32
  0
VERTEX
  8
MY3DLAYER
10
2.118152906429149
20
12.1209950335671
30
0.0
 70
     32
  0
VERTEX
  8
MY3DLAYER
10
1.9240719160584092
20
12.095187774868993
30
0.0
 70
     32
  0
VERTEX
  8
MY3DLAYER
10
1.74328348512051
20
12.020028020586462
30
0.0
 70
     32
  0
VERTEX
  8
MY3DLAYER
10
1.5881080464168589
20
11.900637783766495
30
0.0
 70
     32
  0
VERTEX
  8
MY3DLAYER
10
1.4691205496555744
20
11.745153311746677
30
0.0
 70
     32
  0
VERTEX
  8
MY3DLAYER
10
1.394429796104802
20
11.56417061434492
30
0.0
 70
     32
  0
SEQEND
  0
POLYLINE
 8
Top layer
 66
     1
70
    8
 10
0.0
 20
 0.0
 30
0.0
  0
VERTEX
  8
MY3DLAYER
10
-8.215931149646071
20
-5.873234201219479
30
0.0
 70
     32
  0
VERTEX
  8
MY3DLAYER
10
-8.24694860709244
20
-5.67991745916551
30
0.0
 70
     32
  0
VERTEX
  8
MY3DLAYER
10
-8.090169943749475
20
-5.877852522924729
30
0.0
 70
     32
  0
VERTEX
  8
MY3DLAYER
10
-7.4314482547739455
20
-6.691306063588578
30
0.0
 70
     32
  0
VERTEX
  8
MY3DLAYER
10
-6.691306063588588
20
-7.431448254773937
30
0.0
 70
     32
  0
VERTEX
  8
MY3DLAYER
10
-5.877852522924734
20
-8.090169943749475
30
0.0
 70
     32
  0
VERTEX
  8
MY3DLAYER
10
-5.000000000000004
20
-8.660254037844384
30
0.0
 70
     32
  0
VERTEX
  8
MY3DLAYER
10
-4.067366430758009
20
-9.135454576426005
30
0.0
 70
     32
  0
VERTEX
  8
MY3DLAYER
10
-3.0901699437494767
20
-9.510565162951535
30
0.0
 70
     32
  0
VERTEX
  8
MY3DLAYER
10
-2.079116908177599
20
-9.781476007338057
30
0.0
 70
     32
  0
VERTEX
  8
MY3DLAYER
10
-1.045284632676543
20
-9.945218953682733
30
0.0
 70
     32
  0
VERTEX
  8
MY3DLAYER
10
0.0
20
-10.0
30
0.0
 70
     32
  0
VERTEX
  8
MY3DLAYER
10
1.0452846326765346
20
-9.945218953682733
30
0.0
 70
     32
  0
VERTEX
  8
MY3DLAYER
10
2.079116908177593
20
-9.781476007338057
30
0.0
 70
     32
  0
VERTEX
  8
MY3DLAYER
10
3.090169943749474
20
-9.510565162951535
30
0.0
 70
     32
  0
VERTEX
  8
MY3DLAYER
10
4.0673664307580015
20
-9.135454576426008
30
0.0
 70
     32
  0
VERTEX
  8
MY3DLAYER
10
4.999999999999999
20
-8.660254037844387
30
0.0
 70
     32
  0
VERTEX
  8
MY3DLAYER
10
5.877852522924732
20
-8.090169943749475
30
0.0
 70
     32
  0
VERTEX
  8
MY3DLAYER
10
6.691306063588582
20
-7.431448254773944
30
0.0
 70
     32
  0
VERTEX
  8
MY3DLAYER
10
7.431448254773941
20
-6.691306063588582
30
0.0
 70
     32
  0
VERTEX
  8
MY3DLAYER
10
8.090169943749475
20
-5.877852522924732
30
0.0
 70
     32
  0
VERTEX
  8
MY3DLAYER
10
8.660254037844386
20
-5.000000000000002
30
0.0
 70
     32
  0
VERTEX
  8
MY3DLAYER
10
9.135454576426008
20
-4.067366430758004
30
0.0
 70
     32
  0
VERTEX
  8
MY3DLAYER
10
9.510565162951535
20
-3.0901699437494745
30
0.0
 70
     32
  0
VERTEX
  8
MY3DLAYER
10
9.781476007338057
20
-2.0791169081775944
30
0.0
 70
     32
  0
VERTEX
  8
MY3DLAYER
10
9.945218953682733
20
-1.0452846326765368
30
0.0
 70
     32
  0
VERTEX
  8
MY3DLAYER
10
10.0
20
-6.123233995736766e-16
30
0.0
 70
     32
  0
VERTEX
  8
MY3DLAYER
10
9.945218953682733
20
1.0452846326765333
30
0.0
 70
     32
  0
VERTEX
  8
MY3DLAYER
10
9.781476007338057
20
2.079116908177591
30
0.0
 70
     32
  0
VERTEX
  8
MY3DLAYER
10
9.510565162951536
20
3.090169943749473
30
0.0
 70
     32
  0
VERTEX
  8
MY3DLAYER
10
9.135454576426008
20
4.0673664307580015
30
0.0
 70
     32
  0
VERTEX
  8
MY3DLAYER
10
8.660254037844387
20
4.999999999999998
30
0.0
 70
     32
  0
VERTEX
  8
MY3DLAYER
10
8.090169943749475
20
5.87785252292473
30
0.0
 70
     32
  0
VERTEX
  8
MY3DLAYER
10
7.4314482547739455
20
6.691306063588579
30
0.0
 70
     32
  0
VERTEX
  8
MY3DLAYER
10
6.691306063588583
20
7.431448254773941
30
0.0
 70
     32
  0
VERTEX
  8
MY3DLAYER
10
5.877852522924733
20
8.090169943749475
30
0.0
 70
     32
  0
VERTEX
  8
MY3DLAYER
10
5.0000000000000036
20
8.660254037844386
30
0.0
 70
     32
  0
VERTEX
  8
MY3DLAYER
10
4.067366430758004
20
9.135454576426008
30
0.0
 70
     32
  0
VERTEX
  8
MY3DLAYER
10
3.090169943749475
20
9.510565162951535
30
0.0
 70
     32
  0
VERTEX
  8
MY3DLAYER
10
2.0791169081775975
20
9.781476007338057
30
0.0
 70
     32
  0
VERTEX
  8
MY3DLAYER
10
1.0452846326765375
20
9.945218953682733
30
0.0
 70
     32
  0
VERTEX
  8
MY3DLAYER
10
1.2246467991473533e-15
20
10.0
30
0.0
 70
     32
  0
VERTEX
  8
MY3DLAYER
10
-1.0452846326765306
20
9.945218953682733
30
0.0
 70
     32
  0
VERTEX
  8
MY3DLAYER
10
-2.079116908177591
20
9.781476007338057
30
0.0
 70
     32
  0
VERTEX
  8
MY3DLAYER
10
-3.090169943749473
20
9.510565162951536
30
0.0
 70
     32
  0
VERTEX
  8
MY3DLAYER
10
-4.067366430757998
20
9.13545457642601
30
0.0
 70
     32
  0
VERTEX
  8
MY3DLAYER
10
-4.999999999999997
20
8.660254037844389
30
0.0
 70
     32
  0
VERTEX
  8
MY3DLAYER
10
-5.87785252292473
20
8.090169943749475
30
0.0
 70
     32
  0
VERTEX
  8
MY3DLAYER
10
-6.691306063588579
20
7.4314482547739455
30
0.0
 70
     32
  0
VERTEX
  8
MY3DLAYER
10
-7.431448254773939
20
6.691306063588585
30
0.0
 70
     32
  0
VERTEX
  8
MY3DLAYER
10
-8.090169943749475
20
5.877852522924733
30
0.0
 70
     32
  0
VERTEX
  8
MY3DLAYER
10
-8.660254037844386
20
5.000000000000004
30
0.0
 70
     32
  0
VERTEX
  8
MY3DLAYER
10
-9.135454576426005
20
4.067366430758009
30
0.0
 70
     32
  0
VERTEX
  8
MY3DLAYER
10
-9.510565162951535
20
3.0901699437494754
30
0.0
 70
     32
  0
VERTEX
  8
MY3DLAYER
10
-9.655515076900365
20
2.549209500339708
30
0.0
 70
     32
  0
VERTEX
  8
MY3DLAYER
10
-9.781476007338057
20
2.0791169081775975
30
0.0
 70
     32
  0
VERTEX
  8
MY3DLAYER
10
-9.945218953682733
20
1.0452846326765424
30
0.0
 70
     32
  0
VERTEX
  8
MY3DLAYER
10
-10.0
20
1.8369701987210296e-15
30
0.0
 70
     32
  0
VERTEX
  8
MY3DLAYER
10
-9.945218953682733
20
-1.04528463267653
30
0.0
 70
     32
  0
VERTEX
  8
MY3DLAYER
10
-9.781476007338059
20
-2.0791169081775855
30
0.0
 70
     32
  0
VERTEX
  8
MY3DLAYER
10
-9.604449432155448
20
-2.7397890810489978
30
0.0
 70
     32
  0
VERTEX
  8
MY3DLAYER
10
-9.647058565279426
20
-2.7803240061971004
30
0.0
 70
     32
  0
VERTEX
  8
MY3DLAYER
10
-10.18097467266973
20
-3.124733909583206
30
0.0
 70
     32
  0
VERTEX
  8
MY3DLAYER
10
-10.769746218388521
20
-3.3635490226584657
30
0.0
 70
     32
  0
VERTEX
  8
MY3DLAYER
10
-11.392721833632201
20
-3.48839282143518
30
0.0
 70
     32
  0
VERTEX
  8
MY3DLAYER
10
-12.028050429842583
20
-3.494886365813191
30
0.0
 70
     32
  0
VERTEX
  8
MY3DLAYER
10
-11.917457231626097
20
-3.954146264984135
30
0.0
 70
     32
  0
VERTEX
  8
MY3DLAYER
10
-11.892561696955271
20
-4.008093942199828
30
0.0
 70
     32
  0
VERTEX
  8
MY3DLAYER
10
-11.609082053198694
20
-4.7444570200401035
30
0.0
 70
     32
  0
VERTEX
  8
MY3DLAYER
10
-9.73701851674416
20
-3.9793339022301866
30
0.0
 70
     32
  0
VERTEX
  8
MY3DLAYER
10
-10.18097467266973
20
-3.124733909583206
30
0.0
 70
     32
  0
VERTEX
  8
MY3DLAYER
10
-9.647058565279426
20
-2.7803240061971004
30
0.0
 70
     32
  0
VERTEX
  8
MY3DLAYER
10
-9.604449432155448
20
-2.7397890810489978
30
0.0
 70
     32
  0
VERTEX
  8
MY3DLAYER
10
-9.510565162951536
20
-3.0901699437494723
30
0.0
 70
     32
  0
VERTEX
  8
MY3DLAYER
10
-9.13545457642601
20
-4.067366430757998
30
0.0
 70
     32
  0
VERTEX
  8
MY3DLAYER
10
-8.66025403784439
20
-4.999999999999994
30
0.0
 70
     32
  0
VERTEX
  8
MY3DLAYER
10
-8.45046350202279
20
-5.3493072532069
30
0.0
 70
     32
  0
VERTEX
  8
MY3DLAYER
10
-8.609091735741535
20
-5.234544328479141
30
0.0
 70
     32
  0
VERTEX
  8
MY3DLAYER
10
-8.792017674060302
20
-5.164747863561515
30
0.0
 70
     32
  0
VERTEX
  8
MY3DLAYER
10
-8.98677521658207
20
-5.144674372194046
30
0.0
 70
     32
  0
VERTEX
  8
MY3DLAYER
10
-9.180091958636039
20
-5.1756918296404155
30
0.0
 70
     32
  0
VERTEX
  8
MY3DLAYER
10
-9.358793683722253
20
-5.255686447434424
30
0.0
 70
     32
  0
VERTEX
  8
MY3DLAYER
10
-9.51070216459465
20
-5.379206724570766
30
0.0
 70
     32
  0
VERTEX
  8
MY3DLAYER
10
-9.625465089322407
20
-5.537834958289512
30
0.0
 70
     32
  0
VERTEX
  8
MY3DLAYER
10
-9.695261554240034
20
-5.720760896608276
30
0.0
 70
     32
  0
VERTEX
  8
MY3DLAYER
10
-9.715335045607501
20
-5.915518439130045
30
0.0
 70
     32
  0
VERTEX
  8
MY3DLAYER
10
-9.684317588161134
20
-6.108835181184014
30
0.0
 70
     32
  0
VERTEX
  8
MY3DLAYER
10
-9.604322970367125
20
-6.287536906270227
30
0.0
 70
     32
  0
VERTEX
  8
MY3DLAYER
10
-9.480802693230782
20
-6.439445387142623
30
0.0
 70
     32
  0
VERTEX
  8
MY3DLAYER
10
-9.322174459512038
20
-6.554208311870383
30
0.0
 70
     32
  0
VERTEX
  8
MY3DLAYER
10
-9.139248521193272
20
-6.62400477678801
30
0.0
 70
     32
  0
VERTEX
  8
MY3DLAYER
10
-8.944490978671503
20
-6.644078268155478
30
0.0
 70
     32
  0
VERTEX
  8
MY3DLAYER
10
-8.751174236617535
20
-6.61306081070911
30
0.0
 70
     32
  0
VERTEX
  8
MY3DLAYER
10
-8.572472511531322
20
-6.533066192915101
30
0.0
 70
     32
  0
VERTEX
  8
MY3DLAYER
10
-8.420564030658925
20
-6.409545915778758
30
0.0
 70
     32
  0
VERTEX
  8
MY3DLAYER
10
-8.305801105931165
20
-6.250917682060012
30
0.0
 70
     32
  0
VERTEX
  8
MY3DLAYER
10
-8.236004641013539
20
-6.067991743741247
30
0.0
 70
     32
  0
VERTEX
  8
MY3DLAYER
10
-8.215931149646071
20
-5.873234201219479
30
0.0
 70
     32
  0
SEQEND
  0
LINE
 8
Top layer
10
-12.263532023780376
20
-2.665929210923946
30
0.0
11
-12.252455056754876
21
-2.707161736820118
31
0.0
  0
LINE
 8
Top layer
10
-11.519834016650407
20
4.979082746270721
30
0.0
11
-11.593227376874914
21
4.781468834094112
31
0.0
  0
LINE
 8
Top layer
10
-11.688767796002924
20
4.532092914919331
30
0.0
11
-11.922579207663196
21
3.921807381021778
31
0.0
  0
LINE
 8
Top layer
10
-11.922579207663196
20
3.921807381021778
30
0.0
11
-11.948434426007209
21
3.8250627723329194
31
0.0
  0
LINE
 8
Top layer
10
-12.266978173078263
20
2.6331412905401694
30
0.0
11
-12.273629639336203
21
2.590968095417186
31
0.0
  0
LINE
 8
Top layer
10
-12.303307516736954
20
2.475169673778067
30
0.0
11
-12.463368469374041
21
1.3879412151348496
31
0.0
  0
LINE
 8
Top layer
10
-12.543732474766966
20
-0.016575062635174203
30
0.0
11
-12.549067440522485
21
-0.13692019064053434
31
0.0
  0
LINE
 8
Top layer
10
-12.16564008076466
20
3.0123264111494796
30
0.0
11
-12.266978173078263
21
2.6331412905401694
31
0.0
  0
LINE
 8
Top layer
10
-12.549067440522485
20
-0.13692019064053434
30
0.0
11
-12.476939518812163
21
-1.275396367389446
31
0.0
  0
LINE
 8
Top layer
10
-11.977183028517238
20
3.747656263157719
30
0.0
11
-12.10253999633093
21
3.258533041227962
31
0.0
  0
LINE
 8
Top layer
10
-12.476939518812163
20
-1.275396367389446
30
0.0
11
-12.473055632996735
21
-1.3485944784747144
31
0.0
  0
LINE
 8
Top layer
10
-10.936271292616908
20
6.155957356875531
30
0.0
11
-11.44536460971255
21
5.1674145292185685
31
0.0
  0
LINE
 8
Top layer
10
-11.44536460971255
20
5.1674145292185685
30
0.0
11
-11.519834016650407
21
4.979082746270721
31
0.0
  0
LINE
 8
Top layer
10
-12.273629639336203
20
2.590968095417186
30
0.0
11
-12.303307516736954
21
2.475169673778067
31
0.0
  0
LINE
 8
Top layer
10
-12.463368469374041
20
1.3879412151348496
30
0.0
11
-12.474788198822553
21
1.3155351531317643
31
0.0
  0
LINE
 8
Top layer
10
-12.325183552922049
20
-2.278308450902267
30
0.0
11
-12.263532023780376
21
-2.665929210923946
31
0.0
  0
LINE
 8
Top layer
10
-12.246372900050625
20
-2.7430259857121793
30
0.0
11
-12.198899230534137
21
-2.906516125657204
31
0.0
  0
LINE
 8
Top layer
10
-12.198899230534137
20
-2.906516125657204
30
0.0
11
-12.028050429842583
21
-3.494886365813191
31
0.0
  0
LINE
 8
Top layer
10
-12.473055632996735
20
-1.3485944784747144
30
0.0
11
-12.46601027893474
21
-1.4479048625099717
31
0.0
  0
LINE
 8
Top layer
10
-11.948434426007209
20
3.8250627723329194
30
0.0
11
-11.977183028517238
21
3.747656263157719
31
0.0
  0
LINE
 8
Top layer
10
-11.593227376874914
20
4.781468834094112
30
0.0
11
-11.688767796002924
21
4.532092914919331
31
0.0
  0
LINE
 8
Top layer
10
-12.474788198822553
20
1.3155351531317643
30
0.0
11
-12.49463439317068
21
1.175564607489948
31
0.0
  0
LINE
 8
Top layer
10
-12.10253999633093
20
3.258533041227962
30
0.0
11
-12.16564008076466
21
3.0123264111494796
31
0.0
  0
LINE
 8
Top layer
10
-12.49463439317068
20
1.175564607489948
30
0.0
11
-12.543732474766966
21
-0.016575062635174203
31
0.0
  0
LINE
 8
Top layer
10
-12.46601027893474
20
-1.4479048625099717
30
0.0
11
-12.325183552922049
21
-2.278308450902267
31
0.0
  0
LINE
 8
Top layer
10
-12.252455056754876
20
-2.707161736820118
30
0.0
11
-12.246372900050625
21
-2.7430259857121793
31
0.0
  0
LINE
 8
Group#1
10
15.089303850231905
20
14.845829678227357
30
0.0
11
14.77200871684754
21
14.56426613612459
31
0.0
  0
LINE
 8
Group#1
10
14.379129234604017
20
13.384228838285834
30
0.0
11
14.464322848152362
21
12.968661421226416
31
0.0
  0
LINE
 8
Group#1
10
-12.350951480571858
20
-14.649048519428138
30
0.0
11
-12.092708718850284
21
-14.3125
31
0.0
  0
LINE
 8
Group#1
10
14.500753705422389
20
-14.126805829739391
30
0.0
11
14.714068570417137
21
-14.493481433349897
31
0.0
  0
LINE
 8
Group#1
10
-15.119859397262074
20
13.629153138180003
30
0.0
11
-15.098091318668224
21
13.205501889314634
31
0.0
  0
LINE
 8
Group#1
10
-12.687499999999996
20
-12.092708718850284
30
0.0
11
-13.079419051708399
21
-11.930370532280262
31
0.0
  0
LINE
 8
Group#1
10
16.115771161714164
20
11.87912923460402
30
0.0
11
16.531338578773582
21
11.96432284815236
31
0.0
  0
LINE
 8
Group#1
10
-13.079419051708403
20
-15.069629467719732
30
0.0
11
-12.687499999999998
21
-14.90729128114971
31
0.0
  0
LINE
 8
Group#1
10
17.499246294577613
20
-12.873194170260604
30
0.0
11
17.28593142958286
21
-12.506518566650099
31
0.0
  0
LINE
 8
Group#1
10
-11.93037053228026
20
-13.079419051708403
30
0.0
11
-12.092708718850284
21
-12.687499999999998
31
0.0
  0
LINE
 8
Group#1
10
3.0
20
0.0
30
0.0
11
2.897777478867205
21
0.7764571353075627
31
0.0
  0
LINE
 8
Group#1
10
1.5
20
2.5980762113533147
30
0.0
11
0.7764571353075627
21
2.897777478867205
31
0.0
  0
LINE
 8
Group#1
10
-14.312499999999996
20
-12.092708718850284
30
0.0
11
-14.649048519428138
21
-12.350951480571858
31
0.0
  0
LINE
 8
Group#1
10
-15.031236734876737
20
14.04400281411406
30
0.0
11
-15.119859397262074
21
13.629153138180003
31
0.0
  0
LINE
 8
Group#1
10
-2.1213203435596424
20
2.1213203435596424
30
0.0
11
-2.5980762113533147
21
1.5
31
0.0
  0
LINE
 8
Group#1
10
16.910696149768093
20
12.154170321772632
30
0.0
11
17.22799128315246
21
12.435733863875404
31
0.0
  0
LINE
 8
Group#1
10
0.0
20
-3.0
30
0.0
11
0.7764571353075599
21
-2.897777478867205
31
0.0
  0
LINE
 8
Group#1
10
-0.7764571353075627
20
2.897777478867205
30
0.0
11
-1.5
21
2.5980762113533147
31
0.0
  0
LINE
 8
Group#1
10
-1.5
20
-2.5980762113533147
30
0.0
11
-0.7764571353075654
21
-2.897777478867205
31
0.0
  0
LINE
 8
Group#1
10
-12.092708718850284
20
-14.3125
30
0.0
11
-11.930370532280262
21
-13.920580948291594
31
0.0
  0
LINE
 8
Group#1
10
-12.092708718850284
20
-12.687499999999998
30
0.0
11
-12.350951480571858
21
-12.35095148057186
31
0.0
  0
LINE
 8
Group#1
10
2.1213203435596424
20
2.1213203435596424
30
0.0
11
1.5
21
2.5980762113533147
31
0.0
  0
LINE
 8
Group#1
10
0.7764571353075599
20
-2.897777478867205
30
0.0
11
1.4999999999999973
21
-2.5980762113533173
31
0.0
  0
LINE
 8
Group#1
10
-7.091472350841939
20
1.9042180967201652
30
0.0
11
-7.220881873393201
21
1.921255183575631
31
0.0
  0
LINE
 8
Group#1
10
1.6361622937963984
20
11.50040518636415
30
0.0
11
1.6247268301294215
21
11.413544216184784
31
0.0
  0
LINE
 8
Group#1
10
-7.470881873393201
20
1.8542678854678514
30
0.0
11
-7.515005835760611
21
1.8204103783267687
31
0.0
  0
LINE
 8
Group#1
10
-6.970881873393198
20
1.8542678854678487
30
0.0
11
-7.091472350841939
21
1.9042180967201652
31
0.0
  0
LINE
 8
Group#1
10
-6.787869171500981
20
1.6712551835756315
30
0.0
11
-6.867328482799926
21
1.7748085741689037
31
0.0
  0
LINE
 8
Group#1
10
2.369125206940934
20
11.80400836570511
30
0.0
11
2.248534729492193
21
11.853958576957423
31
0.0
  0
LINE
 8
Group#1
10
2.6020881200854675
20
11.50040518636415
30
0.0
11
2.5521379088331515
21
11.620995663812886
31
0.0
  0
LINE
 8
Group#1
10
-8.715633097626787
20
-6.327389022066981
30
0.0
11
-8.612079707033512
21
-6.2479297107680365
31
0.0
  0
LINE
 8
Group#1
10
-6.737918960248668
20
1.2918456610243705
30
0.0
11
-6.720881873393199
21
1.421255183575632
31
0.0
  0
LINE
 8
Group#1
10
2.369125206940934
20
10.937982961920666
30
0.0
11
2.4726785975342063
21
11.017442273219618
31
0.0
  0
LINE
 8
Group#1
10
-8.48267018448225
20
-6.023785842726023
30
0.0
11
-8.465633097626785
21
-5.894376320174762
31
0.0
  0
LINE
 8
Group#1
10
-7.350291395944459
20
0.9382922704310959
30
0.0
11
-7.220881873393201
21
0.92125518357563
31
0.0
  0
LINE
 8
Group#1
10
5.6378226153933095
20
10.473680947734662
30
0.0
11
5.534269224800035
21
10.39422163643572
31
0.0
  0
LINE
 8
Group#1
10
6.017232137944568
20
10.523631158986975
30
0.0
11
5.887822615393309
21
10.540668245842443
31
0.0
  0
LINE
 8
Group#1
10
-7.182230342650612
20
0.9263437541334693
30
0.0
11
-7.091472350841943
21
0.9382922704310959
31
0.0
  0
LINE
 8
Group#1
10
-7.515005835760611
20
1.8204103783267687
30
0.0
11
-7.574435263986476
21
1.7748085741689037
31
0.0
  0
LINE
 8
Group#1
10
6.241376005986581
20
10.39422163643572
30
0.0
11
6.137822615393309
21
10.473680947734662
31
0.0
  0
LINE
 8
Group#1
10
-9.319186488220062
20
-6.2479297107680365
30
0.0
11
-9.215633097626785
21
-6.327389022066981
31
0.0
  0
LINE
 8
Group#1
10
2.119125206940932
20
10.870995663812888
30
0.0
11
2.248534729492193
21
10.888032750668351
31
0.0
  0
LINE
 8
Group#1
10
5.404859702248776
20
9.911258723291189
30
0.0
11
5.454809913501089
21
9.790668245842445
31
0.0
  0
LINE
 8
Group#1
10
5.637822615393307
20
9.607655543950228
30
0.0
11
5.758413092842048
21
9.557705332697914
31
0.0
  0
LINE
 8
Group#1
10
1.869125206940932
20
11.80400836570511
30
0.0
11
1.76557181634766
21
11.724549054406156
31
0.0
  0
LINE
 8
Group#1
10
5.758413092842048
20
10.523631158986975
30
0.0
11
5.6378226153933095
21
10.473680947734662
31
0.0
  0
LINE
 8
Group#1
10
-9.095042620178045
20
-6.377339233319296
30
0.0
11
-8.965633097626787
21
-6.3943763201747625
31
0.0
  0
LINE
 8
Group#1
10
6.3707855285378425
20
9.911258723291189
30
0.0
11
6.387822615393308
21
10.040668245842445
31
0.0
  0
LINE
 8
Group#1
10
1.869125206940932
20
10.937982961920666
30
0.0
11
1.989715684389673
21
10.888032750668351
31
0.0
  0
LINE
 8
Group#1
10
5.404859702248776
20
10.170077768393707
30
0.0
11
5.387822615393307
21
10.040668245842445
31
0.0
  0
LINE
 8
Group#1
10
-8.965633097626787
20
-6.3943763201747625
30
0.0
11
-8.836223575075525
21
-6.377339233319296
31
0.0
  0
LINE
 8
Group#1
10
-7.350291395944459
20
1.9042180967201652
30
0.0
11
-7.470881873393201
21
1.8542678854678514
31
0.0
  0
LINE
 8
Group#1
10
-6.867328482799926
20
1.7748085741689037
30
0.0
11
-6.970881873393198
21
1.8542678854678487
31
0.0
  0
LINE
 8
Group#1
10
-8.715633097626784
20
-5.461363618282542
30
0.0
11
-8.836223575075525
21
-5.411413407030228
31
0.0
  0
LINE
 8
Group#1
10
-6.737918960248668
20
1.5506647061268906
30
0.0
11
-6.787869171500981
21
1.6712551835756315
31
0.0
  0
LINE
 8
Group#1
10
2.248534729492193
20
10.888032750668351
30
0.0
11
2.369125206940934
21
10.937982961920666
31
0.0
  0
LINE
 8
Group#1
10
2.4726785975342063
20
11.017442273219618
30
0.0
11
2.5521379088331515
21
11.120995663812888
31
0.0
  0
LINE
 8
Group#1
10
-6.867328482799926
20
1.0677017929823573
30
0.0
11
-6.787869171500981
21
1.1712551835756295
31
0.0
  0
LINE
 8
Group#1
10
-7.574435263986476
20
1.0677017929823573
30
0.0
11
-7.470881873393203
21
0.9882424816834094
31
0.0
  0
LINE
 8
Group#1
10
1.6247268301294215
20
11.413544216184784
30
0.0
11
1.6191252069409325
21
11.370995663812888
31
0.0
  0
LINE
 8
Group#1
10
2.5521379088331515
20
11.620995663812886
30
0.0
11
2.4726785975342063
21
11.724549054406156
31
0.0
  0
LINE
 8
Group#1
10
2.6191252069409336
20
11.370995663812888
30
0.0
11
2.6020881200854675
21
11.50040518636415
31
0.0
  0
LINE
 8
Group#1
10
5.387822615393307
20
10.040668245842445
30
0.0
11
5.404859702248776
21
9.911258723291189
31
0.0
  0
LINE
 8
Group#1
10
1.76557181634766
20
11.017442273219618
30
0.0
11
1.869125206940932
21
10.937982961920666
31
0.0
  0
LINE
 8
Group#1
10
6.387822615393308
20
10.040668245842445
30
0.0
11
6.3707855285378425
21
10.1700777683937
31
0.0
  0
LINE
 8
Group#1
10
1.686112505048715
20
11.120995663812888
30
0.0
11
1.76557181634766
21
11.017442273219618
31
0.0
  0
LINE
 8
Group#1
10
-8.612079707033512
20
-5.540822929581488
30
0.0
11
-8.715633097626784
21
-5.461363618282542
31
0.0
  0
LINE
 8
Group#1
10
-8.532620395734565
20
-6.144376320174762
30
0.0
11
-8.48267018448225
21
-6.023785842726023
31
0.0
  0
LINE
 8
Group#1
10
-9.319186488220062
20
-5.540822929581488
30
0.0
11
-9.398645799519004
21
-5.6443763201747625
31
0.0
  0
LINE
 8
Group#1
10
-8.465633097626785
20
-5.894376320174762
30
0.0
11
-8.48267018448225
21
-5.764966797623502
31
0.0
  0
LINE
 8
Group#1
10
2.4726785975342063
20
11.724549054406156
30
0.0
11
2.369125206940934
21
11.80400836570511
31
0.0
  0
LINE
 8
Group#1
10
1.6191252069409325
20
11.370995663812888
30
0.0
11
1.6361622937963984
21
11.241586141261626
31
0.0
  0
LINE
 8
Group#1
10
-7.703844786537734
20
1.2918456610243705
30
0.0
11
-7.65389457528542
21
1.1712551835756295
31
0.0
  0
LINE
 8
Group#1
10
6.320835317285528
20
9.790668245842445
30
0.0
11
6.3707855285378425
21
9.911258723291189
31
0.0
  0
LINE
 8
Group#1
10
-9.215633097626785
20
-6.327389022066981
30
0.0
11
-9.095042620178045
21
-6.377339233319296
31
0.0
  0
LINE
 8
Group#1
10
-7.091472350841943
20
0.9382922704310959
30
0.0
11
-6.970881873393202
21
0.9882424816834094
31
0.0
  0
LINE
 8
Group#1
10
6.017232137944568
20
9.557705332697914
30
0.0
11
6.137822615393309
21
9.607655543950228
31
0.0
  0
LINE
 8
Group#1
10
6.137822615393309
20
9.607655543950228
30
0.0
11
6.241376005986581
21
9.68711485524917
31
0.0
  0
LINE
 8
Group#1
10
-9.095042620178045
20
-5.411413407030228
30
0.0
11
-9.215633097626785
21
-5.461363618282542
31
0.0
  0
LINE
 8
Group#1
10
2.5521379088331515
20
11.120995663812888
30
0.0
11
2.6020881200854675
21
11.241586141261626
31
0.0
  0
LINE
 8
Group#1
10
-7.220881873393201
20
0.92125518357563
30
0.0
11
-7.182230342650612
21
0.9263437541334693
31
0.0
  0
LINE
 8
Group#1
10
-8.836223575075525
20
-5.411413407030228
30
0.0
11
-8.965633097626787
21
-5.394376320174762
31
0.0
  0
LINE
 8
Group#1
10
-6.970881873393202
20
0.9882424816834094
30
0.0
11
-6.867328482799926
21
1.0677017929823573
31
0.0
  0
LINE
 8
Group#1
10
-7.574435263986476
20
1.7748085741689037
30
0.0
11
-7.65389457528542
21
1.6712551835756315
31
0.0
  0
LINE
 8
Group#1
10
-9.398645799519004
20
-5.6443763201747625
30
0.0
11
-9.44859601077132
21
-5.764966797623501
31
0.0
  0
LINE
 8
Group#1
10
-7.220881873393201
20
1.921255183575631
30
0.0
11
-7.350291395944459
21
1.9042180967201652
31
0.0
  0
LINE
 8
Group#1
10
-9.215633097626785
20
-5.461363618282542
30
0.0
11
-9.319186488220062
21
-5.540822929581488
31
0.0
  0
LINE
 8
Group#1
10
1.6361622937963984
20
11.241586141261626
30
0.0
11
1.686112505048715
21
11.120995663812888
31
0.0
  0
LINE
 8
Group#1
10
5.454809913501089
20
9.790668245842445
30
0.0
11
5.534269224800035
21
9.68711485524917
31
0.0
  0
LINE
 8
Group#1
10
1.989715684389673
20
10.888032750668351
30
0.0
11
2.119125206940932
21
10.870995663812888
31
0.0
  0
LINE
 8
Group#1
10
5.534269224800035
20
10.39422163643572
30
0.0
11
5.454809913501089
21
10.290668245842443
31
0.0
  0
LINE
 8
Group#1
10
1.989715684389673
20
11.853958576957423
30
0.0
11
1.869125206940932
21
11.80400836570511
31
0.0
  0
LINE
 8
Group#1
10
6.241376005986581
20
9.68711485524917
30
0.0
11
6.320835317285528
21
9.790668245842445
31
0.0
  0
LINE
 8
Group#1
10
6.137822615393309
20
10.473680947734662
30
0.0
11
6.017232137944568
21
10.523631158986975
31
0.0
  0
LINE
 8
Group#1
10
-8.48267018448225
20
-5.764966797623502
30
0.0
11
-8.532620395734565
21
-5.6443763201747625
31
0.0
  0
LINE
 8
Group#1
10
-8.965633097626787
20
-5.394376320174762
30
0.0
11
-9.095042620178045
21
-5.411413407030228
31
0.0
  0
LINE
 8
Group#1
10
-6.720881873393199
20
1.421255183575632
30
0.0
11
-6.737918960248668
21
1.5506647061268906
31
0.0
  0
LINE
 8
Group#1
10
-7.470881873393203
20
0.9882424816834094
30
0.0
11
-7.350291395944459
21
0.9382922704310959
31
0.0
  0
LINE
 8
Group#1
10
-8.836223575075525
20
-6.377339233319296
30
0.0
11
-8.715633097626787
21
-6.327389022066981
31
0.0
  0
LINE
 8
Group#1
10
5.454809913501089
20
10.290668245842443
30
0.0
11
5.404859702248776
21
10.170077768393707
31
0.0
  0
LINE
 8
Group#1
10
-7.7208818733932025
20
1.421255183575632
30
0.0
11
-7.703844786537734
21
1.2918456610243705
31
0.0
  0
LINE
 8
Group#1
10
2.119125206940932
20
11.870995663812886
30
0.0
11
1.989715684389673
21
11.853958576957423
31
0.0
  0
LINE
 8
Group#1
10
1.686112505048715
20
11.620995663812886
30
0.0
11
1.6361622937963984
21
11.50040518636415
31
0.0
  0
LINE
 8
Group#1
10
5.887822615393309
20
10.540668245842443
30
0.0
11
5.758413092842048
21
10.523631158986975
31
0.0
  0
LINE
 8
Group#1
10
5.534269224800035
20
9.68711485524917
30
0.0
11
5.637822615393307
21
9.607655543950228
31
0.0
  0
LINE
 8
Group#1
10
-9.465633097626785
20
-5.894376320174762
30
0.0
11
-9.44859601077132
21
-6.023785842726023
31
0.0
  0
LINE
 8
Group#1
10
5.758413092842048
20
9.557705332697914
30
0.0
11
5.887822615393309
21
9.540668245842445
31
0.0
  0
LINE
 8
Group#1
10
-7.703844786537734
20
1.5506647061268906
30
0.0
11
-7.7208818733932025
21
1.421255183575632
31
0.0
  0
LINE
 8
Group#1
10
2.6020881200854675
20
11.241586141261626
30
0.0
11
2.6191252069409336
21
11.370995663812888
31
0.0
  0
LINE
 8
Group#1
10
2.248534729492193
20
11.853958576957423
30
0.0
11
2.119125206940932
21
11.870995663812886
31
0.0
  0
LINE
 8
Group#1
10
6.320835317285528
20
10.290668245842443
30
0.0
11
6.241376005986581
21
10.39422163643572
31
0.0
  0
LINE
 8
Group#1
10
-9.44859601077132
20
-6.023785842726023
30
0.0
11
-9.398645799519004
21
-6.144376320174762
31
0.0
  0
LINE
 8
Group#1
10
-6.787869171500981
20
1.1712551835756295
30
0.0
11
-6.737918960248668
21
1.2918456610243705
31
0.0
  0
LINE
 8
Group#1
10
-9.44859601077132
20
-5.764966797623501
30
0.0
11
-9.465633097626785
21
-5.894376320174762
31
0.0
  0
LINE
 8
Group#1
10
-8.532620395734565
20
-5.6443763201747625
30
0.0
11
-8.612079707033512
21
-5.540822929581488
31
0.0
  0
LINE
 8
Group#1
10
6.3707855285378425
20
10.1700777683937
30
0.0
11
6.320835317285528
21
10.290668245842443
31
0.0
  0
LINE
 8
Group#1
10
5.887822615393309
20
9.540668245842445
30
0.0
11
6.017232137944568
21
9.557705332697914
31
0.0
  0
LINE
 8
Group#1
10
-9.398645799519004
20
-6.144376320174762
30
0.0
11
-9.319186488220062
21
-6.2479297107680365
31
0.0
  0
LINE
 8
Group#1
10
-7.65389457528542
20
1.6712551835756315
30
0.0
11
-7.703844786537734
21
1.5506647061268906
31
0.0
  0
LINE
 8
Group#1
10
-7.65389457528542
20
1.1712551835756295
30
0.0
11
-7.574435263986476
21
1.0677017929823573
31
0.0
  0
LINE
 8
Group#1
10
-8.612079707033512
20
-6.2479297107680365
30
0.0
11
-8.532620395734565
21
-6.144376320174762
31
0.0
  0
LINE
 8
Group#1
10
1.76557181634766
20
11.724549054406156
30
0.0
11
1.686112505048715
21
11.620995663812886
31
0.0
  0
LINE
 8
Group#1
10
14.935733863875406
20
12.27200871684754
30
0.0
11
15.289825384372113
21
12.03839916005847
31
0.0
  0
LINE
 8
Group#1
10
15.793206624505688
20
-15.111788292503599
30
0.0
11
16.217414444677758
21
-15.110390002218546
31
0.0
  0
LINE
 8
Group#1
10
15.383091431131353
20
-15.003345874260619
30
0.0
11
15.793206624505688
21
-15.111788292503599
31
0.0
  0
LINE
 8
Group#1
10
-17.5
20
17.5
30
0.0
11
20.0
21
17.5
31
0.0
  0
LINE
 8
Group#1
10
20.0
20
17.5
30
0.0
11
20.0
21
-17.5
31
0.0
  0
LINE
 8
Group#1
10
16.307685868695174
20
15.095604714898176
30
0.0
11
15.884228838285829
21
15.12087076539598
31
0.0
  0
LINE
 8
Group#1
10
14.464322848152362
20
12.968661421226416
30
0.0
11
14.65417032177264
21
12.589303850231904
31
0.0
  0
LINE
 8
Group#1
10
16.217414444677758
20
-15.110390002218546
30
0.0
11
16.62680582973939
21
-14.999246294577611
31
0.0
  0
LINE
 8
Group#1
10
15.373194170260602
20
-12.000753705422385
30
0.0
11
15.006518566650097
21
-12.214068570417135
31
0.0
  0
LINE
 8
Group#1
10
-14.55408850455416
20
14.736738624191366
30
0.0
11
-14.838262819497903
21
14.4217795972734
31
0.0
  0
LINE
 8
Group#1
10
17.461600839941532
20
12.789825384372111
30
0.0
11
17.595604714898176
21
13.192314131304823
31
0.0
  0
LINE
 8
Group#1
10
-11.968763265123258
20
12.955997185885934
30
0.0
11
-11.880140602737923
21
13.370846861819992
31
0.0
  0
LINE
 8
Group#1
10
15.015017537235796
20
-14.792452919083303
30
0.0
11
15.383091431131353
21
-15.003345874260619
31
0.0
  0
LINE
 8
Group#1
10
14.389609997781449
20
-13.717414444677758
30
0.0
11
14.500753705422389
21
-14.126805829739391
31
0.0
  0
LINE
 8
Group#1
10
-15.098091318668224
20
13.205501889314634
30
0.0
11
-14.967415957677908
21
12.801920200011326
31
0.0
  0
LINE
 8
Group#1
10
17.22799128315246
20
12.435733863875404
30
0.0
11
17.461600839941532
21
12.789825384372111
31
0.0
  0
LINE
 8
Group#1
10
-14.736738624191371
20
12.445911495445834
30
0.0
11
-14.421779597273401
21
12.161737180502096
31
0.0
  0
LINE
 8
Group#1
10
-12.801920200011327
20
12.032584042322087
30
0.0
11
-12.445911495445834
21
12.263261375808625
31
0.0
  0
LINE
 8
Group#1
10
-14.90729128114971
20
-12.687499999999996
30
0.0
11
-15.069629467719732
21
-13.079419051708399
31
0.0
  0
LINE
 8
Group#1
10
16.62680582973939
20
-14.999246294577611
30
0.0
11
16.993481433349903
21
-14.785931429582861
31
0.0
  0
LINE
 8
Group#1
10
-12.445911495445834
20
12.263261375808625
30
0.0
11
-12.161737180502094
21
12.578220402726592
31
0.0
  0
LINE
 8
Group#1
10
-14.421779597273401
20
12.161737180502096
30
0.0
11
-14.04400281411406
21
11.968763265123258
31
0.0
  0
LINE
 8
Group#1
10
-15.069629467719732
20
-13.079419051708399
30
0.0
11
-15.124999999999998
21
-13.499999999999998
31
0.0
  0
LINE
 8
Group#1
10
-13.499999999999998
20
-11.874999999999998
30
0.0
11
-13.920580948291594
21
-11.93037053228026
31
0.0
  0
LINE
 8
Group#1
10
14.714068570417137
20
-14.493481433349897
30
0.0
11
15.015017537235796
21
-14.792452919083303
31
0.0
  0
LINE
 8
Group#1
10
16.61690856886865
20
-11.996654125739376
30
0.0
11
16.206793375494303
21
-11.8882117074964
31
0.0
  0
LINE
 8
Group#1
10
15.782585555322239
20
-11.889609997781449
30
0.0
11
15.373194170260602
21
-12.000753705422385
31
0.0
  0
LINE
 8
Group#1
10
-13.794498110685364
20
15.098091318668226
30
0.0
11
-14.19807979998867
21
14.967415957677908
31
0.0
  0
LINE
 8
Group#1
10
-14.838262819497903
20
14.4217795972734
30
0.0
11
-15.031236734876737
21
14.04400281411406
31
0.0
  0
LINE
 8
Group#1
10
16.993481433349903
20
-14.785931429582861
30
0.0
11
17.292452919083306
21
-14.4849824627642
31
0.0
  0
LINE
 8
Group#1
10
14.65417032177264
20
12.589303850231904
30
0.0
11
14.935733863875406
21
12.27200871684754
31
0.0
  0
LINE
 8
Group#1
10
-15.069629467719732
20
-13.920580948291594
30
0.0
11
-14.90729128114971
21
-14.312499999999996
31
0.0
  0
LINE
 8
Group#1
10
14.77200871684754
20
14.56426613612459
30
0.0
11
14.538399160058471
21
14.210174615627883
31
0.0
  0
LINE
 8
Group#1
10
2.5980762113533147
20
1.5
30
0.0
11
2.1213203435596424
21
2.1213203435596424
31
0.0
  0
LINE
 8
Group#1
10
-14.19807979998867
20
14.967415957677908
30
0.0
11
-14.55408850455416
21
14.736738624191366
31
0.0
  0
LINE
 8
Group#1
10
16.984982462764204
20
-12.20754708091669
30
0.0
11
16.61690856886865
21
-11.996654125739376
31
0.0
  0
LINE
 8
Group#1
10
17.50334587426062
20
-14.116908568868647
30
0.0
11
17.611788292503597
21
-13.706793375494305
31
0.0
  0
LINE
 8
Group#1
10
-14.90729128114971
20
-14.312499999999996
30
0.0
11
-14.649048519428138
21
-14.649048519428138
31
0.0
  0
LINE
 8
Group#1
10
15.692314131304817
20
11.90439528510182
30
0.0
11
16.115771161714164
21
11.87912923460402
31
0.0
  0
LINE
 8
Group#1
10
1.4999999999999973
20
-2.5980762113533173
30
0.0
11
2.1213203435596424
21
-2.1213203435596424
31
0.0
  0
LINE
 8
Group#1
10
-11.930370532280262
20
-13.920580948291594
30
0.0
11
-11.874999999999998
21
-13.499999999999998
31
0.0
  0
LINE
 8
Group#1
10
14.404395285101822
20
13.807685868695179
30
0.0
11
14.379129234604017
21
13.384228838285834
31
0.0
  0
LINE
 8
Group#1
10
-2.897777478867205
20
-0.7764571353075599
30
0.0
11
-2.5980762113533147
21
-1.5
31
0.0
  0
LINE
 8
Group#1
10
-11.874999999999998
20
-13.499999999999998
30
0.0
11
-11.93037053228026
21
-13.079419051708403
31
0.0
  0
LINE
 8
Group#1
10
2.1213203435596424
20
-2.1213203435596424
30
0.0
11
2.5980762113533147
21
-1.5
31
0.0
  0
LINE
 8
Group#1
10
17.345829678227364
20
14.410696149768091
30
0.0
11
17.064266136124598
21
14.727991283152457
31
0.0
  0
LINE
 8
Group#1
10
2.897777478867205
20
-0.7764571353075654
30
0.0
11
3.0
21
0.0
31
0.0
  0
LINE
 8
Group#1
10
2.897777478867205
20
0.7764571353075627
30
0.0
11
2.5980762113533147
21
1.5
31
0.0
  0
LINE
 8
Group#1
10
16.531338578773582
20
11.96432284815236
30
0.0
11
16.910696149768093
21
12.154170321772632
31
0.0
  0
LINE
 8
Group#1
10
17.595604714898176
20
13.192314131304823
30
0.0
11
17.620870765395974
21
13.615771161714168
31
0.0
  0
LINE
 8
Group#1
10
-14.649048519428138
20
-12.350951480571858
30
0.0
11
-14.90729128114971
21
-12.687499999999996
31
0.0
  0
LINE
 8
Group#1
10
14.538399160058471
20
14.210174615627883
30
0.0
11
14.404395285101822
21
13.807685868695179
31
0.0
  0
LINE
 8
Group#1
10
-2.5980762113533147
20
1.5
30
0.0
11
-2.897777478867205
21
0.7764571353075627
31
0.0
  0
LINE
 8
Group#1
10
17.611788292503597
20
-13.706793375494305
30
0.0
11
17.610390002218544
21
-13.282585555322239
31
0.0
  0
LINE
 8
Group#1
10
15.884228838285829
20
15.12087076539598
30
0.0
11
15.468661421226418
21
15.035677151847635
31
0.0
  0
LINE
 8
Group#1
10
-15.124999999999998
20
-13.499999999999998
30
0.0
11
-15.069629467719732
21
-13.920580948291594
31
0.0
  0
LINE
 8
Group#1
10
17.292452919083306
20
-14.4849824627642
30
0.0
11
17.50334587426062
21
-14.116908568868647
31
0.0
  0
LINE
 8
Group#1
10
17.620870765395974
20
13.615771161714168
30
0.0
11
17.535677151847636
21
14.03133857877358
31
0.0
  0
LINE
 8
Group#1
10
-2.121320343559645
20
-2.1213203435596424
30
0.0
11
-1.5
21
-2.5980762113533147
31
0.0
  0
LINE
 8
Group#1
10
17.28593142958286
20
-12.506518566650099
30
0.0
11
16.984982462764204
21
-12.20754708091669
31
0.0
  0
LINE
 8
Group#1
10
-3.0
20
0.0
30
0.0
11
-2.897777478867205
21
-0.7764571353075599
31
0.0
  0
LINE
 8
Group#1
10
15.468661421226418
20
15.035677151847635
30
0.0
11
15.089303850231905
21
14.845829678227357
31
0.0
  0
LINE
 8
Group#1
10
14.496654125739376
20
-12.88309143113135
30
0.0
11
14.388211707496396
21
-13.29320662450569
31
0.0
  0
LINE
 8
Group#1
10
17.610390002218544
20
-13.282585555322239
30
0.0
11
17.499246294577613
21
-12.873194170260604
31
0.0
  0
LINE
 8
Group#1
10
-13.920580948291594
20
-11.93037053228026
30
0.0
11
-14.312499999999996
21
-12.092708718850284
31
0.0
  0
LINE
 8
Group#1
10
-2.897777478867205
20
0.7764571353075627
30
0.0
11
-3.0
21
0.0
31
0.0
  0
LINE
 8
Group#1
10
-14.967415957677908
20
12.801920200011326
30
0.0
11
-14.736738624191371
21
12.445911495445834
31
0.0
  0
LINE
 8
Group#1
10
-2.5980762113533147
20
-1.5
30
0.0
11
-2.121320343559645
21
-2.1213203435596424
31
0.0
  0
LINE
 8
Group#1
10
-14.3125
20
-14.90729128114971
30
0.0
11
-13.920580948291594
21
-15.069629467719732
31
0.0
  0
LINE
 8
Group#1
10
0.7764571353075627
20
2.897777478867205
30
0.0
11
0.0
21
3.0
31
0.0
  0
LINE
 8
Group#1
10
15.289825384372113
20
12.03839916005847
30
0.0
11
15.692314131304817
21
11.90439528510182
31
0.0
  0
LINE
 8
Group#1
10
-0.7764571353075654
20
-2.897777478867205
30
0.0
11
0.0
21
-3.0
31
0.0
  0
LINE
 8
Group#1
10
-1.5
20
2.5980762113533147
30
0.0
11
-2.1213203435596424
21
2.1213203435596424
31
0.0
  0
LINE
 8
Group#1
10
16.206793375494303
20
-11.8882117074964
30
0.0
11
15.782585555322239
21
-11.889609997781449
31
0.0
  0
LINE
 8
Group#1
10
0.0
20
3.0
30
0.0
11
-0.7764571353075627
21
2.897777478867205
31
0.0
  0
LINE
 8
Group#1
10
-12.350951480571858
20
-12.35095148057186
30
0.0
11
-12.687499999999996
21
-12.092708718850284
31
0.0
  0
LINE
 8
Group#1
10
-14.649048519428138
20
-14.649048519428138
30
0.0
11
-14.3125
21
-14.90729128114971
31
0.0
  0
LINE
 8
Group#1
10
-12.687499999999998
20
-14.90729128114971
30
0.0
11
-12.350951480571858
21
-14.649048519428138
31
0.0
  0
LINE
 8
Group#1
10
-13.499999999999998
20
-15.124999999999998
30
0.0
11
-13.079419051708403
21
-15.069629467719732
31
0.0
  0
LINE
 8
Group#1
10
-13.079419051708399
20
-11.930370532280262
30
0.0
11
-13.499999999999998
21
-11.874999999999998
31
0.0
  0
LINE
 8
Group#1
10
15.006518566650097
20
-12.214068570417135
30
0.0
11
14.70754708091669
21
-12.515017537235794
31
0.0
  0
LINE
 8
Group#1
10
2.5980762113533147
20
-1.5
30
0.0
11
2.897777478867205
21
-0.7764571353075654
31
0.0
  0
LINE
 8
Group#1
10
-13.920580948291594
20
-15.069629467719732
30
0.0
11
-13.499999999999998
21
-15.124999999999998
31
0.0
  0
LINE
 8
Group#1
10
-12.161737180502094
20
12.578220402726592
30
0.0
11
-11.968763265123258
21
12.955997185885934
31
0.0
  0
LINE
 8
Group#1
10
16.710174615627885
20
14.961600839941525
30
0.0
11
16.307685868695174
21
15.095604714898176
31
0.0
  0
LINE
 8
Group#1
10
-12.263261375808627
20
14.55408850455416
30
0.0
11
-12.578220402726593
21
14.8382628194979
31
0.0
  0
LINE
 8
Group#1
10
-11.880140602737923
20
13.370846861819992
30
0.0
11
-11.901908681331772
21
13.794498110685367
31
0.0
  0
LINE
 8
Group#1
10
-13.629153138180003
20
11.88014060273792
30
0.0
11
-13.20550188931463
21
11.901908681331776
31
0.0
  0
LINE
 8
Group#1
10
17.064266136124598
20
14.727991283152457
30
0.0
11
16.710174615627885
21
14.961600839941525
31
0.0
  0
LINE
 8
Group#1
10
-12.032584042322087
20
14.198079799988665
30
0.0
11
-12.263261375808627
21
14.55408850455416
31
0.0
  0
LINE
 8
Group#1
10
-12.955997185885934
20
15.031236734876737
30
0.0
11
-13.370846861819992
21
15.119859397262074
31
0.0
  0
LINE
 8
Group#1
10
-13.20550188931463
20
11.901908681331776
30
0.0
11
-12.801920200011327
21
12.032584042322087
31
0.0
  0
LINE
 8
Group#1
10
-17.5
20
-17.5
30
0.0
11
-17.5
21
17.5
31
0.0
  0
LINE
 8
Group#1
10
-12.578220402726593
20
14.8382628194979
30
0.0
11
-12.955997185885934
21
15.031236734876737
31
0.0
  0
LINE
 8
Group#1
10
20.0
20
-17.5
30
0.0
11
-17.5
21
-17.5
31
0.0
  0
LINE
 8
Group#1
10
-14.04400281411406
20
11.968763265123258
30
0.0
11
-13.629153138180003
21
11.88014060273792
31
0.0
  0
LINE
 8
Group#1
10
-13.370846861819992
20
15.119859397262074
30
0.0
11
-13.794498110685364
21
15.098091318668226
31
0.0
  0
LINE
 8
Group#1
10
-11.901908681331772
20
13.794498110685367
30
0.0
11
-12.032584042322087
21
14.198079799988665
31
0.0
  0
LINE
 8
Group#1
10
17.535677151847636
20
14.03133857877358
30
0.0
11
17.345829678227364
21
14.410696149768091
31
0.0
  0
LINE
 8
Group#1
10
14.388211707496396
20
-13.29320662450569
30
0.0
11
14.389609997781449
21
-13.717414444677758
31
0.0
  0
LINE
 8
Group#1
10
14.70754708091669
20
-12.515017537235794
30
0.0
11
14.496654125739376
21
-12.88309143113135
31
0.0
  0
LINE
 8
Top layer
10
-10.818485359348252
20
3.149337053313354
30
0.0
11
-10.248949289090445
21
2.9306402550118476
31
0.0
  0
LINE
 8
Top layer
10
12.317113668204616
20
3.9375712023489604
30
0.0
11
11.838279360956069
21
5.182556602399072
31
0.0
  0
LINE
 8
Top layer
10
1.5236509027386111
20
12.666328885794226
30
0.0
11
0.610648652665857
21
12.713581942126838
31
0.0
  0
LINE
 8
Top layer
10
-7.297353572460578
20
10.29659834952709
30
0.0
11
-8.333437111441008
21
9.45647821502851
31
0.0
  0
LINE
 8
Top layer
10
-8.333437111441008
20
9.45647821502851
30
0.0
11
-9.276028409768344
21
8.51266012638339
31
0.0
  0
LINE
 8
Top layer
10
11.231931747485985
20
6.370670027866212
30
0.0
11
10.504714099133938
21
7.488894259432251
31
0.0
  0
LINE
 8
Top layer
10
6.564431352161684
20
11.032103529196725
30
0.0
11
5.375530278825416
21
11.636905296684223
31
0.0
  0
LINE
 8
Top layer
10
-12.028050429842585
20
3.2664439326586896
30
0.0
11
-11.417981579274327
21
3.262491404561449
31
0.0
  0
LINE
 8
Top layer
10
10.504714099133938
20
7.488894259432251
30
0.0
11
9.664593964635356
21
8.524977798412683
31
0.0
  0
LINE
 8
Top layer
10
-9.727791985718435
20
2.613473595266462
30
0.0
11
-9.655515076900365
21
2.549209500339708
31
0.0
  0
LINE
 8
Top layer
10
-12.514032787976696
20
-12.61173513019138
30
0.0
11
-12.514032787976696
21
-12.36173513019138
31
0.0
  0
LINE
 8
Top layer
10
-10.248949289090445
20
2.9306402550118476
30
0.0
11
-9.727791985718435
21
2.613473595266462
31
0.0
  0
LINE
 8
Top layer
10
-9.949789161117696
20
3.494347849097061
30
0.0
11
-10.714999715134361
21
4.147461450891924
31
0.0
  0
LINE
 8
Top layer
10
9.664593964635356
20
8.524977798412683
30
0.0
11
8.720775875990237
21
9.467569096740014
31
0.0
  0
LINE
 8
Top layer
10
-12.028050429842585
20
3.2664439326586896
30
0.0
11
-12.05718521165559
21
3.258533041227962
31
0.0
  0
LINE
 8
Top layer
10
8.720775875990237
20
9.467569096740014
30
0.0
11
7.683600501684414
21
10.306340926899871
31
0.0
  0
LINE
 8
Top layer
10
-6.17912934089454
20
11.023815997879137
30
0.0
11
-7.297353572460578
21
10.29659834952709
31
0.0
  0
LINE
 8
Top layer
10
11.838279360956069
20
5.182556602399072
30
0.0
11
11.231931747485985
21
6.370670027866212
31
0.0
  0
LINE
 8
Top layer
10
-10.248949289090445
20
2.9306402550118476
30
0.0
11
-9.949789161117696
21
3.494347849097061
31
0.0
  0
LINE
 8
Top layer
10
7.683600501684414
20
10.306340926899871
30
0.0
11
6.564431352161684
21
11.032103529196725
31
0.0
  0
LINE
 8
Top layer
10
-12.514032787976696
20
-12.61173513019138
30
0.0
11
-12.514032787976696
21
-12.861735130191379
31
0.0
  0
LINE
 8
Top layer
10
2.8412570401470134
20
12.458518860049935
30
0.0
11
1.5236509027386111
21
12.666328885794226
31
0.0
  0
LINE
 8
Top layer
10
-3.7460305153772877
20
12.108997918597769
30
0.0
11
-4.991015915427399
21
11.630163611349221
31
0.0
  0
POLYLINE
 8
Top layer
 66
     1
70
    8
 10
0.0
 20
 0.0
 30
0.0
  0
VERTEX
  8
MY3DLAYER
10
-11.609082053198694
20
-4.7444570200401035
30
0.0
 70
     32
  0
VERTEX
  8
MY3DLAYER
10
-11.892561696955271
20
-4.008093942199828
30
0.0
 70
     32
  0
VERTEX
  8
MY3DLAYER
10
-11.917457231626097
20
-3.954146264984135
30
0.0
 70
     32
  0
VERTEX
  8
MY3DLAYER
10
-12.028050429842583
20
-3.494886365813191
30
0.0
 70
     32
  0
VERTEX
  8
MY3DLAYER
10
-11.392721833632201
20
-3.48839282143518
30
0.0
 70
     32
  0
VERTEX
  8
MY3DLAYER
10
-10.769746218388521
20
-3.3635490226584657
30
0.0
 70
     32
  0
VERTEX
  8
MY3DLAYER
10
-10.18097467266973
20
-3.124733909583206
30
0.0
 70
     32
  0
VERTEX
  8
MY3DLAYER
10
-9.73701851674416
20
-3.9793339022301866
30
0.0
 70
     32
  0
VERTEX
  8
MY3DLAYER
10
-11.609082053198694
20
-4.7444570200401035
30
0.0
 70
     32
  0
SEQEND
  0
LINE
 8
Top layer
10
-12.514032787976696
20
-12.61173513019138
30
0.0
11
-12.264032787976696
21
-12.61173513019138
31
0.0
  0
LINE
 8
Top layer
10
5.375530278825416
20
11.636905296684223
30
0.0
11
4.129923130628625
21
12.114119894634866
31
0.0
  0
LINE
 8
Top layer
10
-12.543013787976696
20
-12.61173513019138
30
0.0
11
-12.514032787976696
21
-12.61173513019138
31
0.0
  0
LINE
 8
Top layer
10
-10.714999715134361
20
4.147461450891924
30
0.0
11
-11.64507358389161
21
4.514834011999749
31
0.0
  0
LINE
 8
Top layer
10
4.129923130628625
20
12.114119894634866
30
0.0
11
2.8412570401470134
21
12.458518860049935
31
0.0
  0
LINE
 8
Top layer
10
-12.793013787976696
20
-12.61173513019138
30
0.0
11
-12.543013787976696
21
-12.61173513019138
31
0.0
  0
LINE
 8
Top layer
10
-2.457813461317099
20
12.455072710752047
30
0.0
11
-3.7460305153772877
21
12.108997918597769
31
0.0
  0
LINE
 8
Top layer
10
-4.991015915427399
20
11.630163611349221
30
0.0
11
-6.17912934089454
21
11.023815997879137
31
0.0
  0
LINE
 8
Top layer
10
-11.417981579274327
20
3.262491404561449
30
0.0
11
-10.818485359348252
21
3.149337053313354
31
0.0
  0
LINE
 8
Top layer
10
-12.10253999633093
20
3.258533041227962
30
0.0
11
-12.05718521165559
21
3.258533041227962
31
0.0
  0
LINE
 8
Top layer
10
-11.609082053198694
20
-4.7444570200401035
30
0.0
11
-11.438622924377553
21
-5.199131665034243
31
0.0
  0
LINE
 8
Top layer
10
-10.84056284222505
20
6.356315602554838
30
0.0
11
-10.936271292616908
21
6.155957356875531
31
0.0
  0
POLYLINE
 8
Top layer
 66
     1
70
    8
 10
0.0
 20
 0.0
 30
0.0
  0
VERTEX
  8
MY3DLAYER
10
0.610648652665857
20
12.713581942126838
30
0.0
 70
     32
  0
VERTEX
  8
MY3DLAYER
10
0.610648652665857
20
11.442637507624363
30
0.0
 70
     32
  0
VERTEX
  8
MY3DLAYER
10
-0.10342952479770368
20
11.471730799063938
30
0.0
 70
     32
  0
VERTEX
  8
MY3DLAYER
10
-0.9778507390187072
20
11.42941334563074
30
0.0
 70
     32
  0
VERTEX
  8
MY3DLAYER
10
-1.8527809604664185
20
11.319674536632576
30
0.0
 70
     32
  0
VERTEX
  8
MY3DLAYER
10
-2.0438397545942726
20
12.520915706474156
30
0.0
 70
     32
  0
VERTEX
  8
MY3DLAYER
10
-1.1404787288678704
20
12.664596319968405
30
0.0
 70
     32
  0
VERTEX
  8
MY3DLAYER
10
0.1915406869716726
20
12.735273161738636
30
0.0
 70
     32
  0
VERTEX
  8
MY3DLAYER
10
0.610648652665857
20
12.713581942126838
30
0.0
 70
     32
  0
SEQEND
  0
POLYLINE
 8
Top layer
 66
     1
70
    8
 10
0.0
 20
 0.0
 30
0.0
  0
VERTEX
  8
MY3DLAYER
10
11.27013407090283
20
2.5197060965862925
30
0.0
 70
     32
  0
VERTEX
  8
MY3DLAYER
10
12.60190303115439
20
2.8774809487852653
30
0.0
 70
     32
  0
VERTEX
  8
MY3DLAYER
10
12.663188460358896
20
2.6493541482887735
30
0.0
 70
     32
  0
VERTEX
  8
MY3DLAYER
10
12.87271206957525
20
1.3320194158395438
30
0.0
 70
     32
  0
VERTEX
  8
MY3DLAYER
10
12.943388911345483
20
1.3769367590565906e-18
30
0.0
 70
     32
  0
VERTEX
  8
MY3DLAYER
10
12.87444463540107
20
-1.332110215766947
30
0.0
 70
     32
  0
VERTEX
  8
MY3DLAYER
10
12.666634609656782
20
-2.6497163531753465
30
0.0
 70
     32
  0
VERTEX
  8
MY3DLAYER
10
12.322235644241715
20
-3.9383824436569554
30
0.0
 70
     32
  0
VERTEX
  8
MY3DLAYER
10
11.845021046291066
20
-5.18398959185375
30
0.0
 70
     32
  0
VERTEX
  8
MY3DLAYER
10
11.24021927880357
20
-6.372890665190017
30
0.0
 70
     32
  0
VERTEX
  8
MY3DLAYER
10
10.514456676506718
20
-7.4920598147127455
30
0.0
 70
     32
  0
VERTEX
  8
MY3DLAYER
10
9.675684846346858
20
-8.529235189018571
30
0.0
 70
     32
  0
VERTEX
  8
MY3DLAYER
10
8.733093548019527
20
-9.473053277663688
30
0.0
 70
     32
  0
VERTEX
  8
MY3DLAYER
10
7.697010009039096
20
-10.31317341216227
30
0.0
 70
     32
  0
VERTEX
  8
MY3DLAYER
10
6.578785777473054
20
-11.040391060514319
30
0.0
 70
     32
  0
VERTEX
  8
MY3DLAYER
10
5.3906723520059145
20
-11.6467386739844
30
0.0
 70
     32
  0
VERTEX
  8
MY3DLAYER
10
4.145686951955806
20
-12.125572981232946
30
0.0
 70
     32
  0
VERTEX
  8
MY3DLAYER
10
2.8574698978956117
20
-12.471647773387225
30
0.0
 70
     32
  0
VERTEX
  8
MY3DLAYER
10
1.5401351654463853
20
-12.681171382603582
30
0.0
 70
     32
  0
VERTEX
  8
MY3DLAYER
10
0.20811574960684526
20
-12.751848224373813
30
0.0
 70
     32
  0
VERTEX
  8
MY3DLAYER
10
-1.1239944661600987
20
-12.682903948429402
30
0.0
 70
     32
  0
VERTEX
  8
MY3DLAYER
10
-2.441600603568498
20
-12.475093922685112
30
0.0
 70
     32
  0
VERTEX
  8
MY3DLAYER
10
-3.7302666940501066
20
-12.130694957270043
30
0.0
 70
     32
  0
VERTEX
  8
MY3DLAYER
10
-4.975873842246902
20
-11.653480359319396
30
0.0
 70
     32
  0
VERTEX
  8
MY3DLAYER
10
-6.164774915583169
20
-11.0486785918319
30
0.0
 70
     32
  0
VERTEX
  8
MY3DLAYER
10
-7.283944065105896
20
-10.322915989535048
30
0.0
 70
     32
  0
VERTEX
  8
MY3DLAYER
10
-8.321119439411719
20
-9.484144159375191
30
0.0
 70
     32
  0
VERTEX
  8
MY3DLAYER
10
-9.264937528056837
20
-8.541552861047856
30
0.0
 70
     32
  0
VERTEX
  8
MY3DLAYER
10
-9.310801928937884
20
-8.451018661821452
30
0.0
 70
     32
  0
VERTEX
  8
MY3DLAYER
10
-8.566329681976473
20
-7.782271781795301
30
0.0
 70
     32
  0
VERTEX
  8
MY3DLAYER
10
-7.952440744142959
20
-8.415269309917266
30
0.0
 70
     32
  0
VERTEX
  8
MY3DLAYER
10
-7.292018577376034
20
-8.999553538906667
30
0.0
 70
     32
  0
VERTEX
  8
MY3DLAYER
10
-6.588917890750639
20
-9.53171415664323
30
0.0
 70
     32
  0
VERTEX
  8
MY3DLAYER
10
-5.847242496545814
20
-10.008645082704843
30
0.0
 70
     32
  0
VERTEX
  8
MY3DLAYER
10
-5.071321357380583
20
-10.427562597735434
30
0.0
 70
     32
  0
VERTEX
  8
MY3DLAYER
10
-4.265683319206968
20
-10.786021591276715
30
0.0
 70
     32
  0
VERTEX
  8
MY3DLAYER
10
-3.43526285713679
20
-11.081847122570364
30
0.0
 70
     32
  0
VERTEX
  8
MY3DLAYER
10
-2.5731369045677988
20
-11.316099993479947
30
0.0
 70
     32
  0
VERTEX
  8
MY3DLAYER
10
-2.375402601853957
20
-11.353699516124308
30
0.0
 70
     32
  0
VERTEX
  8
MY3DLAYER
10
-2.251584960719525
20
-11.385533175195985
30
0.0
 70
     32
  0
VERTEX
  8
MY3DLAYER
10
-1.7025172376903648
20
-11.482188066622243
30
0.0
 70
     32
  0
VERTEX
  8
MY3DLAYER
10
-0.808030851407499
20
-11.581439272263667
30
0.0
 70
     32
  0
VERTEX
  8
MY3DLAYER
10
0.08461762771006254
20
-11.61100145388532
30
0.0
 70
     32
  0
VERTEX
  8
MY3DLAYER
10
0.9768793873415182
20
-11.571451711123677
30
0.0
 70
     32
  0
VERTEX
  8
MY3DLAYER
10
1.863411554442195
20
-11.46302686826516
30
0.0
 70
     32
  0
VERTEX
  8
MY3DLAYER
10
2.738905564829347
20
-11.286376174438768
30
0.0
 70
     32
  0
VERTEX
  8
MY3DLAYER
10
3.598118950921726
20
-11.042557415905286
30
0.0
 70
     32
  0
VERTEX
  8
MY3DLAYER
10
4.435906733692015
20
-10.733030582021756
30
0.0
 70
     32
  0
VERTEX
  8
MY3DLAYER
10
5.2472522308568195
20
-10.359649122809431
30
0.0
 70
     32
  0
VERTEX
  8
MY3DLAYER
10
6.0272970968242445
20
-9.924648850475062
30
0.0
 70
     32
  0
VERTEX
  8
MY3DLAYER
10
6.771370414519797
20
-9.430634551343273
30
0.0
 70
     32
  0
VERTEX
  8
MY3DLAYER
10
7.475016664888136
20
-8.88056438836795
30
0.0
 70
     32
  0
VERTEX
  8
MY3DLAYER
10
8.13402240658935
20
-8.27773218762054
30
0.0
 70
     32
  0
VERTEX
  8
MY3DLAYER
10
8.744441506131091
20
-7.625747714824009
30
0.0
 70
     32
  0
VERTEX
  8
MY3DLAYER
10
9.30261876735856
20
-6.928515060036723
30
0.0
 70
     32
  0
VERTEX
  8
MY3DLAYER
10
9.805211818808486
20
-6.190209259919074
30
0.0
 70
     32
  0
VERTEX
  8
MY3DLAYER
10
10.249211127865545
20
-5.415251297568874
30
0.0
 70
     32
  0
VERTEX
  8
MY3DLAYER
10
10.631958021876105
20
-4.6082816296268945
30
0.0
 70
     32
  0
VERTEX
  8
MY3DLAYER
10
10.95116060830879
20
-3.774132399172418
30
0.0
 70
     32
  0
VERTEX
  8
MY3DLAYER
10
11.204907498631664
20
-2.917798500798311
30
0.0
 70
     32
  0
VERTEX
  8
MY3DLAYER
10
11.391679253727421
20
-2.0444076711283565
30
0.0
 70
     32
  0
VERTEX
  8
MY3DLAYER
10
11.509448371462273
20
-1.1659708185646633
30
0.0
 70
     32
  0
VERTEX
  8
MY3DLAYER
10
11.560702953961329
20
0.047544926380242256
30
0.0
 70
     32
  0
VERTEX
  8
MY3DLAYER
10
11.48206950951107
20
1.2921039474532956
30
0.0
 70
     32
  0
VERTEX
  8
MY3DLAYER
10
11.27013407090283
20
2.5197060965862925
30
0.0
 70
     32
  0
SEQEND
  0
POLYLINE
 8
Top layer
 66
     1
70
    8
 10
0.0
 20
 0.0
 30
0.0
  0
VERTEX
  8
MY3DLAYER
10
5.1385006084136435
20
10.008785180494728
30
0.0
 70
     32
  0
VERTEX
  8
MY3DLAYER
10
5.155781192116655
20
10.203810375922604
30
0.0
 70
     32
  0
VERTEX
  8
MY3DLAYER
10
5.22294918906032
20
10.387717704790635
30
0.0
 70
     32
  0
VERTEX
  8
MY3DLAYER
10
5.33542721125329
20
10.547974186557694
30
0.0
 70
     32
  0
VERTEX
  8
MY3DLAYER
10
5.485550067361833
20
10.673658606827717
30
0.0
 70
     32
  0
VERTEX
  8
MY3DLAYER
10
5.663087132831906
20
10.756205780062624
30
0.0
 70
     32
  0
VERTEX
  8
MY3DLAYER
10
5.8559395500455915
20
10.78999025282211
30
0.0
 70
     32
  0
VERTEX
  8
MY3DLAYER
10
6.050964745473467
20
10.772709669119099
30
0.0
 70
     32
  0
VERTEX
  8
MY3DLAYER
10
6.234872074341499
20
10.705541672175434
30
0.0
 70
     32
  0
VERTEX
  8
MY3DLAYER
10
6.395128556108559
20
10.593063649982465
30
0.0
 70
     32
  0
VERTEX
  8
MY3DLAYER
10
6.52081297637858
20
10.44294079387392
30
0.0
 70
     32
  0
VERTEX
  8
MY3DLAYER
10
6.603360149613488
20
10.265403728403848
30
0.0
 70
     32
  0
VERTEX
  8
MY3DLAYER
10
6.637144622372975
20
10.072551311190162
30
0.0
 70
     32
  0
VERTEX
  8
MY3DLAYER
10
6.619864038669962
20
9.877526115762286
30
0.0
 70
     32
  0
VERTEX
  8
MY3DLAYER
10
6.552696041726297
20
9.693618786894254
30
0.0
 70
     32
  0
VERTEX
  8
MY3DLAYER
10
6.440218019533329
20
9.533362305127195
30
0.0
 70
     32
  0
VERTEX
  8
MY3DLAYER
10
6.290095163424785
20
9.407677884857174
30
0.0
 70
     32
  0
VERTEX
  8
MY3DLAYER
10
6.112558097954713
20
9.325130711622267
30
0.0
 70
     32
  0
VERTEX
  8
MY3DLAYER
10
5.919705680741027
20
9.291346238862781
30
0.0
 70
     32
  0
VERTEX
  8
MY3DLAYER
10
5.72468048531315
20
9.308626822565792
30
0.0
 70
     32
  0
VERTEX
  8
MY3DLAYER
10
5.54077315644512
20
9.375794819509457
30
0.0
 70
     32
  0
VERTEX
  8
MY3DLAYER
10
5.380516674678059
20
9.488272841702425
30
0.0
 70
     32
  0
VERTEX
  8
MY3DLAYER
10
5.254832254408037
20
9.638395697810969
30
0.0
 70
     32
  0
VERTEX
  8
MY3DLAYER
10
5.172285081173131
20
9.81593276328104
30
0.0
 70
     32
  0
VERTEX
  8
MY3DLAYER
10
5.1385006084136435
20
10.008785180494728
30
0.0
 70
     32
  0
SEQEND
  0
POLYLINE
 8
Top layer
 66
     1
70
    8
 10
0.0
 20
 0.0
 30
0.0
  0
VERTEX
  8
MY3DLAYER
10
1.3691258371867199
20
11.370023363301105
30
0.0
 70
     32
  0
VERTEX
  8
MY3DLAYER
10
1.394429796104802
20
11.56417061434492
30
0.0
 70
     32
  0
VERTEX
  8
MY3DLAYER
10
1.4691205496555744
20
11.745153311746677
30
0.0
 70
     32
  0
VERTEX
  8
MY3DLAYER
10
1.5881080464168589
20
11.900637783766495
30
0.0
 70
     32
  0
VERTEX
  8
MY3DLAYER
10
1.74328348512051
20
12.020028020586462
30
0.0
 70
     32
  0
VERTEX
  8
MY3DLAYER
10
1.9240719160584092
20
12.095187774868993
30
0.0
 70
     32
  0
VERTEX
  8
MY3DLAYER
10
2.118152906429149
20
12.1209950335671
30
0.0
 70
     32
  0
VERTEX
  8
MY3DLAYER
10
2.3123001574729645
20
12.095691074649016
30
0.0
 70
     32
  0
VERTEX
  8
MY3DLAYER
10
2.4932828548747215
20
12.021000321098244
30
0.0
 70
     32
  0
VERTEX
  8
MY3DLAYER
10
2.648767326894539
20
11.90201282433696
30
0.0
 70
     32
  0
VERTEX
  8
MY3DLAYER
10
2.768157563714506
20
11.74683738563331
30
0.0
 70
     32
  0
VERTEX
  8
MY3DLAYER
10
2.843317317997037
20
11.56604895469541
30
0.0
 70
     32
  0
VERTEX
  8
MY3DLAYER
10
2.8691245766951434
20
11.37196796432467
30
0.0
 70
     32
  0
VERTEX
  8
MY3DLAYER
10
2.8438206177770615
20
11.177820713280855
30
0.0
 70
     32
  0
VERTEX
  8
MY3DLAYER
10
2.7691298642262887
20
10.9968380158791
30
0.0
 70
     32
  0
VERTEX
  8
MY3DLAYER
10
2.6501423674650044
20
10.841353543859281
30
0.0
 70
     32
  0
VERTEX
  8
MY3DLAYER
10
2.4949669287613543
20
10.721963307039314
30
0.0
 70
     32
  0
VERTEX
  8
MY3DLAYER
10
2.314178497823454
20
10.646803552756783
30
0.0
 70
     32
  0
VERTEX
  8
MY3DLAYER
10
2.120097507452715
20
10.620996294058676
30
0.0
 70
     32
  0
VERTEX
  8
MY3DLAYER
10
1.9259502564088993
20
10.646300252976758
30
0.0
 70
     32
  0
VERTEX
  8
MY3DLAYER
10
1.7449675590071423
20
10.72099100652753
30
0.0
 70
     32
  0
VERTEX
  8
MY3DLAYER
10
1.5894830869873247
20
10.839978503288814
30
0.0
 70
     32
  0
VERTEX
  8
MY3DLAYER
10
1.4700928501673574
20
10.995153941992465
30
0.0
 70
     32
  0
VERTEX
  8
MY3DLAYER
10
1.3949330958848265
20
11.175942372930365
30
0.0
 70
     32
  0
VERTEX
  8
MY3DLAYER
10
1.3691258371867199
20
11.370023363301105
30
0.0
 70
     32
  0
SEQEND
  0
LINE
 8
Top layer
10
-9.276028409768344
20
8.51266012638339
30
0.0
11
-10.114800239928199
21
7.475484752077567
31
0.0
  0
LINE
 8
Top layer
10
-11.438622924377553
20
-5.199131665034243
30
0.0
11
-11.408453099229545
21
-5.229248382709161
31
0.0
  0
LINE
 8
Top layer
10
-10.105057662555419
20
-7.505469322067427
30
0.0
11
-9.310801928937884
21
-8.451018661821452
31
0.0
  0
LINE
 8
Top layer
10
-10.232888491739597
20
7.265386010461521
30
0.0
11
-10.84056284222505
21
6.356315602554838
31
0.0
  0
LINE
 8
Top layer
10
12.60190303115439
20
2.8774809487852653
30
0.0
11
12.317113668204616
21
3.9375712023489604
31
0.0
  0
POLYLINE
 8
Top layer
 66
     1
70
    8
 10
0.0
 20
 0.0
 30
0.0
  0
VERTEX
  8
MY3DLAYER
10
-6.491580078817926
20
1.596237732503472
30
0.0
 70
     32
  0
VERTEX
  8
MY3DLAYER
10
-6.47114161863087
20
1.4015181526713962
30
0.0
 70
     32
  0
VERTEX
  8
MY3DLAYER
10
-6.501796717801513
20
1.208143618878458
30
0.0
 70
     32
  0
VERTEX
  8
MY3DLAYER
10
-6.581456281981323
20
1.029292286036119
30
0.0
 70
     32
  0
VERTEX
  8
MY3DLAYER
10
-6.704691643515101
20
0.877152576911784
30
0.0
 70
     32
  0
VERTEX
  8
MY3DLAYER
10
-6.863104516170382
20
0.7620925612595182
30
0.0
 70
     32
  0
VERTEX
  8
MY3DLAYER
10
-7.045899324465362
20
0.6919533890003572
30
0.0
 70
     32
  0
VERTEX
  8
MY3DLAYER
10
-7.2406189042974365
20
0.6715149288133007
30
0.0
 70
     32
  0
VERTEX
  8
MY3DLAYER
10
-7.433993438090376
20
0.7021700279839439
30
0.0
 70
     32
  0
VERTEX
  8
MY3DLAYER
10
-7.612844770932714
20
0.7818295921637543
30
0.0
 70
     32
  0
VERTEX
  8
MY3DLAYER
10
-7.764984480057049
20
0.9050649536975315
30
0.0
 70
     32
  0
VERTEX
  8
MY3DLAYER
10
-7.880044495709314
20
1.0634778263528133
30
0.0
 70
     32
  0
VERTEX
  8
MY3DLAYER
10
-7.950183667968475
20
1.2462726346477917
30
0.0
 70
     32
  0
VERTEX
  8
MY3DLAYER
10
-7.970622128155531
20
1.440992214479868
30
0.0
 70
     32
  0
VERTEX
  8
MY3DLAYER
10
-7.9399670289848885
20
1.6343667482728057
30
0.0
 70
     32
  0
VERTEX
  8
MY3DLAYER
10
-7.860307464805079
20
1.8132180811151442
30
0.0
 70
     32
  0
VERTEX
  8
MY3DLAYER
10
-7.7370721032713
20
1.9653577902394797
30
0.0
 70
     32
  0
VERTEX
  8
MY3DLAYER
10
-7.57865923061602
20
2.0804178058917455
30
0.0
 70
     32
  0
VERTEX
  8
MY3DLAYER
10
-7.395864422321042
20
2.150556978150906
30
0.0
 70
     32
  0
VERTEX
  8
MY3DLAYER
10
-7.201144842488965
20
2.1709954383379633
30
0.0
 70
     32
  0
VERTEX
  8
MY3DLAYER
10
-7.007770308696026
20
2.1403403391673197
30
0.0
 70
     32
  0
VERTEX
  8
MY3DLAYER
10
-6.8289189758536875
20
2.06068077498751
30
0.0
 70
     32
  0
VERTEX
  8
MY3DLAYER
10
-6.676779266729354
20
1.9374454134537322
30
0.0
 70
     32
  0
VERTEX
  8
MY3DLAYER
10
-6.561719251077087
20
1.7790325407984509
30
0.0
 70
     32
  0
VERTEX
  8
MY3DLAYER
10
-6.491580078817926
20
1.596237732503472
30
0.0
 70
     32
  0
SEQEND
  0
POLYLINE
 8
Top layer
 66
     1
70
    8
 10
0.0
 20
 0.0
 30
0.0
  0
VERTEX
  8
MY3DLAYER
10
-8.236004641013539
20
-6.067991743741247
30
0.0
 70
     32
  0
VERTEX
  8
MY3DLAYER
10
-8.305801105931165
20
-6.250917682060012
30
0.0
 70
     32
  0
VERTEX
  8
MY3DLAYER
10
-8.420564030658925
20
-6.409545915778758
30
0.0
 70
     32
  0
VERTEX
  8
MY3DLAYER
10
-8.572472511531322
20
-6.533066192915101
30
0.0
 70
     32
  0
VERTEX
  8
MY3DLAYER
10
-8.751174236617535
20
-6.61306081070911
30
0.0
 70
     32
  0
VERTEX
  8
MY3DLAYER
10
-8.944490978671503
20
-6.644078268155478
30
0.0
 70
     32
  0
VERTEX
  8
MY3DLAYER
10
-9.139248521193272
20
-6.62400477678801
30
0.0
 70
     32
  0
VERTEX
  8
MY3DLAYER
10
-9.322174459512038
20
-6.554208311870383
30
0.0
 70
     32
  0
VERTEX
  8
MY3DLAYER
10
-9.480802693230782
20
-6.439445387142623
30
0.0
 70
     32
  0
VERTEX
  8
MY3DLAYER
10
-9.604322970367125
20
-6.287536906270227
30
0.0
 70
     32
  0
VERTEX
  8
MY3DLAYER
10
-9.684317588161134
20
-6.108835181184014
30
0.0
 70
     32
  0
VERTEX
  8
MY3DLAYER
10
-9.715335045607501
20
-5.915518439130045
30
0.0
 70
     32
  0
VERTEX
  8
MY3DLAYER
10
-9.695261554240034
20
-5.720760896608276
30
0.0
 70
     32
  0
VERTEX
  8
MY3DLAYER
10
-9.625465089322407
20
-5.537834958289512
30
0.0
 70
     32
  0
VERTEX
  8
MY3DLAYER
10
-9.51070216459465
20
-5.379206724570766
30
0.0
 70
     32
  0
VERTEX
  8
MY3DLAYER
10
-9.358793683722253
20
-5.255686447434424
30
0.0
 70
     32
  0
VERTEX
  8
MY3DLAYER
10
-9.180091958636039
20
-5.1756918296404155
30
0.0
 70
     32
  0
VERTEX
  8
MY3DLAYER
10
-8.98677521658207
20
-5.144674372194046
30
0.0
 70
     32
  0
VERTEX
  8
MY3DLAYER
10
-8.792017674060302
20
-5.164747863561515
30
0.0
 70
     32
  0
VERTEX
  8
MY3DLAYER
10
-8.609091735741535
20
-5.234544328479141
30
0.0
 70
     32
  0
VERTEX
  8
MY3DLAYER
10
-8.45046350202279
20
-5.3493072532069
30
0.0
 70
     32
  0
VERTEX
  8
MY3DLAYER
10
-8.365770341743849
20
-5.4534651260398395
30
0.0
 70
     32
  0
VERTEX
  8
MY3DLAYER
10
-8.326943224886449
20
-5.501215734079297
30
0.0
 70
     32
  0
VERTEX
  8
MY3DLAYER
10
-8.3095989567387
20
-5.539961473778208
30
0.0
 70
     32
  0
VERTEX
  8
MY3DLAYER
10
-8.24694860709244
20
-5.67991745916551
30
0.0
 70
     32
  0
VERTEX
  8
MY3DLAYER
10
-8.215931149646071
20
-5.873234201219479
30
0.0
 70
     32
  0
VERTEX
  8
MY3DLAYER
10
-8.236004641013539
20
-6.067991743741247
30
0.0
 70
     32
  0
SEQEND
  0
LINE
 8
Top layer
10
-2.0438397545942726
20
12.520915706474156
30
0.0
11
-2.457813461317099
21
12.455072710752047
31
0.0
  0
LINE
 8
Top layer
10
-11.408453099229545
20
-5.229248382709161
30
0.0
11
-10.832275310907468
21
-6.387245090501386
31
0.0
  0
LINE
 8
Top layer
10
-10.832275310907468
20
-6.387245090501386
30
0.0
11
-10.105057662555419
21
-7.505469322067427
31
0.0
  0
POLYLINE
 8
Top layer
 66
     1
70
    8
 10
0.0
 20
 0.0
 30
0.0
  0
VERTEX
  8
MY3DLAYER
10
2.1213203435596424
20
2.121320343559643
30
0.0
 70
     32
  0
VERTEX
  8
MY3DLAYER
10
2.5980762113533156
20
1.5
30
0.0
 70
     32
  0
VERTEX
  8
MY3DLAYER
10
2.897777478867205
20
0.7764571353075622
30
0.0
 70
     32
  0
VERTEX
  8
MY3DLAYER
10
3.0
20
0.0
30
0.0
 70
     32
  0
VERTEX
  8
MY3DLAYER
10
2.897777478867204
20
-0.7764571353075648
30
0.0
 70
     32
  0
VERTEX
  8
MY3DLAYER
10
2.598076211353315
20
-1.5000000000000016
30
0.0
 70
     32
  0
VERTEX
  8
MY3DLAYER
10
2.121320343559642
20
-2.1213203435596433
30
0.0
 70
     32
  0
VERTEX
  8
MY3DLAYER
10
1.499999999999998
20
-2.5980762113533173
30
0.0
 70
     32
  0
VERTEX
  8
MY3DLAYER
10
0.7764571353075608
20
-2.897777478867205
30
0.0
 70
     32
  0
VERTEX
  8
MY3DLAYER
10
-5.510910596163089e-16
20
-3.0
30
0.0
 70
     32
  0
VERTEX
  8
MY3DLAYER
10
-0.7764571353075645
20
-2.8977774788672046
30
0.0
 70
     32
  0
VERTEX
  8
MY3DLAYER
10
-1.5000000000000013
20
-2.5980762113533156
30
0.0
 70
     32
  0
VERTEX
  8
MY3DLAYER
10
-2.1213203435596437
20
-2.1213203435596415
30
0.0
 70
     32
  0
VERTEX
  8
MY3DLAYER
10
-2.598076211353316
20
-1.4999999999999991
30
0.0
 70
     32
  0
VERTEX
  8
MY3DLAYER
10
-2.897777478867205
20
-0.7764571353075611
30
0.0
 70
     32
  0
VERTEX
  8
MY3DLAYER
10
-3.0
20
3.67394039744206e-16
30
0.0
 70
     32
  0
VERTEX
  8
MY3DLAYER
10
-2.8977774788672046
20
0.7764571353075631
30
0.0
 70
     32
  0
VERTEX
  8
MY3DLAYER
10
-2.5980762113533156
20
1.500000000000001
30
0.0
 70
     32
  0
VERTEX
  8
MY3DLAYER
10
-2.1213203435596424
20
2.121320343559643
30
0.0
 70
     32
  0
VERTEX
  8
MY3DLAYER
10
-1.4999999999999991
20
2.598076211353316
30
0.0
 70
     32
  0
VERTEX
  8
MY3DLAYER
10
-0.7764571353075619
20
2.897777478867205
30
0.0
 70
     32
  0
VERTEX
  8
MY3DLAYER
10
1.8369701987210297e-16
20
3.0
30
0.0
 70
     32
  0
VERTEX
  8
MY3DLAYER
10
0.7764571353075629
20
2.897777478867205
30
0.0
 70
     32
  0
VERTEX
  8
MY3DLAYER
10
1.5000000000000002
20
2.5980762113533156
30
0.0
 70
     32
  0
VERTEX
  8
MY3DLAYER
10
2.1213203435596424
20
2.121320343559643
30
0.0
 70
     32
  0
SEQEND
  0
LINE
 8
Top layer
10
-11.64507358389161
20
4.514834011999749
30
0.0
11
-11.688767796002924
21
4.532092914919331
31
0.0
  0
LINE
 8
Top layer
10
-10.114800239928199
20
7.475484752077567
30
0.0
11
-10.232888491739597
21
7.265386010461521
31
0.0
  0
POLYLINE
 8
Top layer
 66
     1
70
    8
 10
0.0
 20
 0.0
 30
0.0
  0
VERTEX
  8
MY3DLAYER
10
-9.186725191250922
20
-2.3423996108538256
30
0.0
 70
     32
  0
VERTEX
  8
MY3DLAYER
10
-9.604449432155448
20
-2.7397890810489978
30
0.0
 70
     32
  0
VERTEX
  8
MY3DLAYER
10
-9.781476007338059
20
-2.0791169081775855
30
0.0
 70
     32
  0
VERTEX
  8
MY3DLAYER
10
-9.945218953682733
20
-1.04528463267653
30
0.0
 70
     32
  0
VERTEX
  8
MY3DLAYER
10
-10.0
20
1.8369701987210296e-15
30
0.0
 70
     32
  0
VERTEX
  8
MY3DLAYER
10
-9.945218953682733
20
1.0452846326765424
30
0.0
 70
     32
  0
VERTEX
  8
MY3DLAYER
10
-9.781476007338057
20
2.0791169081775975
30
0.0
 70
     32
  0
VERTEX
  8
MY3DLAYER
10
-9.655515076900365
20
2.549209500339708
30
0.0
 70
     32
  0
VERTEX
  8
MY3DLAYER
10
-9.271867512358684
20
2.2080941440066972
30
0.0
 70
     32
  0
VERTEX
  8
MY3DLAYER
10
-8.895920322950891
20
1.7276117450695307
30
0.0
 70
     32
  0
VERTEX
  8
MY3DLAYER
10
-8.612108431249258
20
1.1875650479767963
30
0.0
 70
     32
  0
VERTEX
  8
MY3DLAYER
10
-8.429610224485103
20
0.6054189929013536
30
0.0
 70
     32
  0
VERTEX
  8
MY3DLAYER
10
-8.354327637213249
20
0.0
30
0.0
 70
     32
  0
VERTEX
  8
MY3DLAYER
10
-8.392492673854472
20
-0.6342144915242925
30
0.0
 70
     32
  0
VERTEX
  8
MY3DLAYER
10
-8.548244783232619
20
-1.2501900362543565
30
0.0
 70
     32
  0
VERTEX
  8
MY3DLAYER
10
-8.81612090539499
20
-1.8263210755644197
30
0.0
 70
     32
  0
VERTEX
  8
MY3DLAYER
10
-9.186725191250922
20
-2.3423996108538256
30
0.0
 70
     32
  0
SEQEND
  0
POLYLINE
 8
Top layer
 66
     1
70
    8
 10
0.0
 20
 0.0
 30
0.0
  0
VERTEX
  8
MY3DLAYER
10
-9.271867512358684
20
2.2080941440066972
30
0.0
 70
     32
  0
VERTEX
  8
MY3DLAYER
10
-9.655515076900365
20
2.549209500339708
30
0.0
 70
     32
  0
VERTEX
  8
MY3DLAYER
10
-9.510565162951535
20
3.0901699437494754
30
0.0
 70
     32
  0
VERTEX
  8
MY3DLAYER
10
-9.135454576426005
20
4.067366430758009
30
0.0
 70
     32
  0
VERTEX
  8
MY3DLAYER
10
-8.660254037844386
20
5.000000000000004
30
0.0
 70
     32
  0
VERTEX
  8
MY3DLAYER
10
-8.090169943749475
20
5.877852522924733
30
0.0
 70
     32
  0
VERTEX
  8
MY3DLAYER
10
-7.431448254773939
20
6.691306063588585
30
0.0
 70
     32
  0
VERTEX
  8
MY3DLAYER
10
-6.691306063588579
20
7.4314482547739455
30
0.0
 70
     32
  0
VERTEX
  8
MY3DLAYER
10
-5.87785252292473
20
8.090169943749475
30
0.0
 70
     32
  0
VERTEX
  8
MY3DLAYER
10
-4.999999999999997
20
8.660254037844389
30
0.0
 70
     32
  0
VERTEX
  8
MY3DLAYER
10
-4.067366430757998
20
9.13545457642601
30
0.0
 70
     32
  0
VERTEX
  8
MY3DLAYER
10
-3.090169943749473
20
9.510565162951536
30
0.0
 70
     32
  0
VERTEX
  8
MY3DLAYER
10
-2.079116908177591
20
9.781476007338057
30
0.0
 70
     32
  0
VERTEX
  8
MY3DLAYER
10
-1.0452846326765306
20
9.945218953682733
30
0.0
 70
     32
  0
VERTEX
  8
MY3DLAYER
10
1.2246467991473533e-15
20
10.0
30
0.0
 70
     32
  0
VERTEX
  8
MY3DLAYER
10
1.0452846326765375
20
9.945218953682733
30
0.0
 70
     32
  0
VERTEX
  8
MY3DLAYER
10
2.0791169081775975
20
9.781476007338057
30
0.0
 70
     32
  0
VERTEX
  8
MY3DLAYER
10
3.090169943749475
20
9.510565162951535
30
0.0
 70
     32
  0
VERTEX
  8
MY3DLAYER
10
4.067366430758004
20
9.135454576426008
30
0.0
 70
     32
  0
VERTEX
  8
MY3DLAYER
10
5.0000000000000036
20
8.660254037844386
30
0.0
 70
     32
  0
VERTEX
  8
MY3DLAYER
10
5.877852522924733
20
8.090169943749475
30
0.0
 70
     32
  0
VERTEX
  8
MY3DLAYER
10
6.691306063588583
20
7.431448254773941
30
0.0
 70
     32
  0
VERTEX
  8
MY3DLAYER
10
7.4314482547739455
20
6.691306063588579
30
0.0
 70
     32
  0
VERTEX
  8
MY3DLAYER
10
8.090169943749475
20
5.87785252292473
30
0.0
 70
     32
  0
VERTEX
  8
MY3DLAYER
10
8.660254037844387
20
4.999999999999998
30
0.0
 70
     32
  0
VERTEX
  8
MY3DLAYER
10
9.135454576426008
20
4.0673664307580015
30
0.0
 70
     32
  0
VERTEX
  8
MY3DLAYER
10
9.510565162951536
20
3.090169943749473
30
0.0
 70
     32
  0
VERTEX
  8
MY3DLAYER
10
9.781476007338057
20
2.079116908177591
30
0.0
 70
     32
  0
VERTEX
  8
MY3DLAYER
10
9.945218953682733
20
1.0452846326765333
30
0.0
 70
     32
  0
VERTEX
  8
MY3DLAYER
10
10.0
20
-6.123233995736766e-16
30
0.0
 70
     32
  0
VERTEX
  8
MY3DLAYER
10
9.945218953682733
20
-1.0452846326765368
30
0.0
 70
     32
  0
VERTEX
  8
MY3DLAYER
10
9.781476007338057
20
-2.0791169081775944
30
0.0
 70
     32
  0
VERTEX
  8
MY3DLAYER
10
9.510565162951535
20
-3.0901699437494745
30
0.0
 70
     32
  0
VERTEX
  8
MY3DLAYER
10
9.135454576426008
20
-4.067366430758004
30
0.0
 70
     32
  0
VERTEX
  8
MY3DLAYER
10
8.660254037844386
20
-5.000000000000002
30
0.0
 70
     32
  0
VERTEX
  8
MY3DLAYER
10
8.090169943749475
20
-5.877852522924732
30
0.0
 70
     32
  0
VERTEX
  8
MY3DLAYER
10
7.431448254773941
20
-6.691306063588582
30
0.0
 70
     32
  0
VERTEX
  8
MY3DLAYER
10
6.691306063588582
20
-7.431448254773944
30
0.0
 70
     32
  0
VERTEX
  8
MY3DLAYER
10
5.877852522924732
20
-8.090169943749475
30
0.0
 70
     32
  0
VERTEX
  8
MY3DLAYER
10
4.999999999999999
20
-8.660254037844387
30
0.0
 70
     32
  0
VERTEX
  8
MY3DLAYER
10
4.0673664307580015
20
-9.135454576426008
30
0.0
 70
     32
  0
VERTEX
  8
MY3DLAYER
10
3.090169943749474
20
-9.510565162951535
30
0.0
 70
     32
  0
VERTEX
  8
MY3DLAYER
10
2.079116908177593
20
-9.781476007338057
30
0.0
 70
     32
  0
VERTEX
  8
MY3DLAYER
10
1.0452846326765346
20
-9.945218953682733
30
0.0
 70
     32
  0
VERTEX
  8
MY3DLAYER
10
0.0
20
-10.0
30
0.0
 70
     32
  0
VERTEX
  8
MY3DLAYER
10
-1.045284632676543
20
-9.945218953682733
30
0.0
 70
     32
  0
VERTEX
  8
MY3DLAYER
10
-2.079116908177599
20
-9.781476007338057
30
0.0
 70
     32
  0
VERTEX
  8
MY3DLAYER
10
-3.0901699437494767
20
-9.510565162951535
30
0.0
 70
     32
  0
VERTEX
  8
MY3DLAYER
10
-4.067366430758009
20
-9.135454576426005
30
0.0
 70
     32
  0
VERTEX
  8
MY3DLAYER
10
-5.000000000000004
20
-8.660254037844384
30
0.0
 70
     32
  0
VERTEX
  8
MY3DLAYER
10
-5.877852522924734
20
-8.090169943749475
30
0.0
 70
     32
  0
VERTEX
  8
MY3DLAYER
10
-6.691306063588588
20
-7.431448254773937
30
0.0
 70
     32
  0
VERTEX
  8
MY3DLAYER
10
-7.4314482547739455
20
-6.691306063588578
30
0.0
 70
     32
  0
VERTEX
  8
MY3DLAYER
10
-8.090169943749475
20
-5.877852522924729
30
0.0
 70
     32
  0
VERTEX
  8
MY3DLAYER
10
-8.24694860709244
20
-5.67991745916551
30
0.0
 70
     32
  0
VERTEX
  8
MY3DLAYER
10
-8.3095989567387
20
-5.539961473778208
30
0.0
 70
     32
  0
VERTEX
  8
MY3DLAYER
10
-8.326943224886449
20
-5.501215734079297
30
0.0
 70
     32
  0
VERTEX
  8
MY3DLAYER
10
-8.365770341743849
20
-5.4534651260398395
30
0.0
 70
     32
  0
VERTEX
  8
MY3DLAYER
10
-8.45046350202279
20
-5.3493072532069
30
0.0
 70
     32
  0
VERTEX
  8
MY3DLAYER
10
-8.66025403784439
20
-4.999999999999994
30
0.0
 70
     32
  0
VERTEX
  8
MY3DLAYER
10
-9.13545457642601
20
-4.067366430757998
30
0.0
 70
     32
  0
VERTEX
  8
MY3DLAYER
10
-9.510565162951536
20
-3.0901699437494723
30
0.0
 70
     32
  0
VERTEX
  8
MY3DLAYER
10
-9.604449432155448
20
-2.7397890810489978
30
0.0
 70
     32
  0
VERTEX
  8
MY3DLAYER
10
-9.186725191250922
20
-2.3423996108538256
30
0.0
 70
     32
  0
VERTEX
  8
MY3DLAYER
10
-8.81612090539499
20
-1.8263210755644197
30
0.0
 70
     32
  0
VERTEX
  8
MY3DLAYER
10
-8.548244783232619
20
-1.2501900362543565
30
0.0
 70
     32
  0
VERTEX
  8
MY3DLAYER
10
-8.392492673854472
20
-0.6342144915242925
30
0.0
 70
     32
  0
VERTEX
  8
MY3DLAYER
10
-8.354327637213249
20
0.0
30
0.0
 70
     32
  0
VERTEX
  8
MY3DLAYER
10
-8.429610224485103
20
0.6054189929013536
30
0.0
 70
     32
  0
VERTEX
  8
MY3DLAYER
10
-8.612108431249258
20
1.1875650479767963
30
0.0
 70
     32
  0
VERTEX
  8
MY3DLAYER
10
-8.895920322950891
20
1.7276117450695307
30
0.0
 70
     32
  0
VERTEX
  8
MY3DLAYER
10
-9.271867512358684
20
2.2080941440066972
30
0.0
 70
     32
  0
SEQEND
  0
POLYLINE
 8
Top layer
 66
     1
70
    8
 10
0.0
 20
 0.0
 30
0.0
  0
VERTEX
  8
MY3DLAYER
10
2.5980762113533156
20
1.5
30
0.0
 70
     32
  0
VERTEX
  8
MY3DLAYER
10
2.1213203435596424
20
2.121320343559643
30
0.0
 70
     32
  0
VERTEX
  8
MY3DLAYER
10
1.5000000000000002
20
2.5980762113533156
30
0.0
 70
     32
  0
VERTEX
  8
MY3DLAYER
10
0.7764571353075629
20
2.897777478867205
30
0.0
 70
     32
  0
VERTEX
  8
MY3DLAYER
10
1.8369701987210297e-16
20
3.0
30
0.0
 70
     32
  0
VERTEX
  8
MY3DLAYER
10
-0.7764571353075619
20
2.897777478867205
30
0.0
 70
     32
  0
VERTEX
  8
MY3DLAYER
10
-1.4999999999999991
20
2.598076211353316
30
0.0
 70
     32
  0
VERTEX
  8
MY3DLAYER
10
-2.1213203435596424
20
2.121320343559643
30
0.0
 70
     32
  0
VERTEX
  8
MY3DLAYER
10
-2.5980762113533156
20
1.500000000000001
30
0.0
 70
     32
  0
VERTEX
  8
MY3DLAYER
10
-2.8977774788672046
20
0.7764571353075631
30
0.0
 70
     32
  0
VERTEX
  8
MY3DLAYER
10
-3.0
20
3.67394039744206e-16
30
0.0
 70
     32
  0
VERTEX
  8
MY3DLAYER
10
-2.897777478867205
20
-0.7764571353075611
30
0.0
 70
     32
  0
VERTEX
  8
MY3DLAYER
10
-2.598076211353316
20
-1.4999999999999991
30
0.0
 70
     32
  0
VERTEX
  8
MY3DLAYER
10
-2.1213203435596437
20
-2.1213203435596415
30
0.0
 70
     32
  0
VERTEX
  8
MY3DLAYER
10
-1.5000000000000013
20
-2.5980762113533156
30
0.0
 70
     32
  0
VERTEX
  8
MY3DLAYER
10
-0.7764571353075645
20
-2.8977774788672046
30
0.0
 70
     32
  0
VERTEX
  8
MY3DLAYER
10
-5.510910596163089e-16
20
-3.0
30
0.0
 70
     32
  0
VERTEX
  8
MY3DLAYER
10
0.7764571353075608
20
-2.897777478867205
30
0.0
 70
     32
  0
VERTEX
  8
MY3DLAYER
10
1.499999999999998
20
-2.5980762113533173
30
0.0
 70
     32
  0
VERTEX
  8
MY3DLAYER
10
2.121320343559642
20
-2.1213203435596433
30
0.0
 70
     32
  0
VERTEX
  8
MY3DLAYER
10
2.598076211353315
20
-1.5000000000000016
30
0.0
 70
     32
  0
VERTEX
  8
MY3DLAYER
10
2.897777478867204
20
-0.7764571353075648
30
0.0
 70
     32
  0
VERTEX
  8
MY3DLAYER
10
3.0
20
0.0
30
0.0
 70
     32
  0
VERTEX
  8
MY3DLAYER
10
2.897777478867205
20
0.7764571353075622
30
0.0
 70
     32
  0
VERTEX
  8
MY3DLAYER
10
2.5980762113533156
20
1.5
30
0.0
 70
     32
  0
SEQEND
  0
POLYLINE
 8
Top layer
 66
     1
70
    8
 10
0.0
 20
 0.0
 30
0.0
  0
VERTEX
  8
MY3DLAYER
10
-6.47114161863087
20
1.4015181526713962
30
0.0
 70
     32
  0
VERTEX
  8
MY3DLAYER
10
-6.491580078817926
20
1.596237732503472
30
0.0
 70
     32
  0
VERTEX
  8
MY3DLAYER
10
-6.561719251077087
20
1.7790325407984509
30
0.0
 70
     32
  0
VERTEX
  8
MY3DLAYER
10
-6.676779266729354
20
1.9374454134537322
30
0.0
 70
     32
  0
VERTEX
  8
MY3DLAYER
10
-6.8289189758536875
20
2.06068077498751
30
0.0
 70
     32
  0
VERTEX
  8
MY3DLAYER
10
-7.007770308696026
20
2.1403403391673197
30
0.0
 70
     32
  0
VERTEX
  8
MY3DLAYER
10
-7.201144842488965
20
2.1709954383379633
30
0.0
 70
     32
  0
VERTEX
  8
MY3DLAYER
10
-7.395864422321042
20
2.150556978150906
30
0.0
 70
     32
  0
VERTEX
  8
MY3DLAYER
10
-7.57865923061602
20
2.0804178058917455
30
0.0
 70
     32
  0
VERTEX
  8
MY3DLAYER
10
-7.7370721032713
20
1.9653577902394797
30
0.0
 70
     32
  0
VERTEX
  8
MY3DLAYER
10
-7.860307464805079
20
1.8132180811151442
30
0.0
 70
     32
  0
VERTEX
  8
MY3DLAYER
10
-7.9399670289848885
20
1.6343667482728057
30
0.0
 70
     32
  0
VERTEX
  8
MY3DLAYER
10
-7.970622128155531
20
1.440992214479868
30
0.0
 70
     32
  0
VERTEX
  8
MY3DLAYER
10
-7.950183667968475
20
1.2462726346477917
30
0.0
 70
     32
  0
VERTEX
  8
MY3DLAYER
10
-7.880044495709314
20
1.0634778263528133
30
0.0
 70
     32
  0
VERTEX
  8
MY3DLAYER
10
-7.764984480057049
20
0.9050649536975315
30
0.0
 70
     32
  0
VERTEX
  8
MY3DLAYER
10
-7.612844770932714
20
0.7818295921637543
30
0.0
 70
     32
  0
VERTEX
  8
MY3DLAYER
10
-7.433993438090376
20
0.7021700279839439
30
0.0
 70
     32
  0
VERTEX
  8
MY3DLAYER
10
-7.2406189042974365
20
0.6715149288133007
30
0.0
 70
     32
  0
VERTEX
  8
MY3DLAYER
10
-7.045899324465362
20
0.6919533890003572
30
0.0
 70
     32
  0
VERTEX
  8
MY3DLAYER
10
-6.863104516170382
20
0.7620925612595182
30
0.0
 70
     32
  0
VERTEX
  8
MY3DLAYER
10
-6.704691643515101
20
0.877152576911784
30
0.0
 70
     32
  0
VERTEX
  8
MY3DLAYER
10
-6.581456281981323
20
1.029292286036119
30
0.0
 70
     32
  0
VERTEX
  8
MY3DLAYER
10
-6.501796717801513
20
1.208143618878458
30
0.0
 70
     32
  0
VERTEX
  8
MY3DLAYER
10
-6.47114161863087
20
1.4015181526713962
30
0.0
 70
     32
  0
SEQEND
 0
ENDSEC
 0
EOF
