 0
SECTION
 2
ENTITIES
  0
LINE
 8
Layer0
10
-11.661022955830282
20
4.9807933617454045
30
0.0
11
-11.845073583891608
21
4.514834011999749
31
0.0
  0
LINE
 8
Layer0
10
-3.154072908101312
20
12.115651402247128
30
0.0
11
-4.075625098788992
21
11.853039631081192
31
0.0
  0
LINE
 8
Layer0
10
-8.240021097876102
20
9.540786999017822
30
0.0
11
-8.950158351439656
21
8.897414273750906
31
0.0
  0
LINE
 8
Layer0
10
-12.710410415256876
20
-0.6223826701216224
30
0.0
11
-12.647872656734206
21
-1.3803544782100747
31
0.0
  0
LINE
 8
Layer0
10
-12.714032787976693
20
-0.008754137940161688
30
0.0
11
-12.72196554260352
21
-0.19657193239043508
31
0.0
  0
LINE
 8
Layer0
10
-12.256883111672792
20
-3.455437232005686
30
0.0
11
-12.228050429842579
21
-3.494886365813191
31
0.0
  0
LINE
 8
Layer0
10
-10.75837115057376
20
6.6698030781523725
30
0.0
11
-11.241980078617123
21
5.842551129086718
31
0.0
  0
LINE
 8
Layer0
10
-8.950158351439656
20
8.897414273750906
30
0.0
11
-9.609106309912677
21
8.20170530403699
31
0.0
  0
LINE
 8
Layer0
10
-11.241980078617123
20
5.842551129086718
30
0.0
11
-11.661022955830282
21
4.9807933617454045
31
0.0
  0
LINE
 8
Layer0
10
-12.72196554260352
20
-0.19657193239043508
30
0.0
11
-12.711982506860268
21
-0.35607096294515855
31
0.0
  0
LINE
 8
Layer0
10
-4.974439352488032
20
11.520840413948456
30
0.0
11
-5.845269528722283
21
11.120992709595926
31
0.0
  0
LINE
 8
Layer0
10
-2.2151616362103375
20
12.30714293217009
30
0.0
11
-3.154072908101312
21
12.115651402247128
31
0.0
  0
LINE
 8
Layer0
10
-6.683032822655717
20
10.655830323053365
30
0.0
11
-7.482839432076527
21
10.12806828383213
31
0.0
  0
LINE
 8
Layer0
10
-9.609106309912677
20
8.20170530403699
30
0.0
11
-10.213018868783148
21
7.45772075866344
31
0.0
  0
LINE
 8
Layer0
10
-12.257185211655587
20
3.258533041227962
30
0.0
11
-12.296018319760641
21
3.1740518220012857
31
0.0
  0
LINE
 8
Layer0
10
-12.666564286916607
20
1.115121437993278
30
0.0
11
-12.6748030730949
21
0.9200579673898629
31
0.0
  0
LINE
 8
Layer0
10
-11.600601628039275
20
-5.2545561046457845
30
0.0
11
-11.171414050715402
21
-6.111306596905362
31
0.0
  0
LINE
 8
Layer0
10
-12.716066998679766
20
0.3358403652830525
30
0.0
11
-12.714032787976693
21
-0.008754137940161688
31
0.0
  0
LINE
 8
Layer0
10
-12.474357232820495
20
2.4138382067292445
30
0.0
11
-12.4849525500433
21
2.342247097797029
31
0.0
  0
LINE
 8
Layer0
10
-10.678072297755442
20
-6.932791409487165
30
0.0
11
-10.123455874160703
21
-7.7142157533587605
31
0.0
  0
LINE
 8
Layer0
10
-10.123455874160703
20
-7.7142157533587605
30
0.0
11
-9.510801928937882
21
-8.451018661821452
31
0.0
  0
LINE
 8
Layer0
10
-4.075625098788992
20
11.853039631081192
30
0.0
11
-4.974439352488032
21
11.520840413948456
31
0.0
  0
LINE
 8
Layer0
10
-7.482839432076527
20
10.12806828383213
30
0.0
11
-8.240021097876102
21
9.540786999017822
31
0.0
  0
LINE
 8
Layer0
10
-12.648553676777622
20
1.2916987930232213
30
0.0
11
-12.655968969693802
21
1.1867125469254847
31
0.0
  0
LINE
 8
Layer0
10
-12.425742507897287
20
2.60292613252623
30
0.0
11
-12.474357232820495
21
2.4138382067292445
31
0.0
  0
LINE
 8
Layer0
10
-12.296018319760641
20
3.1740518220012857
30
0.0
11
-12.425742507897287
21
2.60292613252623
31
0.0
  0
LINE
 8
Layer0
10
-5.845269528722283
20
11.120992709595926
30
0.0
11
-6.683032822655717
21
10.655830323053365
31
0.0
  0
LINE
 8
Layer0
10
-10.213018868783148
20
7.45772075866344
30
0.0
11
-10.75837115057376
21
6.6698030781523725
31
0.0
  0
LINE
 8
Layer0
10
-12.50826450690907
20
2.2396135209042463
30
0.0
11
-12.648553676777622
21
1.2916987930232213
31
0.0
  0
LINE
 8
Layer0
10
-11.171414050715402
20
-6.111306596905362
30
0.0
11
-10.678072297755442
21
-6.932791409487165
31
0.0
  0
LINE
 8
Layer0
10
-12.631616942486538
20
-1.5773774194082133
30
0.0
11
-12.480146476977026
21
-2.5235698314442114
31
0.0
  0
POLYLINE
 8
Layer0
 66
     1
70
    8
 10
0.0
 20
 0.0
 30
0.0
  0
VERTEX
  8
MY3DLAYER
10
-9.937018516744155
20
-3.9793339022301866
30
0.0
 70
     32
  0
VERTEX
  8
MY3DLAYER
10
-11.809082053198692
20
-4.7444570200401035
30
0.0
 70
     32
  0
VERTEX
  8
MY3DLAYER
10
-11.963129975638305
20
-4.3675405581623625
30
0.0
 70
     32
  0
VERTEX
  8
MY3DLAYER
10
-12.228050429842579
20
-3.494886365813191
30
0.0
 70
     32
  0
VERTEX
  8
MY3DLAYER
10
-11.592721833632197
20
-3.48839282143518
30
0.0
 70
     32
  0
VERTEX
  8
MY3DLAYER
10
-10.969746218388519
20
-3.3635490226584657
30
0.0
 70
     32
  0
VERTEX
  8
MY3DLAYER
10
-10.380974672669728
20
-3.124733909583206
30
0.0
 70
     32
  0
VERTEX
  8
MY3DLAYER
10
-9.937018516744155
20
-3.9793339022301866
30
0.0
 70
     32
  0
SEQEND
  0
LINE
 8
Layer0
10
7.410280007217193
20
9.935199560468087
30
0.0
11
8.658999089397502
21
8.847645650525415
31
0.0
  0
LINE
 8
Layer0
10
-12.63502512416636
20
-1.5360694849510979
30
0.0
11
-12.631616942486538
21
-1.5773774194082133
31
0.0
  0
LINE
 8
Layer0
10
-12.4849525500433
20
2.342247097797029
30
0.0
11
-12.50826450690907
21
2.2396135209042463
31
0.0
  0
LINE
 8
Layer0
10
-12.639954012130486
20
-1.5068707173664946
30
0.0
11
-12.63502512416636
21
-1.5360694849510979
31
0.0
  0
LINE
 8
Layer0
10
10.520795062335338
20
6.489788257130458
30
0.0
11
11.16330098624848
21
5.298251691319833
31
0.0
  0
POLYLINE
 8
Layer0
 66
     1
70
    8
 10
0.0
 20
 0.0
 30
0.0
  0
VERTEX
  8
MY3DLAYER
10
1.9726785975342074
20
11.017442273219615
30
0.0
 70
     32
  0
VERTEX
  8
MY3DLAYER
10
1.8691252069409336
20
10.937982961920667
30
0.0
 70
     32
  0
VERTEX
  8
MY3DLAYER
10
1.748534729492194
20
10.888032750668355
30
0.0
 70
     32
  0
VERTEX
  8
MY3DLAYER
10
1.6191252069409325
20
10.870995663812888
30
0.0
 70
     32
  0
VERTEX
  8
MY3DLAYER
10
1.4897156843896726
20
10.888032750668355
30
0.0
 70
     32
  0
VERTEX
  8
MY3DLAYER
10
1.369125206940933
20
10.937982961920667
30
0.0
 70
     32
  0
VERTEX
  8
MY3DLAYER
10
1.2655718163476595
20
11.017442273219615
30
0.0
 70
     32
  0
VERTEX
  8
MY3DLAYER
10
1.1861125050487145
20
11.120995663812888
30
0.0
 70
     32
  0
VERTEX
  8
MY3DLAYER
10
1.1361622937963993
20
11.24158614126163
30
0.0
 70
     32
  0
VERTEX
  8
MY3DLAYER
10
1.1191252069409336
20
11.370995663812888
30
0.0
 70
     32
  0
VERTEX
  8
MY3DLAYER
10
1.1247268301294224
20
11.413544216184787
30
0.0
 70
     32
  0
VERTEX
  8
MY3DLAYER
10
1.1361622937963993
20
11.50040518636415
30
0.0
 70
     32
  0
VERTEX
  8
MY3DLAYER
10
1.1861125050487145
20
11.620995663812886
30
0.0
 70
     32
  0
VERTEX
  8
MY3DLAYER
10
1.2655718163476595
20
11.72454905440616
30
0.0
 70
     32
  0
VERTEX
  8
MY3DLAYER
10
1.369125206940933
20
11.804008365705107
30
0.0
 70
     32
  0
VERTEX
  8
MY3DLAYER
10
1.4897156843896742
20
11.853958576957421
30
0.0
 70
     32
  0
VERTEX
  8
MY3DLAYER
10
1.6191252069409325
20
11.870995663812886
30
0.0
 70
     32
  0
VERTEX
  8
MY3DLAYER
10
1.748534729492194
20
11.853958576957421
30
0.0
 70
     32
  0
VERTEX
  8
MY3DLAYER
10
1.8691252069409336
20
11.804008365705107
30
0.0
 70
     32
  0
VERTEX
  8
MY3DLAYER
10
1.9726785975342074
20
11.72454905440616
30
0.0
 70
     32
  0
VERTEX
  8
MY3DLAYER
10
2.0521379088331524
20
11.620995663812886
30
0.0
 70
     32
  0
VERTEX
  8
MY3DLAYER
10
2.102088120085467
20
11.500405186364146
30
0.0
 70
     32
  0
VERTEX
  8
MY3DLAYER
10
2.119125206940933
20
11.370995663812888
30
0.0
 70
     32
  0
VERTEX
  8
MY3DLAYER
10
2.102088120085467
20
11.24158614126163
30
0.0
 70
     32
  0
VERTEX
  8
MY3DLAYER
10
2.0521379088331524
20
11.120995663812888
30
0.0
 70
     32
  0
VERTEX
  8
MY3DLAYER
10
1.9726785975342074
20
11.017442273219615
30
0.0
 70
     32
  0
SEQEND
  0
POLYLINE
 8
Layer0
 66
     1
70
    8
 10
0.0
 20
 0.0
 30
0.0
  0
VERTEX
  8
MY3DLAYER
10
-7.59147235084194
20
1.9042180967201652
30
0.0
 70
     32
  0
VERTEX
  8
MY3DLAYER
10
-7.470881873393199
20
1.8542678854678487
30
0.0
 70
     32
  0
VERTEX
  8
MY3DLAYER
10
-7.367328482799927
20
1.7748085741689037
30
0.0
 70
     32
  0
VERTEX
  8
MY3DLAYER
10
-7.287869171500982
20
1.6712551835756315
30
0.0
 70
     32
  0
VERTEX
  8
MY3DLAYER
10
-7.237918960248668
20
1.5506647061268906
30
0.0
 70
     32
  0
VERTEX
  8
MY3DLAYER
10
-7.220881873393199
20
1.421255183575632
30
0.0
 70
     32
  0
VERTEX
  8
MY3DLAYER
10
-7.237918960248668
20
1.2918456610243705
30
0.0
 70
     32
  0
VERTEX
  8
MY3DLAYER
10
-7.287869171500982
20
1.1712551835756295
30
0.0
 70
     32
  0
VERTEX
  8
MY3DLAYER
10
-7.367328482799927
20
1.0677017929823573
30
0.0
 70
     32
  0
VERTEX
  8
MY3DLAYER
10
-7.470881873393202
20
0.9882424816834094
30
0.0
 70
     32
  0
VERTEX
  8
MY3DLAYER
10
-7.591472350841943
20
0.9382922704310959
30
0.0
 70
     32
  0
VERTEX
  8
MY3DLAYER
10
-7.682230342650613
20
0.9263437541334693
30
0.0
 70
     32
  0
VERTEX
  8
MY3DLAYER
10
-7.720881873393202
20
0.92125518357563
30
0.0
 70
     32
  0
VERTEX
  8
MY3DLAYER
10
-7.85029139594446
20
0.9382922704310959
30
0.0
 70
     32
  0
VERTEX
  8
MY3DLAYER
10
-7.970881873393203
20
0.9882424816834094
30
0.0
 70
     32
  0
VERTEX
  8
MY3DLAYER
10
-8.074435263986476
20
1.0677017929823573
30
0.0
 70
     32
  0
VERTEX
  8
MY3DLAYER
10
-8.15389457528542
20
1.1712551835756295
30
0.0
 70
     32
  0
VERTEX
  8
MY3DLAYER
10
-8.203844786537735
20
1.2918456610243705
30
0.0
 70
     32
  0
VERTEX
  8
MY3DLAYER
10
-8.220881873393203
20
1.421255183575632
30
0.0
 70
     32
  0
VERTEX
  8
MY3DLAYER
10
-8.203844786537735
20
1.5506647061268906
30
0.0
 70
     32
  0
VERTEX
  8
MY3DLAYER
10
-8.15389457528542
20
1.6712551835756315
30
0.0
 70
     32
  0
VERTEX
  8
MY3DLAYER
10
-8.074435263986476
20
1.7748085741689037
30
0.0
 70
     32
  0
VERTEX
  8
MY3DLAYER
10
-8.015005835760611
20
1.8204103783267687
30
0.0
 70
     32
  0
VERTEX
  8
MY3DLAYER
10
-7.970881873393201
20
1.8542678854678514
30
0.0
 70
     32
  0
VERTEX
  8
MY3DLAYER
10
-7.85029139594446
20
1.9042180967201652
30
0.0
 70
     32
  0
VERTEX
  8
MY3DLAYER
10
-7.720881873393202
20
1.921255183575631
30
0.0
 70
     32
  0
VERTEX
  8
MY3DLAYER
10
-7.59147235084194
20
1.9042180967201652
30
0.0
 70
     32
  0
SEQEND
  0
POLYLINE
 8
Layer0
 66
     1
70
    8
 10
0.0
 20
 0.0
 30
0.0
  0
VERTEX
  8
MY3DLAYER
10
6.1207855285378425
20
9.911258723291185
30
0.0
 70
     32
  0
VERTEX
  8
MY3DLAYER
10
6.070835317285527
20
9.790668245842445
30
0.0
 70
     32
  0
VERTEX
  8
MY3DLAYER
10
5.991376005986583
20
9.687114855249172
30
0.0
 70
     32
  0
VERTEX
  8
MY3DLAYER
10
5.887822615393309
20
9.607655543950225
30
0.0
 70
     32
  0
VERTEX
  8
MY3DLAYER
10
5.767232137944568
20
9.557705332697912
30
0.0
 70
     32
  0
VERTEX
  8
MY3DLAYER
10
5.6378226153933095
20
9.540668245842445
30
0.0
 70
     32
  0
VERTEX
  8
MY3DLAYER
10
5.508413092842048
20
9.557705332697912
30
0.0
 70
     32
  0
VERTEX
  8
MY3DLAYER
10
5.387822615393309
20
9.607655543950225
30
0.0
 70
     32
  0
VERTEX
  8
MY3DLAYER
10
5.284269224800035
20
9.687114855249172
30
0.0
 70
     32
  0
VERTEX
  8
MY3DLAYER
10
5.20480991350109
20
9.790668245842445
30
0.0
 70
     32
  0
VERTEX
  8
MY3DLAYER
10
5.154859702248775
20
9.911258723291185
30
0.0
 70
     32
  0
VERTEX
  8
MY3DLAYER
10
5.137822615393309
20
10.040668245842445
30
0.0
 70
     32
  0
VERTEX
  8
MY3DLAYER
10
5.154859702248775
20
10.170077768393707
30
0.0
 70
     32
  0
VERTEX
  8
MY3DLAYER
10
5.20480991350109
20
10.290668245842443
30
0.0
 70
     32
  0
VERTEX
  8
MY3DLAYER
10
5.284269224800035
20
10.394221636435717
30
0.0
 70
     32
  0
VERTEX
  8
MY3DLAYER
10
5.3878226153933095
20
10.473680947734664
30
0.0
 70
     32
  0
VERTEX
  8
MY3DLAYER
10
5.508413092842048
20
10.523631158986978
30
0.0
 70
     32
  0
VERTEX
  8
MY3DLAYER
10
5.6378226153933095
20
10.540668245842443
30
0.0
 70
     32
  0
VERTEX
  8
MY3DLAYER
10
5.7672321379445695
20
10.523631158986978
30
0.0
 70
     32
  0
VERTEX
  8
MY3DLAYER
10
5.887822615393309
20
10.473680947734664
30
0.0
 70
     32
  0
VERTEX
  8
MY3DLAYER
10
5.991376005986583
20
10.394221636435717
30
0.0
 70
     32
  0
VERTEX
  8
MY3DLAYER
10
6.070835317285527
20
10.290668245842443
30
0.0
 70
     32
  0
VERTEX
  8
MY3DLAYER
10
6.1207855285378425
20
10.170077768393703
30
0.0
 70
     32
  0
VERTEX
  8
MY3DLAYER
10
6.137822615393309
20
10.040668245842445
30
0.0
 70
     32
  0
VERTEX
  8
MY3DLAYER
10
6.1207855285378425
20
9.911258723291185
30
0.0
 70
     32
  0
SEQEND
  0
POLYLINE
 8
Layer0
 66
     1
70
    8
 10
0.0
 20
 0.0
 30
0.0
  0
VERTEX
  8
MY3DLAYER
10
-9.112079707033512
20
-6.2479297107680365
30
0.0
 70
     32
  0
VERTEX
  8
MY3DLAYER
10
-9.215633097626787
20
-6.327389022066981
30
0.0
 70
     32
  0
VERTEX
  8
MY3DLAYER
10
-9.336223575075525
20
-6.377339233319296
30
0.0
 70
     32
  0
VERTEX
  8
MY3DLAYER
10
-9.465633097626787
20
-6.3943763201747625
30
0.0
 70
     32
  0
VERTEX
  8
MY3DLAYER
10
-9.595042620178045
20
-6.377339233319296
30
0.0
 70
     32
  0
VERTEX
  8
MY3DLAYER
10
-9.715633097626787
20
-6.327389022066981
30
0.0
 70
     32
  0
VERTEX
  8
MY3DLAYER
10
-9.819186488220062
20
-6.2479297107680365
30
0.0
 70
     32
  0
VERTEX
  8
MY3DLAYER
10
-9.898645799519004
20
-6.144376320174762
30
0.0
 70
     32
  0
VERTEX
  8
MY3DLAYER
10
-9.94859601077132
20
-6.023785842726023
30
0.0
 70
     32
  0
VERTEX
  8
MY3DLAYER
10
-9.965633097626785
20
-5.894376320174762
30
0.0
 70
     32
  0
VERTEX
  8
MY3DLAYER
10
-9.94859601077132
20
-5.764966797623501
30
0.0
 70
     32
  0
VERTEX
  8
MY3DLAYER
10
-9.898645799519004
20
-5.6443763201747625
30
0.0
 70
     32
  0
VERTEX
  8
MY3DLAYER
10
-9.819186488220062
20
-5.540822929581488
30
0.0
 70
     32
  0
VERTEX
  8
MY3DLAYER
10
-9.715633097626787
20
-5.461363618282542
30
0.0
 70
     32
  0
VERTEX
  8
MY3DLAYER
10
-9.595042620178045
20
-5.411413407030228
30
0.0
 70
     32
  0
VERTEX
  8
MY3DLAYER
10
-9.465633097626787
20
-5.394376320174762
30
0.0
 70
     32
  0
VERTEX
  8
MY3DLAYER
10
-9.336223575075525
20
-5.411413407030228
30
0.0
 70
     32
  0
VERTEX
  8
MY3DLAYER
10
-9.215633097626785
20
-5.461363618282542
30
0.0
 70
     32
  0
VERTEX
  8
MY3DLAYER
10
-9.112079707033512
20
-5.540822929581488
30
0.0
 70
     32
  0
VERTEX
  8
MY3DLAYER
10
-9.032620395734565
20
-5.6443763201747625
30
0.0
 70
     32
  0
VERTEX
  8
MY3DLAYER
10
-8.98267018448225
20
-5.764966797623502
30
0.0
 70
     32
  0
VERTEX
  8
MY3DLAYER
10
-8.965633097626785
20
-5.894376320174762
30
0.0
 70
     32
  0
VERTEX
  8
MY3DLAYER
10
-8.98267018448225
20
-6.023785842726023
30
0.0
 70
     32
  0
VERTEX
  8
MY3DLAYER
10
-9.032620395734565
20
-6.144376320174762
30
0.0
 70
     32
  0
VERTEX
  8
MY3DLAYER
10
-9.112079707033512
20
-6.2479297107680365
30
0.0
 70
     32
  0
SEQEND
  0
LINE
 8
Layer0
10
6.029312597763073
20
10.848983926310707
30
0.0
11
7.410280007217193
21
9.935199560468087
31
0.0
  0
LINE
 8
Layer0
10
-12.711982506860268
20
-0.35607096294515855
30
0.0
11
-12.710410415256876
21
-0.6223826701216224
31
0.0
  0
LINE
 8
Layer0
10
-12.647872656734206
20
-1.3803544782100747
30
0.0
11
-12.639954012130486
21
-1.5068707173664946
31
0.0
  0
LINE
 8
Layer0
10
-12.655968969693802
20
1.1867125469254847
30
0.0
11
-12.666564286916607
21
1.115121437993278
31
0.0
  0
LINE
 8
Layer0
10
1.3420354513194337
20
12.40552016076724
30
0.0
11
2.968576759811291
21
12.094978335883013
31
0.0
  0
LINE
 8
Layer0
10
-12.6748030730949
20
0.9200579673898629
30
0.0
11
-12.716066998679766
21
0.3358403652830525
31
0.0
  0
LINE
 8
Layer0
10
-12.421428230987365
20
-2.8014190092490554
30
0.0
11
-12.365678587005018
21
-3.001341430607466
31
0.0
  0
LINE
 8
Layer0
10
9.753754242579536
20
7.605235087219466
30
0.0
11
10.520795062335338
21
6.489788257130458
31
0.0
  0
LINE
 8
Layer0
10
4.540112301085766
20
11.573107762135109
30
0.0
11
6.029312597763073
21
10.848983926310707
31
0.0
  0
LINE
 8
Layer0
10
8.658999089397502
20
8.847645650525415
30
0.0
11
9.753754242579536
21
7.605235087219466
31
0.0
  0
LINE
 8
Layer0
10
11.16330098624848
20
5.298251691319833
30
0.0
11
11.673804662567889
21
4.04447370204437
31
0.0
  0
POLYLINE
 8
Layer0
 66
     1
70
    8
 10
0.0
 20
 0.0
 30
0.0
  0
VERTEX
  8
MY3DLAYER
10
-11.018485359348249
20
3.149337053313354
30
0.0
 70
     32
  0
VERTEX
  8
MY3DLAYER
10
-11.617981579274323
20
3.262491404561449
30
0.0
 70
     32
  0
VERTEX
  8
MY3DLAYER
10
-12.228050429842583
20
3.2664439326586896
30
0.0
 70
     32
  0
VERTEX
  8
MY3DLAYER
10
-12.257185211655587
20
3.258533041227962
30
0.0
 70
     32
  0
VERTEX
  8
MY3DLAYER
10
-12.013053940049138
20
4.089559627719322
30
0.0
 70
     32
  0
VERTEX
  8
MY3DLAYER
10
-11.845073583891608
20
4.514834011999749
30
0.0
 70
     32
  0
VERTEX
  8
MY3DLAYER
10
-10.914999715134359
20
4.147461450891924
30
0.0
 70
     32
  0
VERTEX
  8
MY3DLAYER
10
-10.149789161117692
20
3.494347849097061
30
0.0
 70
     32
  0
VERTEX
  8
MY3DLAYER
10
-10.448949289090443
20
2.9306402550118476
30
0.0
 70
     32
  0
VERTEX
  8
MY3DLAYER
10
-11.018485359348249
20
3.149337053313354
30
0.0
 70
     32
  0
SEQEND
  0
LINE
 8
Layer0
10
-12.365678587005018
20
-3.001341430607466
30
0.0
11
-12.256883111672792
21
-3.455437232005686
31
0.0
  0
POLYLINE
 8
Layer0
 66
     1
70
    8
 10
0.0
 20
 0.0
 30
0.0
  0
VERTEX
  8
MY3DLAYER
10
-2.2151616362103375
20
12.30714293217009
30
0.0
 70
     32
  0
VERTEX
  8
MY3DLAYER
10
-1.2643714592555813
20
12.42639653556434
30
0.0
 70
     32
  0
VERTEX
  8
MY3DLAYER
10
-0.30725188739570714
20
12.47271616076724
30
0.0
 70
     32
  0
VERTEX
  8
MY3DLAYER
10
0.45135732535436174
20
12.441808566036254
30
0.0
 70
     32
  0
VERTEX
  8
MY3DLAYER
10
0.41064865266586026
20
11.442637507624363
30
0.0
 70
     32
  0
VERTEX
  8
MY3DLAYER
10
-0.30342952479770047
20
11.471730799063938
30
0.0
 70
     32
  0
VERTEX
  8
MY3DLAYER
10
-1.177850739018704
20
11.42941334563074
30
0.0
 70
     32
  0
VERTEX
  8
MY3DLAYER
10
-2.052780960466415
20
11.319674536632576
30
0.0
 70
     32
  0
VERTEX
  8
MY3DLAYER
10
-2.2151616362103375
20
12.30714293217009
30
0.0
 70
     32
  0
SEQEND
  0
LINE
 8
Layer0
10
-11.809082053198692
20
-4.7444570200401035
30
0.0
11
-11.600601628039275
21
-5.2545561046457845
31
0.0
  0
LINE
 8
Layer0
10
11.673804662567889
20
4.04447370204437
30
0.0
11
12.04637290005063
21
2.7430259857121806
31
0.0
  0
LINE
 8
Layer0
10
-12.480146476977026
20
-2.5235698314442114
30
0.0
11
-12.440151176913973
21
-2.6905041435452923
31
0.0
  0
LINE
 8
Layer0
10
2.968576759811291
20
12.094978335883013
30
0.0
11
4.540112301085766
21
11.573107762135109
31
0.0
  0
LINE
 8
Layer0
10
-12.440151176913973
20
-2.6905041435452923
30
0.0
11
-12.421428230987365
21
-2.8014190092490554
31
0.0
  0
POLYLINE
 8
Layer0
 66
     1
70
    8
 10
0.0
 20
 0.0
 30
0.0
  0
VERTEX
  8
MY3DLAYER
10
-8.76632968197647
20
-7.782271781795301
30
0.0
 70
     32
  0
VERTEX
  8
MY3DLAYER
10
-8.152440744142956
20
-8.415269309917266
30
0.0
 70
     32
  0
VERTEX
  8
MY3DLAYER
10
-7.49201857737603
20
-8.999553538906667
30
0.0
 70
     32
  0
VERTEX
  8
MY3DLAYER
10
-6.788917890750636
20
-9.53171415664323
30
0.0
 70
     32
  0
VERTEX
  8
MY3DLAYER
10
-6.0472424965458105
20
-10.008645082704843
30
0.0
 70
     32
  0
VERTEX
  8
MY3DLAYER
10
-5.27132135738058
20
-10.427562597735434
30
0.0
 70
     32
  0
VERTEX
  8
MY3DLAYER
10
-4.465683319206964
20
-10.786021591276715
30
0.0
 70
     32
  0
VERTEX
  8
MY3DLAYER
10
-3.6352628571367864
20
-11.081847122570364
30
0.0
 70
     32
  0
VERTEX
  8
MY3DLAYER
10
-2.7731369045677954
20
-11.316099993479947
30
0.0
 70
     32
  0
VERTEX
  8
MY3DLAYER
10
-2.5754026018539538
20
-11.353699516124308
30
0.0
 70
     32
  0
VERTEX
  8
MY3DLAYER
10
-2.4515849607195217
20
-11.385533175195985
30
0.0
 70
     32
  0
VERTEX
  8
MY3DLAYER
10
-1.9025172376903616
20
-11.482188066622243
30
0.0
 70
     32
  0
VERTEX
  8
MY3DLAYER
10
-1.0080308514074958
20
-11.581439272263667
30
0.0
 70
     32
  0
VERTEX
  8
MY3DLAYER
10
-0.11538237228993428
20
-11.61100145388532
30
0.0
 70
     32
  0
VERTEX
  8
MY3DLAYER
10
0.7768793873415214
20
-11.571451711123677
30
0.0
 70
     32
  0
VERTEX
  8
MY3DLAYER
10
1.6634115544421981
20
-11.46302686826516
30
0.0
 70
     32
  0
VERTEX
  8
MY3DLAYER
10
2.538905564829349
20
-11.286376174438768
30
0.0
 70
     32
  0
VERTEX
  8
MY3DLAYER
10
3.3981189509217278
20
-11.042557415905286
30
0.0
 70
     32
  0
VERTEX
  8
MY3DLAYER
10
4.235906733692018
20
-10.733030582021756
30
0.0
 70
     32
  0
VERTEX
  8
MY3DLAYER
10
5.047252230856821
20
-10.359649122809431
30
0.0
 70
     32
  0
VERTEX
  8
MY3DLAYER
10
5.82729709682425
20
-9.924648850475062
30
0.0
 70
     32
  0
VERTEX
  8
MY3DLAYER
10
6.571370414519799
20
-9.430634551343273
30
0.0
 70
     32
  0
VERTEX
  8
MY3DLAYER
10
7.275016664888138
20
-8.88056438836795
30
0.0
 70
     32
  0
VERTEX
  8
MY3DLAYER
10
7.934022406589352
20
-8.27773218762054
30
0.0
 70
     32
  0
VERTEX
  8
MY3DLAYER
10
8.544441506131095
20
-7.625747714824009
30
0.0
 70
     32
  0
VERTEX
  8
MY3DLAYER
10
9.102618767358564
20
-6.928515060036723
30
0.0
 70
     32
  0
VERTEX
  8
MY3DLAYER
10
9.605211818808488
20
-6.190209259919074
30
0.0
 70
     32
  0
VERTEX
  8
MY3DLAYER
10
10.049211127865545
20
-5.415251297568874
30
0.0
 70
     32
  0
VERTEX
  8
MY3DLAYER
10
10.43195802187611
20
-4.6082816296268945
30
0.0
 70
     32
  0
VERTEX
  8
MY3DLAYER
10
10.751160608308792
20
-3.774132399172418
30
0.0
 70
     32
  0
VERTEX
  8
MY3DLAYER
10
11.004907498631669
20
-2.917798500798311
30
0.0
 70
     32
  0
VERTEX
  8
MY3DLAYER
10
11.191679253727422
20
-2.0444076711283565
30
0.0
 70
     32
  0
VERTEX
  8
MY3DLAYER
10
11.309448371462276
20
-1.1659708185646633
30
0.0
 70
     32
  0
VERTEX
  8
MY3DLAYER
10
11.360702953961333
20
0.047544926380242256
30
0.0
 70
     32
  0
VERTEX
  8
MY3DLAYER
10
11.282069509511073
20
1.2921039474532956
30
0.0
 70
     32
  0
VERTEX
  8
MY3DLAYER
10
11.070134070902837
20
2.5197060965862925
30
0.0
 70
     32
  0
VERTEX
  8
MY3DLAYER
10
12.04637290005063
20
2.7430259857121806
30
0.0
 70
     32
  0
VERTEX
  8
MY3DLAYER
10
12.276675624876338
20
1.4090342672727036
30
0.0
 70
     32
  0
VERTEX
  8
MY3DLAYER
10
12.362036205761948
20
0.058002505559406635
30
0.0
 70
     32
  0
VERTEX
  8
MY3DLAYER
10
12.306634950075022
20
-1.2536908648243106
30
0.0
 70
     32
  0
VERTEX
  8
MY3DLAYER
10
12.177666631840083
20
-2.2156622689558936
30
0.0
 70
     32
  0
VERTEX
  8
MY3DLAYER
10
11.97470068403366
20
-3.164781141124318
30
0.0
 70
     32
  0
VERTEX
  8
MY3DLAYER
10
11.698952468941338
20
-4.095364147281543
30
0.0
 70
     32
  0
VERTEX
  8
MY3DLAYER
10
11.352073169850554
20
-5.001838946345205
30
0.0
 70
     32
  0
VERTEX
  8
MY3DLAYER
10
10.936139903747279
20
-5.87877755743716
30
0.0
 70
     32
  0
VERTEX
  8
MY3DLAYER
10
10.453643283517088
20
-6.7209288626915455
30
0.0
 70
     32
  0
VERTEX
  8
MY3DLAYER
10
9.90747250412832
20
-7.523250051005229
30
0.0
 70
     32
  0
VERTEX
  8
MY3DLAYER
10
9.300898042101426
20
-8.280936814445115
30
0.0
 70
     32
  0
VERTEX
  8
MY3DLAYER
10
8.637552071860291
20
-8.989452116495873
30
0.0
 70
     32
  0
VERTEX
  8
MY3DLAYER
10
7.92140671623258
20
-9.64455335988356
30
0.0
 70
     32
  0
VERTEX
  8
MY3DLAYER
10
7.156750261335393
20
-10.242317791293871
30
0.0
 70
     32
  0
VERTEX
  8
MY3DLAYER
10
6.348161478271704
20
-10.779165990861323
30
0.0
 70
     32
  0
VERTEX
  8
MY3DLAYER
10
5.500482205399613
20
-11.251883305774022
30
0.0
 70
     32
  0
VERTEX
  8
MY3DLAYER
10
4.61878835535199
20
-11.657639099649394
30
0.0
 70
     32
  0
VERTEX
  8
MY3DLAYER
10
3.7083595204168804
20
-11.994003702415394
30
0.0
 70
     32
  0
VERTEX
  8
MY3DLAYER
10
2.7746473582818894
20
-12.258962959201098
30
0.0
 70
     32
  0
VERTEX
  8
MY3DLAYER
10
1.8232429474491436
20
-12.450930291117825
30
0.0
 70
     32
  0
VERTEX
  8
MY3DLAYER
10
0.8598433077968751
20
-12.56875619571062
30
0.0
 70
     32
  0
VERTEX
  8
MY3DLAYER
10
-0.10978271323707571
20
-12.61173513019138
30
0.0
 70
     32
  0
VERTEX
  8
MY3DLAYER
10
-1.0798289845759672
20
-12.579609736236664
30
0.0
 70
     32
  0
VERTEX
  8
MY3DLAYER
10
-2.044486858679698
20
-12.472572381052132
30
0.0
 70
     32
  0
VERTEX
  8
MY3DLAYER
10
-2.663087588565555
20
-12.36367727781521
30
0.0
 70
     32
  0
VERTEX
  8
MY3DLAYER
10
-2.793527934724876
20
-12.330140913604245
30
0.0
 70
     32
  0
VERTEX
  8
MY3DLAYER
10
-2.9979799537889575
20
-12.291264005475611
30
0.0
 70
     32
  0
VERTEX
  8
MY3DLAYER
10
-3.934598742961524
20
-12.036770286016477
30
0.0
 70
     32
  0
VERTEX
  8
MY3DLAYER
10
-4.83727229647011
20
-11.715205613963832
30
0.0
 70
     32
  0
VERTEX
  8
MY3DLAYER
10
-5.712762380249731
20
-11.325666789557696
30
0.0
 70
     32
  0
VERTEX
  8
MY3DLAYER
10
-6.555958990819592
20
-10.870427447629002
30
0.0
 70
     32
  0
VERTEX
  8
MY3DLAYER
10
-7.361940613139335
20
-10.35214469950882
30
0.0
 70
     32
  0
VERTEX
  8
MY3DLAYER
10
-8.126002946187374
20
-9.773843624174049
30
0.0
 70
     32
  0
VERTEX
  8
MY3DLAYER
10
-8.843686360718623
20
-9.138899611663547
30
0.0
 70
     32
  0
VERTEX
  8
MY3DLAYER
10
-9.510801928937882
20
-8.451018661821452
30
0.0
 70
     32
  0
VERTEX
  8
MY3DLAYER
10
-8.76632968197647
20
-7.782271781795301
30
0.0
 70
     32
  0
SEQEND
  0
LINE
 8
Layer0
10
-9.471867512358681
20
2.2080941440066972
30
0.0
11
-9.095920322950889
21
1.7276117450695307
31
0.0
  0
LINE
 8
Layer0
10
-9.927791985718432
20
2.613473595266462
30
0.0
11
-9.471867512358681
21
2.2080941440066972
31
0.0
  0
LINE
 8
Layer0
10
-8.629610224485099
20
0.6054189929013536
30
0.0
11
-8.554327637213245
21
0.0
31
0.0
  0
LINE
 8
Layer0
10
-8.592492673854467
20
-0.6342144915242925
30
0.0
11
-8.748244783232616
21
-1.2501900362543565
31
0.0
  0
LINE
 8
Layer0
10
-8.748244783232616
20
-1.2501900362543565
30
0.0
11
-9.016120905394988
21
-1.8263210755644197
31
0.0
  0
LINE
 8
Layer0
10
1.3420354513194337
20
12.40552016076724
30
0.0
11
0.45135732535436174
21
12.441808566036254
31
0.0
  0
LINE
 8
Layer0
10
-8.812108431249255
20
1.1875650479767963
30
0.0
11
-8.629610224485099
21
0.6054189929013536
31
0.0
  0
LINE
 8
Layer0
10
-8.554327637213245
20
0.0
30
0.0
11
-8.592492673854467
21
-0.6342144915242925
31
0.0
  0
LINE
 8
Layer0
10
-9.386725191250918
20
-2.3423996108538256
30
0.0
11
-9.847058565279422
21
-2.7803240061971004
31
0.0
  0
LINE
 8
Layer0
10
-9.095920322950889
20
1.7276117450695307
30
0.0
11
-8.812108431249255
21
1.1875650479767963
31
0.0
  0
LINE
 8
Layer0
10
-9.847058565279422
20
-2.7803240061971004
30
0.0
11
-10.380974672669728
21
-3.124733909583206
31
0.0
  0
LINE
 8
Layer0
10
-9.016120905394988
20
-1.8263210755644197
30
0.0
11
-9.386725191250918
21
-2.3423996108538256
31
0.0
  0
LINE
 8
Layer0
10
-10.448949289090443
20
2.9306402550118476
30
0.0
11
-9.927791985718432
21
2.613473595266462
31
0.0
 0
ENDSEC
 0
EOF
