 0
SECTION
 2
ENTITIES
  0
LINE
 8
Top layer
10
-11.408453099229545
20
-5.229248382709161
30
0.0
11
-10.832275310907468
21
-6.387245090501386
31
0.0
  0
LINE
 8
Top layer
10
-11.609082053198694
20
-4.7444570200401035
30
0.0
11
-11.438622924377553
21
-5.199131665034243
31
0.0
  0
LINE
 8
Top layer
10
-10.232888491739597
20
7.265386010461521
30
0.0
11
-10.84056284222505
21
6.356315602554838
31
0.0
  0
LINE
 8
Top layer
10
2.102088120085467
20
11.24158614126163
30
0.0
11
2.119125206940933
21
11.370995663812888
31
0.0
  0
LINE
 8
Top layer
10
-9.965633097626785
20
-5.894376320174762
30
0.0
11
-9.94859601077132
21
-6.023785842726023
31
0.0
  0
POLYLINE
 8
Top layer
 66
     1
70
    8
 10
0.0
 20
 0.0
 30
0.0
  0
VERTEX
  8
MY3DLAYER
10
-17.5
20
17.5
30
0.0
 70
     32
  0
VERTEX
  8
MY3DLAYER
10
20.0
20
17.5
30
0.0
 70
     32
  0
VERTEX
  8
MY3DLAYER
10
19.999999999999996
20
-17.5
30
0.0
 70
     32
  0
VERTEX
  8
MY3DLAYER
10
-17.5
20
-17.5
30
0.0
 70
     32
  0
VERTEX
  8
MY3DLAYER
10
-17.5
20
17.5
30
0.0
 70
     32
  0
SEQEND
  0
POLYLINE
 8
Top layer
 66
     1
70
    8
 10
0.0
 20
 0.0
 30
0.0
  0
VERTEX
  8
MY3DLAYER
10
-14.421779597273401
20
12.161737180502094
30
0.0
 70
     32
  0
VERTEX
  8
MY3DLAYER
10
-14.04400281411406
20
11.968763265123258
30
0.0
 70
     32
  0
VERTEX
  8
MY3DLAYER
10
-13.629153138180003
20
11.880140602737923
30
0.0
 70
     32
  0
VERTEX
  8
MY3DLAYER
10
-13.20550188931463
20
11.901908681331772
30
0.0
 70
     32
  0
VERTEX
  8
MY3DLAYER
10
-12.801920200011327
20
12.032584042322089
30
0.0
 70
     32
  0
VERTEX
  8
MY3DLAYER
10
-12.445911495445834
20
12.263261375808627
30
0.0
 70
     32
  0
VERTEX
  8
MY3DLAYER
10
-12.161737180502094
20
12.578220402726593
30
0.0
 70
     32
  0
VERTEX
  8
MY3DLAYER
10
-11.968763265123258
20
12.955997185885934
30
0.0
 70
     32
  0
VERTEX
  8
MY3DLAYER
10
-11.880140602737923
20
13.370846861819992
30
0.0
 70
     32
  0
VERTEX
  8
MY3DLAYER
10
-11.901908681331772
20
13.794498110685364
30
0.0
 70
     32
  0
VERTEX
  8
MY3DLAYER
10
-12.032584042322087
20
14.198079799988667
30
0.0
 70
     32
  0
VERTEX
  8
MY3DLAYER
10
-12.263261375808627
20
14.55408850455416
30
0.0
 70
     32
  0
VERTEX
  8
MY3DLAYER
10
-12.578220402726593
20
14.838262819497903
30
0.0
 70
     32
  0
VERTEX
  8
MY3DLAYER
10
-12.955997185885934
20
15.031236734876737
30
0.0
 70
     32
  0
VERTEX
  8
MY3DLAYER
10
-13.370846861819992
20
15.119859397262074
30
0.0
 70
     32
  0
VERTEX
  8
MY3DLAYER
10
-13.794498110685364
20
15.098091318668224
30
0.0
 70
     32
  0
VERTEX
  8
MY3DLAYER
10
-14.19807979998867
20
14.967415957677908
30
0.0
 70
     32
  0
VERTEX
  8
MY3DLAYER
10
-14.55408850455416
20
14.736738624191368
30
0.0
 70
     32
  0
VERTEX
  8
MY3DLAYER
10
-14.838262819497903
20
14.421779597273401
30
0.0
 70
     32
  0
VERTEX
  8
MY3DLAYER
10
-15.031236734876737
20
14.04400281411406
30
0.0
 70
     32
  0
VERTEX
  8
MY3DLAYER
10
-15.119859397262074
20
13.629153138180003
30
0.0
 70
     32
  0
VERTEX
  8
MY3DLAYER
10
-15.098091318668224
20
13.20550188931463
30
0.0
 70
     32
  0
VERTEX
  8
MY3DLAYER
10
-14.967415957677908
20
12.801920200011326
30
0.0
 70
     32
  0
VERTEX
  8
MY3DLAYER
10
-14.736738624191371
20
12.445911495445834
30
0.0
 70
     32
  0
VERTEX
  8
MY3DLAYER
10
-14.421779597273401
20
12.161737180502094
30
0.0
 70
     32
  0
SEQEND
  0
POLYLINE
 8
Top layer
 66
     1
70
    8
 10
0.0
 20
 0.0
 30
0.0
  0
VERTEX
  8
MY3DLAYER
10
14.404395285101822
20
13.807685868695176
30
0.0
 70
     32
  0
VERTEX
  8
MY3DLAYER
10
14.379129234604019
20
13.38422883828583
30
0.0
 70
     32
  0
VERTEX
  8
MY3DLAYER
10
14.464322848152362
20
12.968661421226416
30
0.0
 70
     32
  0
VERTEX
  8
MY3DLAYER
10
14.654170321772636
20
12.589303850231904
30
0.0
 70
     32
  0
VERTEX
  8
MY3DLAYER
10
14.935733863875402
20
12.27200871684754
30
0.0
 70
     32
  0
VERTEX
  8
MY3DLAYER
10
15.289825384372113
20
12.038399160058468
30
0.0
 70
     32
  0
VERTEX
  8
MY3DLAYER
10
15.692314131304821
20
11.90439528510182
30
0.0
 70
     32
  0
VERTEX
  8
MY3DLAYER
10
16.115771161714168
20
11.879129234604019
30
0.0
 70
     32
  0
VERTEX
  8
MY3DLAYER
10
16.531338578773582
20
11.96432284815236
30
0.0
 70
     32
  0
VERTEX
  8
MY3DLAYER
10
16.910696149768093
20
12.154170321772636
30
0.0
 70
     32
  0
VERTEX
  8
MY3DLAYER
10
17.22799128315246
20
12.435733863875404
30
0.0
 70
     32
  0
VERTEX
  8
MY3DLAYER
10
17.46160083994153
20
12.789825384372115
30
0.0
 70
     32
  0
VERTEX
  8
MY3DLAYER
10
17.595604714898176
20
13.19231413130482
30
0.0
 70
     32
  0
VERTEX
  8
MY3DLAYER
10
17.620870765395978
20
13.615771161714166
30
0.0
 70
     32
  0
VERTEX
  8
MY3DLAYER
10
17.535677151847636
20
14.03133857877358
30
0.0
 70
     32
  0
VERTEX
  8
MY3DLAYER
10
17.34582967822736
20
14.410696149768095
30
0.0
 70
     32
  0
VERTEX
  8
MY3DLAYER
10
17.064266136124594
20
14.727991283152457
30
0.0
 70
     32
  0
VERTEX
  8
MY3DLAYER
10
16.710174615627885
20
14.961600839941529
30
0.0
 70
     32
  0
VERTEX
  8
MY3DLAYER
10
16.307685868695177
20
15.095604714898176
30
0.0
 70
     32
  0
VERTEX
  8
MY3DLAYER
10
15.884228838285832
20
15.120870765395978
30
0.0
 70
     32
  0
VERTEX
  8
MY3DLAYER
10
15.468661421226418
20
15.035677151847635
30
0.0
 70
     32
  0
VERTEX
  8
MY3DLAYER
10
15.089303850231905
20
14.84582967822736
30
0.0
 70
     32
  0
VERTEX
  8
MY3DLAYER
10
14.77200871684754
20
14.564266136124594
30
0.0
 70
     32
  0
VERTEX
  8
MY3DLAYER
10
14.538399160058471
20
14.210174615627883
30
0.0
 70
     32
  0
VERTEX
  8
MY3DLAYER
10
14.404395285101822
20
13.807685868695176
30
0.0
 70
     32
  0
SEQEND
  0
POLYLINE
 8
Top layer
 66
     1
70
    8
 10
0.0
 20
 0.0
 30
0.0
  0
VERTEX
  8
MY3DLAYER
10
16.626805829739393
20
-14.999246294577611
30
0.0
 70
     32
  0
VERTEX
  8
MY3DLAYER
10
16.9934814333499
20
-14.785931429582861
30
0.0
 70
     32
  0
VERTEX
  8
MY3DLAYER
10
17.292452919083306
20
-14.4849824627642
30
0.0
 70
     32
  0
VERTEX
  8
MY3DLAYER
10
17.50334587426062
20
-14.116908568868647
30
0.0
 70
     32
  0
VERTEX
  8
MY3DLAYER
10
17.6117882925036
20
-13.706793375494305
30
0.0
 70
     32
  0
VERTEX
  8
MY3DLAYER
10
17.610390002218548
20
-13.282585555322239
30
0.0
 70
     32
  0
VERTEX
  8
MY3DLAYER
10
17.499246294577613
20
-12.873194170260604
30
0.0
 70
     32
  0
VERTEX
  8
MY3DLAYER
10
17.285931429582863
20
-12.506518566650099
30
0.0
 70
     32
  0
VERTEX
  8
MY3DLAYER
10
16.984982462764204
20
-12.20754708091669
30
0.0
 70
     32
  0
VERTEX
  8
MY3DLAYER
10
16.61690856886865
20
-11.996654125739376
30
0.0
 70
     32
  0
VERTEX
  8
MY3DLAYER
10
16.206793375494307
20
-11.8882117074964
30
0.0
 70
     32
  0
VERTEX
  8
MY3DLAYER
10
15.782585555322239
20
-11.889609997781449
30
0.0
 70
     32
  0
VERTEX
  8
MY3DLAYER
10
15.373194170260602
20
-12.000753705422385
30
0.0
 70
     32
  0
VERTEX
  8
MY3DLAYER
10
15.006518566650097
20
-12.214068570417135
30
0.0
 70
     32
  0
VERTEX
  8
MY3DLAYER
10
14.70754708091669
20
-12.515017537235794
30
0.0
 70
     32
  0
VERTEX
  8
MY3DLAYER
10
14.496654125739376
20
-12.88309143113135
30
0.0
 70
     32
  0
VERTEX
  8
MY3DLAYER
10
14.3882117074964
20
-13.29320662450569
30
0.0
 70
     32
  0
VERTEX
  8
MY3DLAYER
10
14.38960999778145
20
-13.717414444677758
30
0.0
 70
     32
  0
VERTEX
  8
MY3DLAYER
10
14.500753705422385
20
-14.126805829739391
30
0.0
 70
     32
  0
VERTEX
  8
MY3DLAYER
10
14.714068570417137
20
-14.493481433349897
30
0.0
 70
     32
  0
VERTEX
  8
MY3DLAYER
10
15.015017537235796
20
-14.792452919083303
30
0.0
 70
     32
  0
VERTEX
  8
MY3DLAYER
10
15.38309143113135
20
-15.003345874260619
30
0.0
 70
     32
  0
VERTEX
  8
MY3DLAYER
10
15.793206624505691
20
-15.111788292503599
30
0.0
 70
     32
  0
VERTEX
  8
MY3DLAYER
10
16.217414444677758
20
-15.110390002218546
30
0.0
 70
     32
  0
VERTEX
  8
MY3DLAYER
10
16.626805829739393
20
-14.999246294577611
30
0.0
 70
     32
  0
SEQEND
  0
POLYLINE
 8
Top layer
 66
     1
70
    8
 10
0.0
 20
 0.0
 30
0.0
  0
VERTEX
  8
MY3DLAYER
10
-13.499999999999998
20
-11.874999999999998
30
0.0
 70
     32
  0
VERTEX
  8
MY3DLAYER
10
-13.920580948291594
20
-11.93037053228026
30
0.0
 70
     32
  0
VERTEX
  8
MY3DLAYER
10
-14.312499999999996
20
-12.092708718850284
30
0.0
 70
     32
  0
VERTEX
  8
MY3DLAYER
10
-14.649048519428138
20
-12.350951480571858
30
0.0
 70
     32
  0
VERTEX
  8
MY3DLAYER
10
-14.90729128114971
20
-12.687499999999996
30
0.0
 70
     32
  0
VERTEX
  8
MY3DLAYER
10
-15.069629467719732
20
-13.079419051708399
30
0.0
 70
     32
  0
VERTEX
  8
MY3DLAYER
10
-15.124999999999998
20
-13.499999999999998
30
0.0
 70
     32
  0
VERTEX
  8
MY3DLAYER
10
-15.069629467719732
20
-13.920580948291594
30
0.0
 70
     32
  0
VERTEX
  8
MY3DLAYER
10
-14.90729128114971
20
-14.312499999999996
30
0.0
 70
     32
  0
VERTEX
  8
MY3DLAYER
10
-14.649048519428138
20
-14.649048519428138
30
0.0
 70
     32
  0
VERTEX
  8
MY3DLAYER
10
-14.3125
20
-14.90729128114971
30
0.0
 70
     32
  0
VERTEX
  8
MY3DLAYER
10
-13.920580948291594
20
-15.069629467719732
30
0.0
 70
     32
  0
VERTEX
  8
MY3DLAYER
10
-13.499999999999998
20
-15.124999999999998
30
0.0
 70
     32
  0
VERTEX
  8
MY3DLAYER
10
-13.079419051708403
20
-15.069629467719732
30
0.0
 70
     32
  0
VERTEX
  8
MY3DLAYER
10
-12.687499999999998
20
-14.90729128114971
30
0.0
 70
     32
  0
VERTEX
  8
MY3DLAYER
10
-12.350951480571858
20
-14.649048519428138
30
0.0
 70
     32
  0
VERTEX
  8
MY3DLAYER
10
-12.092708718850284
20
-14.3125
30
0.0
 70
     32
  0
VERTEX
  8
MY3DLAYER
10
-11.930370532280262
20
-13.920580948291594
30
0.0
 70
     32
  0
VERTEX
  8
MY3DLAYER
10
-11.874999999999998
20
-13.499999999999998
30
0.0
 70
     32
  0
VERTEX
  8
MY3DLAYER
10
-11.93037053228026
20
-13.079419051708403
30
0.0
 70
     32
  0
VERTEX
  8
MY3DLAYER
10
-12.092708718850284
20
-12.687499999999998
30
0.0
 70
     32
  0
VERTEX
  8
MY3DLAYER
10
-12.350951480571858
20
-12.35095148057186
30
0.0
 70
     32
  0
VERTEX
  8
MY3DLAYER
10
-12.687499999999996
20
-12.092708718850284
30
0.0
 70
     32
  0
VERTEX
  8
MY3DLAYER
10
-13.079419051708399
20
-11.930370532280262
30
0.0
 70
     32
  0
VERTEX
  8
MY3DLAYER
10
-13.499999999999998
20
-11.874999999999998
30
0.0
 70
     32
  0
SEQEND
  0
POLYLINE
 8
Top layer
 66
     1
70
    8
 10
0.0
 20
 0.0
 30
0.0
  0
VERTEX
  8
MY3DLAYER
10
-11.44536460971255
20
5.1674145292185685
30
0.0
 70
     32
  0
VERTEX
  8
MY3DLAYER
10
-10.936271292616908
20
6.155957356875531
30
0.0
 70
     32
  0
VERTEX
  8
MY3DLAYER
10
-11.44536460971255
20
5.1674145292185685
30
0.0
 70
     32
  0
VERTEX
  8
MY3DLAYER
10
-11.519834016650407
20
4.979082746270721
30
0.0
 70
     32
  0
VERTEX
  8
MY3DLAYER
10
-11.593227376874914
20
4.781468834094112
30
0.0
 70
     32
  0
VERTEX
  8
MY3DLAYER
10
-11.922579207663196
20
3.921807381021778
30
0.0
 70
     32
  0
VERTEX
  8
MY3DLAYER
10
-11.948434426007209
20
3.8250627723329194
30
0.0
 70
     32
  0
VERTEX
  8
MY3DLAYER
10
-11.977183028517238
20
3.747656263157719
30
0.0
 70
     32
  0
VERTEX
  8
MY3DLAYER
10
-12.16564008076466
20
3.0123264111494796
30
0.0
 70
     32
  0
VERTEX
  8
MY3DLAYER
10
-12.266978173078263
20
2.6331412905401694
30
0.0
 70
     32
  0
VERTEX
  8
MY3DLAYER
10
-12.273629639336203
20
2.590968095417186
30
0.0
 70
     32
  0
VERTEX
  8
MY3DLAYER
10
-12.303307516736954
20
2.475169673778067
30
0.0
 70
     32
  0
VERTEX
  8
MY3DLAYER
10
-12.463368469374041
20
1.3879412151348496
30
0.0
 70
     32
  0
VERTEX
  8
MY3DLAYER
10
-12.474788198822553
20
1.3155351531317643
30
0.0
 70
     32
  0
VERTEX
  8
MY3DLAYER
10
-12.49463439317068
20
1.175564607489948
30
0.0
 70
     32
  0
VERTEX
  8
MY3DLAYER
10
-12.543732474766966
20
-0.016575062635174203
30
0.0
 70
     32
  0
VERTEX
  8
MY3DLAYER
10
-12.549067440522485
20
-0.13692019064053434
30
0.0
 70
     32
  0
VERTEX
  8
MY3DLAYER
10
-12.476939518812163
20
-1.275396367389446
30
0.0
 70
     32
  0
VERTEX
  8
MY3DLAYER
10
-12.473055632996735
20
-1.3485944784747144
30
0.0
 70
     32
  0
VERTEX
  8
MY3DLAYER
10
-12.46601027893474
20
-1.4479048625099717
30
0.0
 70
     32
  0
VERTEX
  8
MY3DLAYER
10
-12.325183552922049
20
-2.278308450902267
30
0.0
 70
     32
  0
VERTEX
  8
MY3DLAYER
10
-12.263532023780376
20
-2.665929210923946
30
0.0
 70
     32
  0
VERTEX
  8
MY3DLAYER
10
-12.252455056754876
20
-2.707161736820118
30
0.0
 70
     32
  0
VERTEX
  8
MY3DLAYER
10
-12.246372900050625
20
-2.7430259857121793
30
0.0
 70
     32
  0
VERTEX
  8
MY3DLAYER
10
-12.198899230534137
20
-2.906516125657204
30
0.0
 70
     32
  0
VERTEX
  8
MY3DLAYER
10
-12.028050429842583
20
-3.494886365813191
30
0.0
 70
     32
  0
VERTEX
  8
MY3DLAYER
10
-11.917457231626097
20
-3.954146264984135
30
0.0
 70
     32
  0
VERTEX
  8
MY3DLAYER
10
-11.892561696955271
20
-4.008093942199828
30
0.0
 70
     32
  0
VERTEX
  8
MY3DLAYER
10
-11.609082053198694
20
-4.7444570200401035
30
0.0
 70
     32
  0
VERTEX
  8
MY3DLAYER
10
-9.73701851674416
20
-3.9793339022301866
30
0.0
 70
     32
  0
VERTEX
  8
MY3DLAYER
10
-10.18097467266973
20
-3.124733909583206
30
0.0
 70
     32
  0
VERTEX
  8
MY3DLAYER
10
-10.769746218388521
20
-3.3635490226584657
30
0.0
 70
     32
  0
VERTEX
  8
MY3DLAYER
10
-11.392721833632201
20
-3.48839282143518
30
0.0
 70
     32
  0
VERTEX
  8
MY3DLAYER
10
-12.028050429842583
20
-3.494886365813191
30
0.0
 70
     32
  0
VERTEX
  8
MY3DLAYER
10
-12.198899230534137
20
-2.906516125657204
30
0.0
 70
     32
  0
VERTEX
  8
MY3DLAYER
10
-12.246372900050625
20
-2.7430259857121793
30
0.0
 70
     32
  0
VERTEX
  8
MY3DLAYER
10
-12.252455056754876
20
-2.707161736820118
30
0.0
 70
     32
  0
VERTEX
  8
MY3DLAYER
10
-12.263532023780376
20
-2.665929210923946
30
0.0
 70
     32
  0
VERTEX
  8
MY3DLAYER
10
-12.325183552922049
20
-2.278308450902267
30
0.0
 70
     32
  0
VERTEX
  8
MY3DLAYER
10
-12.46601027893474
20
-1.4479048625099717
30
0.0
 70
     32
  0
VERTEX
  8
MY3DLAYER
10
-12.473055632996735
20
-1.3485944784747144
30
0.0
 70
     32
  0
VERTEX
  8
MY3DLAYER
10
-12.476939518812163
20
-1.275396367389446
30
0.0
 70
     32
  0
VERTEX
  8
MY3DLAYER
10
-12.549067440522485
20
-0.13692019064053434
30
0.0
 70
     32
  0
VERTEX
  8
MY3DLAYER
10
-12.543732474766966
20
-0.016575062635174203
30
0.0
 70
     32
  0
VERTEX
  8
MY3DLAYER
10
-12.49463439317068
20
1.175564607489948
30
0.0
 70
     32
  0
VERTEX
  8
MY3DLAYER
10
-12.474788198822553
20
1.3155351531317643
30
0.0
 70
     32
  0
VERTEX
  8
MY3DLAYER
10
-12.463368469374041
20
1.3879412151348496
30
0.0
 70
     32
  0
VERTEX
  8
MY3DLAYER
10
-12.303307516736954
20
2.475169673778067
30
0.0
 70
     32
  0
VERTEX
  8
MY3DLAYER
10
-12.273629639336203
20
2.590968095417186
30
0.0
 70
     32
  0
VERTEX
  8
MY3DLAYER
10
-12.266978173078263
20
2.6331412905401694
30
0.0
 70
     32
  0
VERTEX
  8
MY3DLAYER
10
-12.16564008076466
20
3.0123264111494796
30
0.0
 70
     32
  0
VERTEX
  8
MY3DLAYER
10
-11.977183028517238
20
3.747656263157719
30
0.0
 70
     32
  0
VERTEX
  8
MY3DLAYER
10
-11.948434426007209
20
3.8250627723329194
30
0.0
 70
     32
  0
VERTEX
  8
MY3DLAYER
10
-11.922579207663196
20
3.921807381021778
30
0.0
 70
     32
  0
VERTEX
  8
MY3DLAYER
10
-11.593227376874914
20
4.781468834094112
30
0.0
 70
     32
  0
VERTEX
  8
MY3DLAYER
10
-11.519834016650407
20
4.979082746270721
30
0.0
 70
     32
  0
VERTEX
  8
MY3DLAYER
10
-11.44536460971255
20
5.1674145292185685
30
0.0
 70
     32
  0
SEQEND
  0
POLYLINE
 8
Top layer
 66
     1
70
    8
 10
0.0
 20
 0.0
 30
0.0
  0
VERTEX
  8
MY3DLAYER
10
12.60190303115439
20
2.8774809487852653
30
0.0
 70
     32
  0
VERTEX
  8
MY3DLAYER
10
11.27013407090283
20
2.5197060965862925
30
0.0
 70
     32
  0
VERTEX
  8
MY3DLAYER
10
11.48206950951107
20
1.2921039474532956
30
0.0
 70
     32
  0
VERTEX
  8
MY3DLAYER
10
11.560702953961329
20
0.047544926380242256
30
0.0
 70
     32
  0
VERTEX
  8
MY3DLAYER
10
11.509448371462273
20
-1.1659708185646633
30
0.0
 70
     32
  0
VERTEX
  8
MY3DLAYER
10
11.391679253727421
20
-2.0444076711283565
30
0.0
 70
     32
  0
VERTEX
  8
MY3DLAYER
10
11.204907498631664
20
-2.917798500798311
30
0.0
 70
     32
  0
VERTEX
  8
MY3DLAYER
10
10.95116060830879
20
-3.774132399172418
30
0.0
 70
     32
  0
VERTEX
  8
MY3DLAYER
10
10.631958021876105
20
-4.6082816296268945
30
0.0
 70
     32
  0
VERTEX
  8
MY3DLAYER
10
10.249211127865545
20
-5.415251297568874
30
0.0
 70
     32
  0
VERTEX
  8
MY3DLAYER
10
9.805211818808486
20
-6.190209259919074
30
0.0
 70
     32
  0
VERTEX
  8
MY3DLAYER
10
9.30261876735856
20
-6.928515060036723
30
0.0
 70
     32
  0
VERTEX
  8
MY3DLAYER
10
8.744441506131091
20
-7.625747714824009
30
0.0
 70
     32
  0
VERTEX
  8
MY3DLAYER
10
8.13402240658935
20
-8.27773218762054
30
0.0
 70
     32
  0
VERTEX
  8
MY3DLAYER
10
7.475016664888136
20
-8.88056438836795
30
0.0
 70
     32
  0
VERTEX
  8
MY3DLAYER
10
6.771370414519797
20
-9.430634551343273
30
0.0
 70
     32
  0
VERTEX
  8
MY3DLAYER
10
6.0272970968242445
20
-9.924648850475062
30
0.0
 70
     32
  0
VERTEX
  8
MY3DLAYER
10
5.2472522308568195
20
-10.359649122809431
30
0.0
 70
     32
  0
VERTEX
  8
MY3DLAYER
10
4.435906733692015
20
-10.733030582021756
30
0.0
 70
     32
  0
VERTEX
  8
MY3DLAYER
10
3.598118950921726
20
-11.042557415905286
30
0.0
 70
     32
  0
VERTEX
  8
MY3DLAYER
10
2.738905564829347
20
-11.286376174438768
30
0.0
 70
     32
  0
VERTEX
  8
MY3DLAYER
10
1.863411554442195
20
-11.46302686826516
30
0.0
 70
     32
  0
VERTEX
  8
MY3DLAYER
10
0.9768793873415182
20
-11.571451711123677
30
0.0
 70
     32
  0
VERTEX
  8
MY3DLAYER
10
0.08461762771006254
20
-11.61100145388532
30
0.0
 70
     32
  0
VERTEX
  8
MY3DLAYER
10
-0.808030851407499
20
-11.581439272263667
30
0.0
 70
     32
  0
VERTEX
  8
MY3DLAYER
10
-1.7025172376903648
20
-11.482188066622243
30
0.0
 70
     32
  0
VERTEX
  8
MY3DLAYER
10
-2.251584960719525
20
-11.385533175195985
30
0.0
 70
     32
  0
VERTEX
  8
MY3DLAYER
10
-2.375402601853957
20
-11.353699516124308
30
0.0
 70
     32
  0
VERTEX
  8
MY3DLAYER
10
-2.5731369045677988
20
-11.316099993479947
30
0.0
 70
     32
  0
VERTEX
  8
MY3DLAYER
10
-3.43526285713679
20
-11.081847122570364
30
0.0
 70
     32
  0
VERTEX
  8
MY3DLAYER
10
-4.265683319206968
20
-10.786021591276715
30
0.0
 70
     32
  0
VERTEX
  8
MY3DLAYER
10
-5.071321357380583
20
-10.427562597735434
30
0.0
 70
     32
  0
VERTEX
  8
MY3DLAYER
10
-5.847242496545814
20
-10.008645082704843
30
0.0
 70
     32
  0
VERTEX
  8
MY3DLAYER
10
-6.588917890750639
20
-9.53171415664323
30
0.0
 70
     32
  0
VERTEX
  8
MY3DLAYER
10
-7.292018577376034
20
-8.999553538906667
30
0.0
 70
     32
  0
VERTEX
  8
MY3DLAYER
10
-7.952440744142959
20
-8.415269309917266
30
0.0
 70
     32
  0
VERTEX
  8
MY3DLAYER
10
-8.566329681976473
20
-7.782271781795301
30
0.0
 70
     32
  0
VERTEX
  8
MY3DLAYER
10
-9.310801928937884
20
-8.451018661821452
30
0.0
 70
     32
  0
VERTEX
  8
MY3DLAYER
10
-9.264937528056837
20
-8.541552861047856
30
0.0
 70
     32
  0
VERTEX
  8
MY3DLAYER
10
-8.321119439411719
20
-9.484144159375191
30
0.0
 70
     32
  0
VERTEX
  8
MY3DLAYER
10
-7.283944065105896
20
-10.322915989535048
30
0.0
 70
     32
  0
VERTEX
  8
MY3DLAYER
10
-6.164774915583169
20
-11.0486785918319
30
0.0
 70
     32
  0
VERTEX
  8
MY3DLAYER
10
-4.975873842246902
20
-11.653480359319396
30
0.0
 70
     32
  0
VERTEX
  8
MY3DLAYER
10
-3.7302666940501066
20
-12.130694957270043
30
0.0
 70
     32
  0
VERTEX
  8
MY3DLAYER
10
-2.441600603568498
20
-12.475093922685112
30
0.0
 70
     32
  0
VERTEX
  8
MY3DLAYER
10
-1.1239944661600987
20
-12.682903948429402
30
0.0
 70
     32
  0
VERTEX
  8
MY3DLAYER
10
0.20811574960684526
20
-12.751848224373813
30
0.0
 70
     32
  0
VERTEX
  8
MY3DLAYER
10
1.5401351654463853
20
-12.681171382603582
30
0.0
 70
     32
  0
VERTEX
  8
MY3DLAYER
10
2.8574698978956117
20
-12.471647773387225
30
0.0
 70
     32
  0
VERTEX
  8
MY3DLAYER
10
4.145686951955806
20
-12.125572981232946
30
0.0
 70
     32
  0
VERTEX
  8
MY3DLAYER
10
5.3906723520059145
20
-11.6467386739844
30
0.0
 70
     32
  0
VERTEX
  8
MY3DLAYER
10
6.578785777473054
20
-11.040391060514319
30
0.0
 70
     32
  0
VERTEX
  8
MY3DLAYER
10
7.697010009039096
20
-10.31317341216227
30
0.0
 70
     32
  0
VERTEX
  8
MY3DLAYER
10
8.733093548019527
20
-9.473053277663688
30
0.0
 70
     32
  0
VERTEX
  8
MY3DLAYER
10
9.675684846346858
20
-8.529235189018571
30
0.0
 70
     32
  0
VERTEX
  8
MY3DLAYER
10
10.514456676506718
20
-7.4920598147127455
30
0.0
 70
     32
  0
VERTEX
  8
MY3DLAYER
10
11.24021927880357
20
-6.372890665190017
30
0.0
 70
     32
  0
VERTEX
  8
MY3DLAYER
10
11.845021046291066
20
-5.18398959185375
30
0.0
 70
     32
  0
VERTEX
  8
MY3DLAYER
10
12.322235644241715
20
-3.9383824436569554
30
0.0
 70
     32
  0
VERTEX
  8
MY3DLAYER
10
12.666634609656782
20
-2.6497163531753465
30
0.0
 70
     32
  0
VERTEX
  8
MY3DLAYER
10
12.87444463540107
20
-1.332110215766947
30
0.0
 70
     32
  0
VERTEX
  8
MY3DLAYER
10
12.943388911345483
20
1.3769367590565906e-18
30
0.0
 70
     32
  0
VERTEX
  8
MY3DLAYER
10
12.87271206957525
20
1.3320194158395438
30
0.0
 70
     32
  0
VERTEX
  8
MY3DLAYER
10
12.663188460358896
20
2.6493541482887735
30
0.0
 70
     32
  0
VERTEX
  8
MY3DLAYER
10
12.60190303115439
20
2.8774809487852653
30
0.0
 70
     32
  0
SEQEND
  0
POLYLINE
 8
Top layer
 66
     1
70
    8
 10
0.0
 20
 0.0
 30
0.0
  0
VERTEX
  8
MY3DLAYER
10
0.610648652665857
20
11.442637507624363
30
0.0
 70
     32
  0
VERTEX
  8
MY3DLAYER
10
0.610648652665857
20
12.713581942126838
30
0.0
 70
     32
  0
VERTEX
  8
MY3DLAYER
10
0.1915406869716726
20
12.735273161738636
30
0.0
 70
     32
  0
VERTEX
  8
MY3DLAYER
10
-1.1404787288678704
20
12.664596319968405
30
0.0
 70
     32
  0
VERTEX
  8
MY3DLAYER
10
-2.0438397545942726
20
12.520915706474156
30
0.0
 70
     32
  0
VERTEX
  8
MY3DLAYER
10
-1.8527809604664185
20
11.319674536632576
30
0.0
 70
     32
  0
VERTEX
  8
MY3DLAYER
10
-0.9778507390187072
20
11.42941334563074
30
0.0
 70
     32
  0
VERTEX
  8
MY3DLAYER
10
-0.10342952479770368
20
11.471730799063938
30
0.0
 70
     32
  0
VERTEX
  8
MY3DLAYER
10
0.610648652665857
20
11.442637507624363
30
0.0
 70
     32
  0
SEQEND
  0
LINE
 8
Top layer
10
6.070835317285527
20
10.290668245842443
30
0.0
11
5.991376005986583
21
10.394221636435717
31
0.0
  0
LINE
 8
Top layer
10
-9.112079707033512
20
-6.2479297107680365
30
0.0
11
-9.032620395734565
21
-6.144376320174762
31
0.0
  0
LINE
 8
Top layer
10
1.1861125050487145
20
11.620995663812886
30
0.0
11
1.1361622937963993
21
11.50040518636415
31
0.0
  0
LINE
 8
Top layer
10
5.508413092842048
20
9.557705332697912
30
0.0
11
5.6378226153933095
21
9.540668245842445
31
0.0
  0
LINE
 8
Top layer
10
-7.287869171500982
20
1.1712551835756295
30
0.0
11
-7.237918960248668
21
1.2918456610243705
31
0.0
  0
LINE
 8
Top layer
10
-8.15389457528542
20
1.1712551835756295
30
0.0
11
-8.074435263986476
21
1.0677017929823573
31
0.0
  0
LINE
 8
Top layer
10
5.6378226153933095
20
9.540668245842445
30
0.0
11
5.767232137944568
21
9.557705332697912
31
0.0
  0
LINE
 8
Top layer
10
1.2655718163476595
20
11.72454905440616
30
0.0
11
1.1861125050487145
21
11.620995663812886
31
0.0
  0
LINE
 8
Top layer
10
5.284269224800035
20
9.687114855249172
30
0.0
11
5.387822615393309
21
9.607655543950225
31
0.0
  0
LINE
 8
Top layer
10
1.6191252069409325
20
11.870995663812886
30
0.0
11
1.4897156843896742
21
11.853958576957421
31
0.0
  0
LINE
 8
Top layer
10
6.1207855285378425
20
10.170077768393703
30
0.0
11
6.070835317285527
21
10.290668245842443
31
0.0
  0
LINE
 8
Top layer
10
1.9726785975342074
20
11.017442273219615
30
0.0
11
2.0521379088331524
21
11.120995663812888
31
0.0
  0
LINE
 8
Top layer
10
-7.367328482799927
20
1.0677017929823573
30
0.0
11
-7.287869171500982
21
1.1712551835756295
31
0.0
  0
LINE
 8
Top layer
10
-8.015005835760611
20
1.8204103783267687
30
0.0
11
-8.074435263986476
21
1.7748085741689037
31
0.0
  0
LINE
 8
Top layer
10
-7.237918960248668
20
1.2918456610243705
30
0.0
11
-7.220881873393199
21
1.421255183575632
31
0.0
  0
LINE
 8
Top layer
10
1.1247268301294224
20
11.413544216184787
30
0.0
11
1.1191252069409336
21
11.370995663812888
31
0.0
  0
LINE
 8
Top layer
10
-7.682230342650613
20
0.9263437541334693
30
0.0
11
-7.591472350841943
21
0.9382922704310959
31
0.0
  0
LINE
 8
Top layer
10
1.1191252069409336
20
11.370995663812888
30
0.0
11
1.1361622937963993
21
11.24158614126163
31
0.0
  0
LINE
 8
Top layer
10
1.748534729492194
20
10.888032750668355
30
0.0
11
1.8691252069409336
21
10.937982961920667
31
0.0
  0
LINE
 8
Top layer
10
6.070835317285527
20
9.790668245842445
30
0.0
11
6.1207855285378425
21
9.911258723291185
31
0.0
  0
LINE
 8
Top layer
10
5.137822615393309
20
10.040668245842445
30
0.0
11
5.154859702248775
21
9.911258723291185
31
0.0
  0
LINE
 8
Top layer
10
-9.465633097626787
20
-5.394376320174762
30
0.0
11
-9.595042620178045
21
-5.411413407030228
31
0.0
  0
LINE
 8
Top layer
10
-7.720881873393202
20
0.92125518357563
30
0.0
11
-7.682230342650613
21
0.9263437541334693
31
0.0
  0
LINE
 8
Top layer
10
2.0521379088331524
20
11.120995663812888
30
0.0
11
2.102088120085467
21
11.24158614126163
31
0.0
  0
LINE
 8
Top layer
10
1.8691252069409336
20
11.804008365705107
30
0.0
11
1.748534729492194
21
11.853958576957421
31
0.0
  0
LINE
 8
Top layer
10
-7.59147235084194
20
1.9042180967201652
30
0.0
11
-7.720881873393202
21
1.921255183575631
31
0.0
  0
LINE
 8
Top layer
10
1.369125206940933
20
10.937982961920667
30
0.0
11
1.4897156843896726
21
10.888032750668355
31
0.0
  0
LINE
 8
Top layer
10
-7.237918960248668
20
1.5506647061268906
30
0.0
11
-7.287869171500982
21
1.6712551835756315
31
0.0
  0
LINE
 8
Top layer
10
2.0521379088331524
20
11.620995663812886
30
0.0
11
1.9726785975342074
21
11.72454905440616
31
0.0
  0
LINE
 8
Top layer
10
-9.465633097626787
20
-6.3943763201747625
30
0.0
11
-9.336223575075525
21
-6.377339233319296
31
0.0
  0
LINE
 8
Top layer
10
-8.965633097626785
20
-5.894376320174762
30
0.0
11
-8.98267018448225
21
-5.764966797623502
31
0.0
  0
LINE
 8
Top layer
10
-7.85029139594446
20
1.9042180967201652
30
0.0
11
-7.970881873393201
21
1.8542678854678514
31
0.0
  0
LINE
 8
Top layer
10
1.1361622937963993
20
11.50040518636415
30
0.0
11
1.1247268301294224
21
11.413544216184787
31
0.0
  0
LINE
 8
Top layer
10
5.7672321379445695
20
10.523631158986978
30
0.0
11
5.6378226153933095
21
10.540668245842443
31
0.0
  0
LINE
 8
Top layer
10
5.154859702248775
20
10.170077768393707
30
0.0
11
5.137822615393309
21
10.040668245842445
31
0.0
  0
LINE
 8
Top layer
10
1.2655718163476595
20
11.017442273219615
30
0.0
11
1.369125206940933
21
10.937982961920667
31
0.0
  0
LINE
 8
Top layer
10
5.508413092842048
20
10.523631158986978
30
0.0
11
5.3878226153933095
21
10.473680947734664
31
0.0
  0
LINE
 8
Top layer
10
-9.336223575075525
20
-5.411413407030228
30
0.0
11
-9.465633097626787
21
-5.394376320174762
31
0.0
  0
LINE
 8
Top layer
10
-7.970881873393201
20
1.8542678854678514
30
0.0
11
-8.015005835760611
21
1.8204103783267687
31
0.0
  0
LINE
 8
Top layer
10
-7.720881873393202
20
1.921255183575631
30
0.0
11
-7.85029139594446
21
1.9042180967201652
31
0.0
  0
LINE
 8
Top layer
10
-7.470881873393199
20
1.8542678854678487
30
0.0
11
-7.59147235084194
21
1.9042180967201652
31
0.0
  0
LINE
 8
Top layer
10
-7.287869171500982
20
1.6712551835756315
30
0.0
11
-7.367328482799927
21
1.7748085741689037
31
0.0
  0
LINE
 8
Top layer
10
2.119125206940933
20
11.370995663812888
30
0.0
11
2.102088120085467
21
11.500405186364146
31
0.0
  0
LINE
 8
Top layer
10
-8.203844786537735
20
1.2918456610243705
30
0.0
11
-8.15389457528542
21
1.1712551835756295
31
0.0
  0
LINE
 8
Top layer
10
-9.898645799519004
20
-5.6443763201747625
30
0.0
11
-9.94859601077132
21
-5.764966797623501
31
0.0
  0
LINE
 8
Top layer
10
-8.98267018448225
20
-6.023785842726023
30
0.0
11
-8.965633097626785
21
-5.894376320174762
31
0.0
  0
LINE
 8
Top layer
10
-7.367328482799927
20
1.7748085741689037
30
0.0
11
-7.470881873393199
21
1.8542678854678487
31
0.0
  0
LINE
 8
Top layer
10
-8.074435263986476
20
1.7748085741689037
30
0.0
11
-8.15389457528542
21
1.6712551835756315
31
0.0
  0
LINE
 8
Top layer
10
-9.215633097626787
20
-6.327389022066981
30
0.0
11
-9.112079707033512
21
-6.2479297107680365
31
0.0
  0
LINE
 8
Top layer
10
-9.715633097626787
20
-5.461363618282542
30
0.0
11
-9.819186488220062
21
-5.540822929581488
31
0.0
  0
LINE
 8
Top layer
10
-9.595042620178045
20
-6.377339233319296
30
0.0
11
-9.465633097626787
21
-6.3943763201747625
31
0.0
  0
LINE
 8
Top layer
10
-9.819186488220062
20
-6.2479297107680365
30
0.0
11
-9.715633097626787
21
-6.327389022066981
31
0.0
  0
LINE
 8
Top layer
10
-8.074435263986476
20
1.0677017929823573
30
0.0
11
-7.970881873393203
21
0.9882424816834094
31
0.0
  0
LINE
 8
Top layer
10
-9.215633097626785
20
-5.461363618282542
30
0.0
11
-9.336223575075525
21
-5.411413407030228
31
0.0
  0
LINE
 8
Top layer
10
-7.470881873393202
20
0.9882424816834094
30
0.0
11
-7.367328482799927
21
1.0677017929823573
31
0.0
  0
LINE
 8
Top layer
10
-9.819186488220062
20
-5.540822929581488
30
0.0
11
-9.898645799519004
21
-5.6443763201747625
31
0.0
  0
LINE
 8
Top layer
10
2.102088120085467
20
11.500405186364146
30
0.0
11
2.0521379088331524
21
11.620995663812886
31
0.0
  0
LINE
 8
Top layer
10
1.8691252069409336
20
10.937982961920667
30
0.0
11
1.9726785975342074
21
11.017442273219615
31
0.0
  0
LINE
 8
Top layer
10
5.284269224800035
20
10.394221636435717
30
0.0
11
5.20480991350109
21
10.290668245842443
31
0.0
  0
LINE
 8
Top layer
10
1.6191252069409325
20
10.870995663812888
30
0.0
11
1.748534729492194
21
10.888032750668355
31
0.0
  0
LINE
 8
Top layer
10
5.20480991350109
20
10.290668245842443
30
0.0
11
5.154859702248775
21
10.170077768393707
31
0.0
  0
LINE
 8
Top layer
10
-8.220881873393203
20
1.421255183575632
30
0.0
11
-8.203844786537735
21
1.2918456610243705
31
0.0
  0
LINE
 8
Top layer
10
-8.15389457528542
20
1.6712551835756315
30
0.0
11
-8.203844786537735
21
1.5506647061268906
31
0.0
  0
LINE
 8
Top layer
10
5.154859702248775
20
9.911258723291185
30
0.0
11
5.20480991350109
21
9.790668245842445
31
0.0
  0
LINE
 8
Top layer
10
5.887822615393309
20
9.607655543950225
30
0.0
11
5.991376005986583
21
9.687114855249172
31
0.0
  0
LINE
 8
Top layer
10
-9.032620395734565
20
-5.6443763201747625
30
0.0
11
-9.112079707033512
21
-5.540822929581488
31
0.0
  0
LINE
 8
Top layer
10
-9.94859601077132
20
-6.023785842726023
30
0.0
11
-9.898645799519004
21
-6.144376320174762
31
0.0
  0
LINE
 8
Top layer
10
6.137822615393309
20
10.040668245842445
30
0.0
11
6.1207855285378425
21
10.170077768393703
31
0.0
  0
LINE
 8
Top layer
10
5.3878226153933095
20
10.473680947734664
30
0.0
11
5.284269224800035
21
10.394221636435717
31
0.0
  0
LINE
 8
Top layer
10
-9.112079707033512
20
-5.540822929581488
30
0.0
11
-9.215633097626785
21
-5.461363618282542
31
0.0
  0
LINE
 8
Top layer
10
6.1207855285378425
20
9.911258723291185
30
0.0
11
6.137822615393309
21
10.040668245842445
31
0.0
  0
LINE
 8
Top layer
10
-9.336223575075525
20
-6.377339233319296
30
0.0
11
-9.215633097626787
21
-6.327389022066981
31
0.0
  0
LINE
 8
Top layer
10
-9.715633097626787
20
-6.327389022066981
30
0.0
11
-9.595042620178045
21
-6.377339233319296
31
0.0
  0
LINE
 8
Top layer
10
-7.970881873393203
20
0.9882424816834094
30
0.0
11
-7.85029139594446
21
0.9382922704310959
31
0.0
  0
LINE
 8
Top layer
10
-7.220881873393199
20
1.421255183575632
30
0.0
11
-7.237918960248668
21
1.5506647061268906
31
0.0
  0
LINE
 8
Top layer
10
-7.85029139594446
20
0.9382922704310959
30
0.0
11
-7.720881873393202
21
0.92125518357563
31
0.0
  0
LINE
 8
Top layer
10
1.748534729492194
20
11.853958576957421
30
0.0
11
1.6191252069409325
21
11.870995663812886
31
0.0
  0
LINE
 8
Top layer
10
-9.94859601077132
20
-5.764966797623501
30
0.0
11
-9.965633097626785
21
-5.894376320174762
31
0.0
  0
LINE
 8
Top layer
10
-8.203844786537735
20
1.5506647061268906
30
0.0
11
-8.220881873393203
21
1.421255183575632
31
0.0
  0
LINE
 8
Top layer
10
5.6378226153933095
20
10.540668245842443
30
0.0
11
5.508413092842048
21
10.523631158986978
31
0.0
  0
LINE
 8
Top layer
10
5.991376005986583
20
9.687114855249172
30
0.0
11
6.070835317285527
21
9.790668245842445
31
0.0
  0
LINE
 8
Top layer
10
1.1361622937963993
20
11.24158614126163
30
0.0
11
1.1861125050487145
21
11.120995663812888
31
0.0
  0
LINE
 8
Top layer
10
5.991376005986583
20
10.394221636435717
30
0.0
11
5.887822615393309
21
10.473680947734664
31
0.0
  0
LINE
 8
Top layer
10
-8.98267018448225
20
-5.764966797623502
30
0.0
11
-9.032620395734565
21
-5.6443763201747625
31
0.0
  0
LINE
 8
Top layer
10
5.20480991350109
20
9.790668245842445
30
0.0
11
5.284269224800035
21
9.687114855249172
31
0.0
  0
LINE
 8
Top layer
10
-9.032620395734565
20
-6.144376320174762
30
0.0
11
-8.98267018448225
21
-6.023785842726023
31
0.0
  0
LINE
 8
Top layer
10
-7.591472350841943
20
0.9382922704310959
30
0.0
11
-7.470881873393202
21
0.9882424816834094
31
0.0
  0
LINE
 8
Top layer
10
5.767232137944568
20
9.557705332697912
30
0.0
11
5.887822615393309
21
9.607655543950225
31
0.0
  0
LINE
 8
Top layer
10
5.387822615393309
20
9.607655543950225
30
0.0
11
5.508413092842048
21
9.557705332697912
31
0.0
  0
LINE
 8
Top layer
10
1.1861125050487145
20
11.120995663812888
30
0.0
11
1.2655718163476595
21
11.017442273219615
31
0.0
  0
LINE
 8
Top layer
10
1.9726785975342074
20
11.72454905440616
30
0.0
11
1.8691252069409336
21
11.804008365705107
31
0.0
  0
LINE
 8
Top layer
10
1.4897156843896742
20
11.853958576957421
30
0.0
11
1.369125206940933
21
11.804008365705107
31
0.0
  0
LINE
 8
Top layer
10
1.4897156843896726
20
10.888032750668355
30
0.0
11
1.6191252069409325
21
10.870995663812888
31
0.0
  0
LINE
 8
Top layer
10
5.887822615393309
20
10.473680947734664
30
0.0
11
5.7672321379445695
21
10.523631158986978
31
0.0
  0
LINE
 8
Top layer
10
-9.595042620178045
20
-5.411413407030228
30
0.0
11
-9.715633097626787
21
-5.461363618282542
31
0.0
  0
LINE
 8
Top layer
10
1.369125206940933
20
11.804008365705107
30
0.0
11
1.2655718163476595
21
11.72454905440616
31
0.0
  0
LINE
 8
Top layer
10
-9.898645799519004
20
-6.144376320174762
30
0.0
11
-9.819186488220062
21
-6.2479297107680365
31
0.0
  0
LINE
 8
Top layer
10
-1.5000000000000013
20
-2.5980762113533156
30
0.0
11
-0.7764571353075645
21
-2.8977774788672046
31
0.0
  0
LINE
 8
Top layer
10
1.499999999999998
20
-2.5980762113533173
30
0.0
11
2.121320343559642
21
-2.1213203435596433
31
0.0
  0
LINE
 8
Top layer
10
2.121320343559642
20
-2.1213203435596433
30
0.0
11
2.598076211353315
21
-1.5000000000000016
31
0.0
  0
LINE
 8
Top layer
10
2.598076211353315
20
-1.5000000000000016
30
0.0
11
2.897777478867204
21
-0.7764571353075648
31
0.0
  0
LINE
 8
Top layer
10
2.897777478867204
20
-0.7764571353075648
30
0.0
11
3.0
21
0.0
31
0.0
  0
LINE
 8
Top layer
10
3.0
20
0.0
30
0.0
11
2.897777478867205
21
0.7764571353075622
31
0.0
  0
LINE
 8
Top layer
10
2.897777478867205
20
0.7764571353075622
30
0.0
11
2.5980762113533156
21
1.5
31
0.0
  0
LINE
 8
Top layer
10
2.5980762113533156
20
1.5
30
0.0
11
2.1213203435596424
21
2.121320343559643
31
0.0
  0
LINE
 8
Top layer
10
-2.598076211353316
20
-1.4999999999999991
30
0.0
11
-2.1213203435596437
21
-2.1213203435596415
31
0.0
  0
LINE
 8
Top layer
10
-2.1213203435596437
20
-2.1213203435596415
30
0.0
11
-1.5000000000000013
21
-2.5980762113533156
31
0.0
  0
LINE
 8
Top layer
10
-0.7764571353075645
20
-2.8977774788672046
30
0.0
11
-5.510910596163089e-16
21
-3.0
31
0.0
  0
LINE
 8
Top layer
10
-5.510910596163089e-16
20
-3.0
30
0.0
11
0.7764571353075608
21
-2.897777478867205
31
0.0
  0
LINE
 8
Top layer
10
0.7764571353075608
20
-2.897777478867205
30
0.0
11
1.499999999999998
21
-2.5980762113533173
31
0.0
  0
LINE
 8
Top layer
10
-2.897777478867205
20
-0.7764571353075611
30
0.0
11
-2.598076211353316
21
-1.4999999999999991
31
0.0
  0
LINE
 8
Top layer
10
0.7764571353075629
20
2.897777478867205
30
0.0
11
1.8369701987210297e-16
21
3.0
31
0.0
  0
LINE
 8
Top layer
10
-3.0
20
3.67394039744206e-16
30
0.0
11
-2.897777478867205
21
-0.7764571353075611
31
0.0
  0
LINE
 8
Top layer
10
-2.8977774788672046
20
0.7764571353075631
30
0.0
11
-3.0
21
3.67394039744206e-16
31
0.0
  0
LINE
 8
Top layer
10
-2.1213203435596424
20
2.121320343559643
30
0.0
11
-2.5980762113533156
21
1.500000000000001
31
0.0
  0
LINE
 8
Top layer
10
-1.4999999999999991
20
2.598076211353316
30
0.0
11
-2.1213203435596424
21
2.121320343559643
31
0.0
  0
LINE
 8
Top layer
10
1.5000000000000002
20
2.5980762113533156
30
0.0
11
0.7764571353075629
21
2.897777478867205
31
0.0
  0
LINE
 8
Top layer
10
-0.7764571353075619
20
2.897777478867205
30
0.0
11
-1.4999999999999991
21
2.598076211353316
31
0.0
  0
LINE
 8
Top layer
10
1.8369701987210297e-16
20
3.0
30
0.0
11
-0.7764571353075619
21
2.897777478867205
31
0.0
  0
LINE
 8
Top layer
10
2.1213203435596424
20
2.121320343559643
30
0.0
11
1.5000000000000002
21
2.5980762113533156
31
0.0
  0
LINE
 8
Top layer
10
-2.5980762113533156
20
1.500000000000001
30
0.0
11
-2.8977774788672046
21
0.7764571353075631
31
0.0
  0
POLYLINE
 8
Top layer
 66
     1
70
    8
 10
0.0
 20
 0.0
 30
0.0
  0
VERTEX
  8
MY3DLAYER
10
-11.609082053198694
20
-4.7444570200401035
30
0.0
 70
     32
  0
VERTEX
  8
MY3DLAYER
10
-11.892561696955271
20
-4.008093942199828
30
0.0
 70
     32
  0
VERTEX
  8
MY3DLAYER
10
-11.917457231626097
20
-3.954146264984135
30
0.0
 70
     32
  0
VERTEX
  8
MY3DLAYER
10
-12.028050429842583
20
-3.494886365813191
30
0.0
 70
     32
  0
VERTEX
  8
MY3DLAYER
10
-11.392721833632201
20
-3.48839282143518
30
0.0
 70
     32
  0
VERTEX
  8
MY3DLAYER
10
-10.769746218388521
20
-3.3635490226584657
30
0.0
 70
     32
  0
VERTEX
  8
MY3DLAYER
10
-10.18097467266973
20
-3.124733909583206
30
0.0
 70
     32
  0
VERTEX
  8
MY3DLAYER
10
-9.73701851674416
20
-3.9793339022301866
30
0.0
 70
     32
  0
VERTEX
  8
MY3DLAYER
10
-11.609082053198694
20
-4.7444570200401035
30
0.0
 70
     32
  0
SEQEND
  0
LINE
 8
Top layer
10
10.504714099133938
20
7.488894259432251
30
0.0
11
9.664593964635356
21
8.524977798412683
31
0.0
  0
LINE
 8
Top layer
10
8.720775875990237
20
9.467569096740014
30
0.0
11
7.683600501684414
21
10.306340926899871
31
0.0
  0
LINE
 8
Top layer
10
1.5236509027386111
20
12.666328885794226
30
0.0
11
0.610648652665857
21
12.713581942126838
31
0.0
  0
LINE
 8
Top layer
10
12.317113668204616
20
3.9375712023489604
30
0.0
11
11.838279360956069
21
5.182556602399072
31
0.0
  0
LINE
 8
Top layer
10
11.838279360956069
20
5.182556602399072
30
0.0
11
11.231931747485985
21
6.370670027866212
31
0.0
  0
LINE
 8
Top layer
10
11.231931747485985
20
6.370670027866212
30
0.0
11
10.504714099133938
21
7.488894259432251
31
0.0
  0
LINE
 8
Top layer
10
9.664593964635356
20
8.524977798412683
30
0.0
11
8.720775875990237
21
9.467569096740014
31
0.0
  0
LINE
 8
Top layer
10
7.683600501684414
20
10.306340926899871
30
0.0
11
6.564431352161684
21
11.032103529196725
31
0.0
  0
LINE
 8
Top layer
10
6.564431352161684
20
11.032103529196725
30
0.0
11
5.375530278825416
21
11.636905296684223
31
0.0
  0
LINE
 8
Top layer
10
5.375530278825416
20
11.636905296684223
30
0.0
11
4.129923130628625
21
12.114119894634866
31
0.0
  0
LINE
 8
Top layer
10
4.129923130628625
20
12.114119894634866
30
0.0
11
2.8412570401470134
21
12.458518860049935
31
0.0
  0
LINE
 8
Top layer
10
2.8412570401470134
20
12.458518860049935
30
0.0
11
1.5236509027386111
21
12.666328885794226
31
0.0
  0
LINE
 8
Top layer
10
-2.457813461317099
20
12.455072710752047
30
0.0
11
-3.7460305153772877
21
12.108997918597769
31
0.0
  0
LINE
 8
Top layer
10
-9.276028409768344
20
8.51266012638339
30
0.0
11
-10.114800239928199
21
7.475484752077567
31
0.0
  0
LINE
 8
Top layer
10
-3.7460305153772877
20
12.108997918597769
30
0.0
11
-4.991015915427399
21
11.630163611349221
31
0.0
  0
LINE
 8
Top layer
10
-10.105057662555419
20
-7.505469322067427
30
0.0
11
-9.310801928937884
21
-8.451018661821452
31
0.0
  0
LINE
 8
Top layer
10
-7.297353572460578
20
10.29659834952709
30
0.0
11
-8.333437111441008
21
9.45647821502851
31
0.0
  0
LINE
 8
Top layer
10
-6.17912934089454
20
11.023815997879137
30
0.0
11
-7.297353572460578
21
10.29659834952709
31
0.0
  0
LINE
 8
Top layer
10
-8.333437111441008
20
9.45647821502851
30
0.0
11
-9.276028409768344
21
8.51266012638339
31
0.0
  0
LINE
 8
Top layer
10
-4.991015915427399
20
11.630163611349221
30
0.0
11
-6.17912934089454
21
11.023815997879137
31
0.0
  0
LINE
 8
Top layer
10
-10.114800239928199
20
7.475484752077567
30
0.0
11
-10.232888491739597
21
7.265386010461521
31
0.0
  0
LINE
 8
Top layer
10
-11.438622924377553
20
-5.199131665034243
30
0.0
11
-11.408453099229545
21
-5.229248382709161
31
0.0
  0
LINE
 8
Top layer
10
-10.832275310907468
20
-6.387245090501386
30
0.0
11
-10.105057662555419
21
-7.505469322067427
31
0.0
  0
LINE
 8
Top layer
10
-10.84056284222505
20
6.356315602554838
30
0.0
11
-10.936271292616908
21
6.155957356875531
31
0.0
  0
LINE
 8
Top layer
10
-10.248949289090445
20
2.9306402550118476
30
0.0
11
-9.949789161117696
21
3.494347849097061
31
0.0
  0
LINE
 8
Top layer
10
-10.818485359348252
20
3.149337053313354
30
0.0
11
-10.248949289090445
21
2.9306402550118476
31
0.0
  0
LINE
 8
Top layer
10
-12.028050429842585
20
3.2664439326586896
30
0.0
11
-12.05718521165559
21
3.258533041227962
31
0.0
  0
LINE
 8
Top layer
10
-11.417981579274327
20
3.262491404561449
30
0.0
11
-10.818485359348252
21
3.149337053313354
31
0.0
  0
LINE
 8
Top layer
10
-12.028050429842585
20
3.2664439326586896
30
0.0
11
-11.417981579274327
21
3.262491404561449
31
0.0
  0
LINE
 8
Top layer
10
-10.714999715134361
20
4.147461450891924
30
0.0
11
-11.64507358389161
21
4.514834011999749
31
0.0
  0
LINE
 8
Top layer
10
-9.949789161117696
20
3.494347849097061
30
0.0
11
-10.714999715134361
21
4.147461450891924
31
0.0
  0
LINE
 8
Top layer
10
-9.647058565279426
20
-2.7803240061971004
30
0.0
11
-10.18097467266973
21
-3.124733909583206
31
0.0
  0
LINE
 8
Top layer
10
-9.186725191250922
20
-2.3423996108538256
30
0.0
11
-9.647058565279426
21
-2.7803240061971004
31
0.0
  0
LINE
 8
Top layer
10
-9.727791985718435
20
2.613473595266462
30
0.0
11
-9.271867512358684
21
2.2080941440066972
31
0.0
  0
LINE
 8
Top layer
10
-8.81612090539499
20
-1.8263210755644197
30
0.0
11
-9.186725191250922
21
-2.3423996108538256
31
0.0
  0
LINE
 8
Top layer
10
-9.271867512358684
20
2.2080941440066972
30
0.0
11
-8.895920322950891
21
1.7276117450695307
31
0.0
  0
LINE
 8
Top layer
10
-8.429610224485103
20
0.6054189929013536
30
0.0
11
-8.354327637213249
21
0.0
31
0.0
  0
LINE
 8
Top layer
10
-8.612108431249258
20
1.1875650479767963
30
0.0
11
-8.429610224485103
21
0.6054189929013536
31
0.0
  0
LINE
 8
Top layer
10
-8.895920322950891
20
1.7276117450695307
30
0.0
11
-8.612108431249258
21
1.1875650479767963
31
0.0
  0
LINE
 8
Top layer
10
-12.514032787976696
20
-12.61173513019138
30
0.0
11
-12.514032787976696
21
-12.36173513019138
31
0.0
  0
LINE
 8
Top layer
10
-8.548244783232619
20
-1.2501900362543565
30
0.0
11
-8.81612090539499
21
-1.8263210755644197
31
0.0
  0
LINE
 8
Top layer
10
-10.248949289090445
20
2.9306402550118476
30
0.0
11
-9.727791985718435
21
2.613473595266462
31
0.0
  0
LINE
 8
Top layer
10
-12.793013787976696
20
-12.61173513019138
30
0.0
11
-12.543013787976696
21
-12.61173513019138
31
0.0
  0
LINE
 8
Top layer
10
-8.392492673854472
20
-0.6342144915242925
30
0.0
11
-8.548244783232619
21
-1.2501900362543565
31
0.0
  0
LINE
 8
Top layer
10
-12.514032787976696
20
-12.61173513019138
30
0.0
11
-12.264032787976696
21
-12.61173513019138
31
0.0
  0
LINE
 8
Top layer
10
-12.514032787976696
20
-12.61173513019138
30
0.0
11
-12.514032787976696
21
-12.861735130191379
31
0.0
  0
LINE
 8
Top layer
10
-12.543013787976696
20
-12.61173513019138
30
0.0
11
-12.514032787976696
21
-12.61173513019138
31
0.0
  0
LINE
 8
Top layer
10
-8.354327637213249
20
0.0
30
0.0
11
-8.392492673854472
21
-0.6342144915242925
31
0.0
  0
LINE
 8
Top layer
10
-2.0438397545942726
20
12.520915706474156
30
0.0
11
-2.457813461317099
21
12.455072710752047
31
0.0
  0
LINE
 8
Top layer
10
12.60190303115439
20
2.8774809487852653
30
0.0
11
12.317113668204616
21
3.9375712023489604
31
0.0
  0
POLYLINE
 8
Top layer
 66
     1
70
    8
 10
0.0
 20
 0.0
 30
0.0
  0
VERTEX
  8
MY3DLAYER
10
11.27013407090283
20
2.5197060965862925
30
0.0
 70
     32
  0
VERTEX
  8
MY3DLAYER
10
12.60190303115439
20
2.8774809487852653
30
0.0
 70
     32
  0
VERTEX
  8
MY3DLAYER
10
12.663188460358896
20
2.6493541482887735
30
0.0
 70
     32
  0
VERTEX
  8
MY3DLAYER
10
12.87271206957525
20
1.3320194158395438
30
0.0
 70
     32
  0
VERTEX
  8
MY3DLAYER
10
12.943388911345483
20
1.3769367590565906e-18
30
0.0
 70
     32
  0
VERTEX
  8
MY3DLAYER
10
12.87444463540107
20
-1.332110215766947
30
0.0
 70
     32
  0
VERTEX
  8
MY3DLAYER
10
12.666634609656782
20
-2.6497163531753465
30
0.0
 70
     32
  0
VERTEX
  8
MY3DLAYER
10
12.322235644241715
20
-3.9383824436569554
30
0.0
 70
     32
  0
VERTEX
  8
MY3DLAYER
10
11.845021046291066
20
-5.18398959185375
30
0.0
 70
     32
  0
VERTEX
  8
MY3DLAYER
10
11.24021927880357
20
-6.372890665190017
30
0.0
 70
     32
  0
VERTEX
  8
MY3DLAYER
10
10.514456676506718
20
-7.4920598147127455
30
0.0
 70
     32
  0
VERTEX
  8
MY3DLAYER
10
9.675684846346858
20
-8.529235189018571
30
0.0
 70
     32
  0
VERTEX
  8
MY3DLAYER
10
8.733093548019527
20
-9.473053277663688
30
0.0
 70
     32
  0
VERTEX
  8
MY3DLAYER
10
7.697010009039096
20
-10.31317341216227
30
0.0
 70
     32
  0
VERTEX
  8
MY3DLAYER
10
6.578785777473054
20
-11.040391060514319
30
0.0
 70
     32
  0
VERTEX
  8
MY3DLAYER
10
5.3906723520059145
20
-11.6467386739844
30
0.0
 70
     32
  0
VERTEX
  8
MY3DLAYER
10
4.145686951955806
20
-12.125572981232946
30
0.0
 70
     32
  0
VERTEX
  8
MY3DLAYER
10
2.8574698978956117
20
-12.471647773387225
30
0.0
 70
     32
  0
VERTEX
  8
MY3DLAYER
10
1.5401351654463853
20
-12.681171382603582
30
0.0
 70
     32
  0
VERTEX
  8
MY3DLAYER
10
0.20811574960684526
20
-12.751848224373813
30
0.0
 70
     32
  0
VERTEX
  8
MY3DLAYER
10
-1.1239944661600987
20
-12.682903948429402
30
0.0
 70
     32
  0
VERTEX
  8
MY3DLAYER
10
-2.441600603568498
20
-12.475093922685112
30
0.0
 70
     32
  0
VERTEX
  8
MY3DLAYER
10
-3.7302666940501066
20
-12.130694957270043
30
0.0
 70
     32
  0
VERTEX
  8
MY3DLAYER
10
-4.975873842246902
20
-11.653480359319396
30
0.0
 70
     32
  0
VERTEX
  8
MY3DLAYER
10
-6.164774915583169
20
-11.0486785918319
30
0.0
 70
     32
  0
VERTEX
  8
MY3DLAYER
10
-7.283944065105896
20
-10.322915989535048
30
0.0
 70
     32
  0
VERTEX
  8
MY3DLAYER
10
-8.321119439411719
20
-9.484144159375191
30
0.0
 70
     32
  0
VERTEX
  8
MY3DLAYER
10
-9.264937528056837
20
-8.541552861047856
30
0.0
 70
     32
  0
VERTEX
  8
MY3DLAYER
10
-9.310801928937884
20
-8.451018661821452
30
0.0
 70
     32
  0
VERTEX
  8
MY3DLAYER
10
-8.566329681976473
20
-7.782271781795301
30
0.0
 70
     32
  0
VERTEX
  8
MY3DLAYER
10
-7.952440744142959
20
-8.415269309917266
30
0.0
 70
     32
  0
VERTEX
  8
MY3DLAYER
10
-7.292018577376034
20
-8.999553538906667
30
0.0
 70
     32
  0
VERTEX
  8
MY3DLAYER
10
-6.588917890750639
20
-9.53171415664323
30
0.0
 70
     32
  0
VERTEX
  8
MY3DLAYER
10
-5.847242496545814
20
-10.008645082704843
30
0.0
 70
     32
  0
VERTEX
  8
MY3DLAYER
10
-5.071321357380583
20
-10.427562597735434
30
0.0
 70
     32
  0
VERTEX
  8
MY3DLAYER
10
-4.265683319206968
20
-10.786021591276715
30
0.0
 70
     32
  0
VERTEX
  8
MY3DLAYER
10
-3.43526285713679
20
-11.081847122570364
30
0.0
 70
     32
  0
VERTEX
  8
MY3DLAYER
10
-2.5731369045677988
20
-11.316099993479947
30
0.0
 70
     32
  0
VERTEX
  8
MY3DLAYER
10
-2.375402601853957
20
-11.353699516124308
30
0.0
 70
     32
  0
VERTEX
  8
MY3DLAYER
10
-2.251584960719525
20
-11.385533175195985
30
0.0
 70
     32
  0
VERTEX
  8
MY3DLAYER
10
-1.7025172376903648
20
-11.482188066622243
30
0.0
 70
     32
  0
VERTEX
  8
MY3DLAYER
10
-0.808030851407499
20
-11.581439272263667
30
0.0
 70
     32
  0
VERTEX
  8
MY3DLAYER
10
0.08461762771006254
20
-11.61100145388532
30
0.0
 70
     32
  0
VERTEX
  8
MY3DLAYER
10
0.9768793873415182
20
-11.571451711123677
30
0.0
 70
     32
  0
VERTEX
  8
MY3DLAYER
10
1.863411554442195
20
-11.46302686826516
30
0.0
 70
     32
  0
VERTEX
  8
MY3DLAYER
10
2.738905564829347
20
-11.286376174438768
30
0.0
 70
     32
  0
VERTEX
  8
MY3DLAYER
10
3.598118950921726
20
-11.042557415905286
30
0.0
 70
     32
  0
VERTEX
  8
MY3DLAYER
10
4.435906733692015
20
-10.733030582021756
30
0.0
 70
     32
  0
VERTEX
  8
MY3DLAYER
10
5.2472522308568195
20
-10.359649122809431
30
0.0
 70
     32
  0
VERTEX
  8
MY3DLAYER
10
6.0272970968242445
20
-9.924648850475062
30
0.0
 70
     32
  0
VERTEX
  8
MY3DLAYER
10
6.771370414519797
20
-9.430634551343273
30
0.0
 70
     32
  0
VERTEX
  8
MY3DLAYER
10
7.475016664888136
20
-8.88056438836795
30
0.0
 70
     32
  0
VERTEX
  8
MY3DLAYER
10
8.13402240658935
20
-8.27773218762054
30
0.0
 70
     32
  0
VERTEX
  8
MY3DLAYER
10
8.744441506131091
20
-7.625747714824009
30
0.0
 70
     32
  0
VERTEX
  8
MY3DLAYER
10
9.30261876735856
20
-6.928515060036723
30
0.0
 70
     32
  0
VERTEX
  8
MY3DLAYER
10
9.805211818808486
20
-6.190209259919074
30
0.0
 70
     32
  0
VERTEX
  8
MY3DLAYER
10
10.249211127865545
20
-5.415251297568874
30
0.0
 70
     32
  0
VERTEX
  8
MY3DLAYER
10
10.631958021876105
20
-4.6082816296268945
30
0.0
 70
     32
  0
VERTEX
  8
MY3DLAYER
10
10.95116060830879
20
-3.774132399172418
30
0.0
 70
     32
  0
VERTEX
  8
MY3DLAYER
10
11.204907498631664
20
-2.917798500798311
30
0.0
 70
     32
  0
VERTEX
  8
MY3DLAYER
10
11.391679253727421
20
-2.0444076711283565
30
0.0
 70
     32
  0
VERTEX
  8
MY3DLAYER
10
11.509448371462273
20
-1.1659708185646633
30
0.0
 70
     32
  0
VERTEX
  8
MY3DLAYER
10
11.560702953961329
20
0.047544926380242256
30
0.0
 70
     32
  0
VERTEX
  8
MY3DLAYER
10
11.48206950951107
20
1.2921039474532956
30
0.0
 70
     32
  0
VERTEX
  8
MY3DLAYER
10
11.27013407090283
20
2.5197060965862925
30
0.0
 70
     32
  0
SEQEND
  0
POLYLINE
 8
Top layer
 66
     1
70
    8
 10
0.0
 20
 0.0
 30
0.0
  0
VERTEX
  8
MY3DLAYER
10
0.610648652665857
20
12.713581942126838
30
0.0
 70
     32
  0
VERTEX
  8
MY3DLAYER
10
0.610648652665857
20
11.442637507624363
30
0.0
 70
     32
  0
VERTEX
  8
MY3DLAYER
10
-0.10342952479770368
20
11.471730799063938
30
0.0
 70
     32
  0
VERTEX
  8
MY3DLAYER
10
-0.9778507390187072
20
11.42941334563074
30
0.0
 70
     32
  0
VERTEX
  8
MY3DLAYER
10
-1.8527809604664185
20
11.319674536632576
30
0.0
 70
     32
  0
VERTEX
  8
MY3DLAYER
10
-2.0438397545942726
20
12.520915706474156
30
0.0
 70
     32
  0
VERTEX
  8
MY3DLAYER
10
-1.1404787288678704
20
12.664596319968405
30
0.0
 70
     32
  0
VERTEX
  8
MY3DLAYER
10
0.1915406869716726
20
12.735273161738636
30
0.0
 70
     32
  0
VERTEX
  8
MY3DLAYER
10
0.610648652665857
20
12.713581942126838
30
0.0
 70
     32
  0
SEQEND
 0
ENDSEC
 0
EOF
